<svg width="461" height="67" viewBox="0 0 461 67" fill="none" xmlns="http://www.w3.org/2000/svg">
<path d="M40.3089 51.465C38.3893 58.4126 35.8303 60.9862 32.6312 64.5887H61.0395C68.3334 64.5887 72.1725 58.9277 73.7081 56.8691C82.1536 40.2719 68.7173 29.4648 58.736 30.2365C46.8304 30.2365 42.9806 41.7958 40.3089 51.465Z" stroke="#003474" stroke-width="0.767788"/>
<path d="M37.6218 43.7458C40.3091 29.8506 55.4091 25.0903 61.0395 25.9909C57.9684 16.11 50.5464 11.0665 47.2193 9.77983C42.3055 7.30957 35.4466 7.9786 32.6314 8.62189C20.0396 12.3273 16.3798 24.0611 16.1239 29.4648C6.2962 30.7 2.30371 39.5001 1.53592 43.7458C-0.613883 53.6268 7.67809 61.3722 11.517 63.4307C30.7117 69.6063 35.7557 53.3952 37.6218 43.7458Z" stroke="#003474" stroke-width="0.767788"/>
<path d="M41.0767 47.2197C39.2402 54.7646 33.7991 62.1949 31.4793 64.9746H62.5748C65.2811 64.9746 73.7246 61.7532 76.395 52.2373C79.5415 41.0249 71.6828 31.2215 60.8573 29.6331C50.0318 28.0448 43.3964 37.6894 41.0767 47.2197Z" fill="#003474"/>
<path d="M17.2755 29.4588L25.7212 22.8971M17.2755 29.4588L24.9534 40.2661M17.2755 29.4588L14.9721 47.5997M17.2755 29.4588L7.29424 34.8624L14.9721 47.5997M25.7212 22.8971L22.2661 16.3355M25.7212 22.8971L32.2474 9.77393L39.5414 18.2654M25.7212 22.8971L33.783 30.2307M25.7212 22.8971L39.5414 18.2654M25.7212 22.8971L24.9534 40.2661M39.5414 18.2654L46.8354 9.77393L49.1387 19.0374M39.5414 18.2654L46.8354 28.6868M39.5414 18.2654L33.783 30.2307M49.1387 19.0374L60.2717 24.827M49.1387 19.0374L46.8354 28.6868M46.8354 28.6868L33.783 30.2307M33.783 30.2307L24.9534 40.2661M33.783 30.2307L37.238 44.5119M24.9534 40.2661L37.238 44.5119M24.9534 40.2661L14.9721 47.5997M24.9534 40.2661L26.489 53.3893M37.238 44.5119L26.489 53.3893M14.9721 47.5997L1.53583 43.7399M14.9721 47.5997L5.37477 58.793M14.9721 47.5997L20.3466 64.5827L26.489 53.3893M14.9721 47.5997L26.489 53.3893M26.489 53.3893L33.783 56.8631" stroke="#003474" stroke-width="0.967185"/>
<path d="M15.6627 47.9843C15.6627 49.0113 14.8354 49.8395 13.82 49.8395C12.8047 49.8395 11.9773 49.0113 11.9773 47.9843C11.9773 46.9574 12.8047 46.1291 13.82 46.1291C14.8354 46.1291 15.6627 46.9574 15.6627 47.9843Z" fill="#003474" stroke="#003474" stroke-width="0.921346"/>
<path d="M6.60224 58.7912C6.60224 59.4759 6.05067 60.028 5.37377 60.028C4.69688 60.028 4.14531 59.4759 4.14531 58.7912C4.14531 58.1066 4.69688 57.5544 5.37377 57.5544C6.05067 57.5544 6.60224 58.1066 6.60224 58.7912Z" fill="#003474" stroke="#003474" stroke-width="0.614231"/>
<path d="M2.76404 43.3527C2.76404 44.0374 2.21247 44.5895 1.53558 44.5895C0.858681 44.5895 0.307115 44.0374 0.307115 43.3527C0.307115 42.6681 0.858681 42.116 1.53558 42.116C2.21247 42.116 2.76404 42.6681 2.76404 43.3527Z" fill="#003474" stroke="#003474" stroke-width="0.614231"/>
<path d="M8.13837 34.862C8.13837 35.5467 7.5868 36.0988 6.90991 36.0988C6.23301 36.0988 5.68144 35.5467 5.68144 34.862C5.68144 34.1774 6.23301 33.6252 6.90991 33.6252C7.5868 33.6252 8.13837 34.1774 8.13837 34.862Z" fill="#003474" stroke="#003474" stroke-width="0.614231"/>
<path d="M17.3518 30.2285C17.3518 30.9131 16.8002 31.4653 16.1233 31.4653C15.4464 31.4653 14.8949 30.9131 14.8949 30.2285C14.8949 29.5438 15.4464 28.9917 16.1233 28.9917C16.8002 28.9917 17.3518 29.5438 17.3518 30.2285Z" fill="#003474" stroke="#003474" stroke-width="0.614231"/>
<path d="M28.0239 22.1257C28.0239 22.9815 27.3344 23.6717 26.4883 23.6717C25.6422 23.6717 24.9527 22.9815 24.9527 22.1257C24.9527 21.2699 25.6422 20.5797 26.4883 20.5797C27.3344 20.5797 28.0239 21.2699 28.0239 22.1257Z" fill="#003474" stroke="#003474" stroke-width="0.767788"/>
<path d="M22.7264 15.9492C22.7264 16.6338 22.1749 17.186 21.498 17.186C20.8211 17.186 20.2695 16.6338 20.2695 15.9492C20.2695 15.2646 20.8211 14.7124 21.498 14.7124C22.1749 14.7124 22.7264 15.2646 22.7264 15.9492Z" fill="#003474" stroke="#003474" stroke-width="0.614231"/>
<path d="M33.7825 9.00142C33.7825 9.85721 33.093 10.5474 32.2469 10.5474C31.4008 10.5474 30.7113 9.85721 30.7113 9.00142C30.7113 8.14563 31.4008 7.45543 32.2469 7.45543C33.093 7.45543 33.7825 8.14563 33.7825 9.00142Z" fill="#003474" stroke="#003474" stroke-width="0.767788"/>
<path d="M40.9998 18.2665C40.9998 19.2935 40.1724 20.1217 39.1571 20.1217C38.1417 20.1217 37.3144 19.2935 37.3144 18.2665C37.3144 17.2396 38.1417 16.4114 39.1571 16.4114C40.1724 16.4114 40.9998 17.2396 40.9998 18.2665Z" fill="#003474" stroke="#003474" stroke-width="0.921346"/>
<path d="M48.7548 9.77315C48.7548 10.6289 48.0653 11.3191 47.2192 11.3191C46.3731 11.3191 45.6836 10.6289 45.6836 9.77315C45.6836 8.91736 46.3731 8.22716 47.2192 8.22716C48.0653 8.22716 48.7548 8.91736 48.7548 9.77315Z" fill="#003474" stroke="#003474" stroke-width="0.767788"/>
<path d="M50.2909 19.0354C50.2909 19.8911 49.6015 20.5813 48.7553 20.5813C47.9092 20.5813 47.2198 19.8911 47.2198 19.0354C47.2198 18.1796 47.9092 17.4894 48.7553 17.4894C49.6015 17.4894 50.2909 18.1796 50.2909 19.0354Z" fill="#003474" stroke="#003474" stroke-width="0.767788"/>
<path d="M61.8073 25.2141C61.8073 26.0699 61.1178 26.7601 60.2717 26.7601C59.4256 26.7601 58.7361 26.0699 58.7361 25.2141C58.7361 24.3583 59.4256 23.6681 60.2717 23.6681C61.1178 23.6681 61.8073 24.3583 61.8073 25.2141Z" fill="#003474" stroke="#003474" stroke-width="0.767788"/>
<path d="M47.9868 29.8452C47.9868 30.701 47.2974 31.3912 46.4513 31.3912C45.6052 31.3912 44.9157 30.701 44.9157 29.8452C44.9157 28.9894 45.6052 28.2992 46.4513 28.2992C47.2974 28.2992 47.9868 28.9894 47.9868 29.8452Z" fill="#003474" stroke="#003474" stroke-width="0.767788"/>
<path d="M34.9338 30.6145C34.9338 31.4702 34.2444 32.1604 33.3982 32.1604C32.5521 32.1604 31.8627 31.4702 31.8627 30.6145C31.8627 29.7587 32.5521 29.0685 33.3982 29.0685C34.2444 29.0685 34.9338 29.7587 34.9338 30.6145Z" fill="#003474" stroke="#003474" stroke-width="0.767788"/>
<path d="M26.412 39.8791C26.412 40.906 25.5846 41.7343 24.5693 41.7343C23.554 41.7343 22.7266 40.906 22.7266 39.8791C22.7266 38.8521 23.554 38.0239 24.5693 38.0239C25.5846 38.0239 26.412 38.8521 26.412 39.8791Z" fill="#003474" stroke="#003474" stroke-width="0.921346"/>
<path d="M28.7149 53.3891C28.7149 54.416 27.8876 55.2443 26.8722 55.2443C25.8569 55.2443 25.0295 54.416 25.0295 53.3891C25.0295 52.3622 25.8569 51.5339 26.8722 51.5339C27.8876 51.5339 28.7149 52.3622 28.7149 53.3891Z" fill="#003474" stroke="#003474" stroke-width="0.921346"/>
<path d="M21.8813 64.5822C21.8813 65.438 21.1919 66.1282 20.3457 66.1282C19.4996 66.1282 18.8102 65.438 18.8102 64.5822C18.8102 63.7264 19.4996 63.0362 20.3457 63.0362C21.1919 63.0362 21.8813 63.7264 21.8813 64.5822Z" fill="#003474" stroke="#003474" stroke-width="0.767788"/>
<path d="M35.7018 56.8605C35.7018 57.7163 35.0123 58.4065 34.1662 58.4065C33.3201 58.4065 32.6306 57.7163 32.6306 56.8605C32.6306 56.0048 33.3201 55.3146 34.1662 55.3146C35.0123 55.3146 35.7018 56.0048 35.7018 56.8605Z" fill="#003474" stroke="#003474" stroke-width="0.767788"/>
<path d="M38.7735 44.5124C38.7735 45.3682 38.084 46.0584 37.2379 46.0584C36.3918 46.0584 35.7023 45.3682 35.7023 44.5124C35.7023 43.6566 36.3918 42.9664 37.2379 42.9664C38.084 42.9664 38.7735 43.6566 38.7735 44.5124Z" fill="#003474" stroke="#003474" stroke-width="0.767788"/>
<path d="M100.798 33.2326C99.0147 33.2326 97.3536 32.9428 95.8152 32.3631C94.2991 31.7611 92.9725 30.925 91.8354 29.8548C90.7207 28.7623 89.8511 27.4803 89.2268 26.0088C88.6026 24.5373 88.2904 22.932 88.2904 21.1929C88.2904 19.4539 88.6026 17.8486 89.2268 16.3771C89.8511 14.9055 90.7318 13.6347 91.8689 12.5645C93.006 11.472 94.3326 10.6359 95.8487 10.0562C97.3648 9.45423 99.0258 9.15324 100.832 9.15324C102.749 9.15324 104.499 9.48768 106.082 10.1565C107.665 10.8031 109.003 11.773 110.096 13.0661L107.286 15.7082C106.439 14.7941 105.492 14.114 104.444 13.6681C103.396 13.1999 102.259 12.9658 101.032 12.9658C99.8062 12.9658 98.6802 13.1665 97.6546 13.5678C96.6513 13.9691 95.7706 14.5377 95.0126 15.2734C94.2768 16.0092 93.6971 16.8787 93.2735 17.882C92.8722 18.8853 92.6715 19.989 92.6715 21.1929C92.6715 22.3969 92.8722 23.5005 93.2735 24.5039C93.6971 25.5072 94.2768 26.3767 95.0126 27.1125C95.7706 27.8482 96.6513 28.4168 97.6546 28.8181C98.6802 29.2194 99.8062 29.4201 101.032 29.4201C102.259 29.4201 103.396 29.1971 104.444 28.7512C105.492 28.283 106.439 27.5807 107.286 26.6442L110.096 29.3197C109.003 30.5906 107.665 31.5604 106.082 32.2293C104.499 32.8982 102.738 33.2326 100.798 33.2326ZM113.86 32.8982V8.08304H118.041V32.8982H113.86ZM131.554 33.1323C129.726 33.1323 128.098 32.7421 126.671 31.9618C125.244 31.1591 124.118 30.0666 123.293 28.6843C122.468 27.302 122.056 25.7301 122.056 23.9688C122.056 22.1851 122.468 20.6132 123.293 19.2532C124.118 17.8709 125.244 16.7895 126.671 16.0092C128.098 15.2288 129.726 14.8387 131.554 14.8387C133.404 14.8387 135.043 15.2288 136.47 16.0092C137.919 16.7895 139.045 17.8597 139.848 19.2198C140.673 20.5798 141.085 22.1628 141.085 23.9688C141.085 25.7301 140.673 27.302 139.848 28.6843C139.045 30.0666 137.919 31.1591 136.47 31.9618C135.043 32.7421 133.404 33.1323 131.554 33.1323ZM131.554 29.5538C132.58 29.5538 133.494 29.3309 134.296 28.885C135.099 28.439 135.723 27.7925 136.169 26.9452C136.637 26.098 136.871 25.1058 136.871 23.9688C136.871 22.8094 136.637 21.8172 136.169 20.9923C135.723 20.145 135.099 19.4985 134.296 19.0525C133.494 18.6066 132.591 18.3837 131.587 18.3837C130.562 18.3837 129.648 18.6066 128.845 19.0525C128.065 19.4985 127.44 20.145 126.972 20.9923C126.504 21.8172 126.27 22.8094 126.27 23.9688C126.27 25.1058 126.504 26.098 126.972 26.9452C127.44 27.7925 128.065 28.439 128.845 28.885C129.648 29.3309 130.551 29.5538 131.554 29.5538ZM152.641 33.1323C151.125 33.1323 149.787 32.8536 148.628 32.2962C147.469 31.7165 146.566 30.847 145.919 29.6876C145.272 28.5059 144.949 27.0233 144.949 25.2396V15.0393H149.13V24.6711C149.13 26.2764 149.486 27.4803 150.2 28.283C150.936 29.0633 151.972 29.4535 153.31 29.4535C154.291 29.4535 155.138 29.2528 155.852 28.8515C156.587 28.4502 157.156 27.8482 157.557 27.0456C157.981 26.2429 158.193 25.2508 158.193 24.0691V15.0393H162.373V32.8982H158.393V28.0823L159.096 29.5538C158.494 30.7132 157.613 31.605 156.454 32.2293C155.294 32.8313 154.023 33.1323 152.641 33.1323ZM175.405 33.1323C173.688 33.1323 172.139 32.7533 170.756 31.9952C169.396 31.2149 168.326 30.1447 167.546 28.7846C166.765 27.4246 166.375 25.8193 166.375 23.9688C166.375 22.1182 166.765 20.5129 167.546 19.1529C168.326 17.7928 169.396 16.7338 170.756 15.9757C172.139 15.2177 173.688 14.8387 175.405 14.8387C176.899 14.8387 178.237 15.1731 179.418 15.842C180.6 16.4885 181.536 17.4807 182.227 18.8184C182.919 20.1562 183.264 21.873 183.264 23.9688C183.264 26.0423 182.93 27.759 182.261 29.1191C181.592 30.4568 180.667 31.4601 179.485 32.129C178.303 32.7979 176.943 33.1323 175.405 33.1323ZM175.907 29.5538C176.91 29.5538 177.802 29.3309 178.582 28.885C179.385 28.439 180.02 27.7925 180.488 26.9452C180.979 26.098 181.224 25.1058 181.224 23.9688C181.224 22.8094 180.979 21.8172 180.488 20.9923C180.02 20.145 179.385 19.4985 178.582 19.0525C177.802 18.6066 176.91 18.3837 175.907 18.3837C174.903 18.3837 174 18.6066 173.198 19.0525C172.417 19.4985 171.782 20.145 171.291 20.9923C170.823 21.8172 170.589 22.8094 170.589 23.9688C170.589 25.1058 170.823 26.098 171.291 26.9452C171.782 27.7925 172.417 28.439 173.198 28.885C174 29.3309 174.903 29.5538 175.907 29.5538ZM181.324 32.8982V28.6843L181.492 23.9353L181.157 19.1863V8.08304H185.304V32.8982H181.324ZM187.897 32.8982L198.432 9.48767H202.712L213.281 32.8982H208.732L199.669 11.7953H201.408L192.378 32.8982H187.897ZM192.746 27.4803L193.917 24.0691H206.558L207.729 27.4803H192.746ZM216.258 32.8982V9.48767H220.606V32.8982H216.258ZM240.929 32.8982V13.1665H233.17V9.48767H253.036V13.1665H245.277V32.8982H240.929ZM262.463 33.1323C260.479 33.1323 258.739 32.7421 257.246 31.9618C255.774 31.1591 254.626 30.0666 253.801 28.6843C252.998 27.302 252.597 25.7301 252.597 23.9688C252.597 22.1851 252.987 20.6132 253.768 19.2532C254.57 17.8709 255.663 16.7895 257.045 16.0092C258.45 15.2288 260.044 14.8387 261.827 14.8387C263.566 14.8387 265.116 15.2177 266.476 15.9757C267.836 16.7338 268.906 17.804 269.687 19.1863C270.467 20.5687 270.857 22.1962 270.857 24.0691C270.857 24.2474 270.846 24.4481 270.824 24.6711C270.824 24.894 270.813 25.1058 270.79 25.3065H255.908V22.5307H268.583L266.944 23.4002C266.967 22.3746 266.755 21.4716 266.309 20.6913C265.863 19.9109 265.25 19.2978 264.469 18.8519C263.711 18.406 262.831 18.183 261.827 18.183C260.802 18.183 259.899 18.406 259.118 18.8519C258.36 19.2978 257.758 19.9221 257.313 20.7247C256.889 21.5051 256.677 22.4303 256.677 23.5005V24.1694C256.677 25.2396 256.922 26.1872 257.413 27.0121C257.903 27.8371 258.595 28.4725 259.486 28.9184C260.378 29.3643 261.404 29.5873 262.563 29.5873C263.566 29.5873 264.469 29.4312 265.272 29.1191C266.075 28.8069 266.788 28.3164 267.412 27.6475L269.653 30.2227C268.851 31.1591 267.836 31.8837 266.61 32.3965C265.406 32.887 264.024 33.1323 262.463 33.1323ZM283.066 33.1323C281.194 33.1323 279.521 32.7421 278.05 31.9618C276.601 31.1591 275.464 30.0666 274.639 28.6843C273.814 27.302 273.401 25.7301 273.401 23.9688C273.401 22.1851 273.814 20.6132 274.639 19.2532C275.464 17.8709 276.601 16.7895 278.05 16.0092C279.521 15.2288 281.194 14.8387 283.066 14.8387C284.806 14.8387 286.333 15.1954 287.648 15.9088C288.986 16.6 290 17.6256 290.692 18.9857L287.481 20.8585C286.946 20.0113 286.288 19.387 285.508 18.9857C284.75 18.5843 283.925 18.3837 283.033 18.3837C282.007 18.3837 281.082 18.6066 280.257 19.0525C279.432 19.4985 278.786 20.145 278.317 20.9923C277.849 21.8172 277.615 22.8094 277.615 23.9688C277.615 25.1281 277.849 26.1314 278.317 26.9787C278.786 27.8036 279.432 28.439 280.257 28.885C281.082 29.3309 282.007 29.5538 283.033 29.5538C283.925 29.5538 284.75 29.3532 285.508 28.9518C286.288 28.5505 286.946 27.9262 287.481 27.079L290.692 28.9518C290 30.2896 288.986 31.3263 287.648 32.0621C286.333 32.7756 284.806 33.1323 283.066 33.1323ZM304.275 14.8387C305.702 14.8387 306.973 15.1173 308.088 15.6747C309.225 16.2321 310.117 17.0905 310.764 18.2499C311.41 19.387 311.733 20.8585 311.733 22.6645V32.8982H307.553V23.1995C307.553 21.6166 307.174 20.4349 306.416 19.6545C305.68 18.8742 304.643 18.484 303.306 18.484C302.325 18.484 301.455 18.6847 300.697 19.086C299.939 19.4873 299.348 20.0893 298.924 20.8919C298.523 21.6723 298.322 22.6645 298.322 23.8684V32.8982H294.142V8.08304H298.322V19.8552L297.42 18.3837C298.044 17.2466 298.947 16.3771 300.128 15.7751C301.332 15.1508 302.715 14.8387 304.275 14.8387ZM327.17 14.8387C328.597 14.8387 329.868 15.1173 330.982 15.6747C332.12 16.2321 333.011 17.0905 333.658 18.2499C334.305 19.387 334.628 20.8585 334.628 22.6645V32.8982H330.447V23.1995C330.447 21.6166 330.068 20.4349 329.31 19.6545C328.575 18.8742 327.538 18.484 326.2 18.484C325.219 18.484 324.35 18.6847 323.591 19.086C322.833 19.4873 322.243 20.0893 321.819 20.8919C321.418 21.6723 321.217 22.6645 321.217 23.8684V32.8982H317.037V15.0393H321.016V19.8552L320.314 18.3837C320.938 17.2466 321.841 16.3771 323.023 15.7751C324.227 15.1508 325.609 14.8387 327.17 14.8387ZM347.99 33.1323C346.162 33.1323 344.534 32.7421 343.107 31.9618C341.68 31.1591 340.555 30.0666 339.73 28.6843C338.905 27.302 338.492 25.7301 338.492 23.9688C338.492 22.1851 338.905 20.6132 339.73 19.2532C340.555 17.8709 341.68 16.7895 343.107 16.0092C344.534 15.2288 346.162 14.8387 347.99 14.8387C349.841 14.8387 351.479 15.2288 352.906 16.0092C354.356 16.7895 355.482 17.8597 356.284 19.2198C357.109 20.5798 357.522 22.1628 357.522 23.9688C357.522 25.7301 357.109 27.302 356.284 28.6843C355.482 30.0666 354.356 31.1591 352.906 31.9618C351.479 32.7421 349.841 33.1323 347.99 33.1323ZM347.99 29.5538C349.016 29.5538 349.93 29.3309 350.733 28.885C351.535 28.439 352.159 27.7925 352.605 26.9452C353.074 26.098 353.308 25.1058 353.308 23.9688C353.308 22.8094 353.074 21.8172 352.605 20.9923C352.159 20.145 351.535 19.4985 350.733 19.0525C349.93 18.6066 349.027 18.3837 348.024 18.3837C346.998 18.3837 346.084 18.6066 345.281 19.0525C344.501 19.4985 343.877 20.145 343.408 20.9923C342.94 21.8172 342.706 22.8094 342.706 23.9688C342.706 25.1058 342.94 26.098 343.408 26.9452C343.877 27.7925 344.501 28.439 345.281 28.885C346.084 29.3309 346.987 29.5538 347.99 29.5538ZM361.519 32.8982V8.08304H365.7V32.8982H361.519ZM379.213 33.1323C377.385 33.1323 375.757 32.7421 374.33 31.9618C372.903 31.1591 371.777 30.0666 370.952 28.6843C370.127 27.302 369.715 25.7301 369.715 23.9688C369.715 22.1851 370.127 20.6132 370.952 19.2532C371.777 17.8709 372.903 16.7895 374.33 16.0092C375.757 15.2288 377.385 14.8387 379.213 14.8387C381.063 14.8387 382.702 15.2288 384.129 16.0092C385.578 16.7895 386.704 17.8597 387.507 19.2198C388.332 20.5798 388.744 22.1628 388.744 23.9688C388.744 25.7301 388.332 27.302 387.507 28.6843C386.704 30.0666 385.578 31.1591 384.129 31.9618C382.702 32.7421 381.063 33.1323 379.213 33.1323ZM379.213 29.5538C380.238 29.5538 381.153 29.3309 381.955 28.885C382.758 28.439 383.382 27.7925 383.828 26.9452C384.296 26.098 384.53 25.1058 384.53 23.9688C384.53 22.8094 384.296 21.8172 383.828 20.9923C383.382 20.145 382.758 19.4985 381.955 19.0525C381.153 18.6066 380.25 18.3837 379.246 18.3837C378.221 18.3837 377.307 18.6066 376.504 19.0525C375.724 19.4985 375.099 20.145 374.631 20.9923C374.163 21.8172 373.929 22.8094 373.929 23.9688C373.929 25.1058 374.163 26.098 374.631 26.9452C375.099 27.7925 375.724 28.439 376.504 28.885C377.307 29.3309 378.21 29.5538 379.213 29.5538ZM400.835 39.6204C399.185 39.6204 397.569 39.3974 395.986 38.9515C394.425 38.5279 393.143 37.9036 392.14 37.0786L394.013 33.9349C394.793 34.5815 395.774 35.0943 396.956 35.4734C398.16 35.8747 399.375 36.0753 400.601 36.0753C402.563 36.0753 404.001 35.6183 404.915 34.7041C405.829 33.8123 406.287 32.4634 406.287 30.6575V27.4803L406.621 23.4337L406.487 19.387V15.0393H410.467V30.1893C410.467 33.4221 409.642 35.7966 407.992 37.3127C406.342 38.8512 403.957 39.6204 400.835 39.6204ZM400.3 32.0955C398.606 32.0955 397.067 31.7388 395.685 31.0254C394.325 30.2896 393.244 29.2751 392.441 27.982C391.661 26.6888 391.27 25.1727 391.27 23.4337C391.27 21.7169 391.661 20.2119 392.441 18.9188C393.244 17.6256 394.325 16.6223 395.685 15.9088C397.067 15.1954 398.606 14.8387 400.3 14.8387C401.816 14.8387 403.176 15.1396 404.38 15.7416C405.584 16.3436 406.543 17.28 407.256 18.5509C407.992 19.8217 408.36 21.4493 408.36 23.4337C408.36 25.418 407.992 27.0567 407.256 28.3499C406.543 29.6207 405.584 30.5683 404.38 31.1926C403.176 31.7946 401.816 32.0955 400.3 32.0955ZM400.936 28.5505C401.983 28.5505 402.92 28.3387 403.745 27.9151C404.57 27.4692 405.205 26.8672 405.651 26.1091C406.119 25.3288 406.353 24.437 406.353 23.4337C406.353 22.4303 406.119 21.5497 405.651 20.7916C405.205 20.0113 404.57 19.4204 403.745 19.0191C402.92 18.5955 401.983 18.3837 400.936 18.3837C399.888 18.3837 398.94 18.5955 398.093 19.0191C397.268 19.4204 396.621 20.0113 396.153 20.7916C395.707 21.5497 395.484 22.4303 395.484 23.4337C395.484 24.437 395.707 25.3288 396.153 26.1091C396.621 26.8672 397.268 27.4692 398.093 27.9151C398.94 28.3387 399.888 28.5505 400.936 28.5505ZM415.963 32.8982V15.0393H420.143V32.8982H415.963ZM418.07 12.0963C417.29 12.0963 416.643 11.851 416.13 11.3605C415.64 10.87 415.394 10.2792 415.394 9.58801C415.394 8.87454 415.64 8.28371 416.13 7.81549C416.643 7.32499 417.29 7.07974 418.07 7.07974C418.85 7.07974 419.486 7.31384 419.976 7.78205C420.489 8.22797 420.745 8.79651 420.745 9.48767C420.745 10.2234 420.5 10.8477 420.01 11.3605C419.519 11.851 418.873 12.0963 418.07 12.0963ZM434.025 33.1323C432.04 33.1323 430.301 32.7421 428.807 31.9618C427.336 31.1591 426.188 30.0666 425.363 28.6843C424.56 27.302 424.159 25.7301 424.159 23.9688C424.159 22.1851 424.549 20.6132 425.329 19.2532C426.132 17.8709 427.224 16.7895 428.607 16.0092C430.011 15.2288 431.605 14.8387 433.389 14.8387C435.128 14.8387 436.678 15.2177 438.038 15.9757C439.398 16.7338 440.468 17.804 441.248 19.1863C442.029 20.5687 442.419 22.1962 442.419 24.0691C442.419 24.2474 442.408 24.4481 442.385 24.6711C442.385 24.894 442.374 25.1058 442.352 25.3065H427.47V22.5307H440.145L438.506 23.4002C438.528 22.3746 438.316 21.4716 437.871 20.6913C437.425 19.9109 436.812 19.2978 436.031 18.8519C435.273 18.406 434.392 18.183 433.389 18.183C432.364 18.183 431.461 18.406 430.68 18.8519C429.922 19.2978 429.32 19.9221 428.874 20.7247C428.451 21.5051 428.239 22.4303 428.239 23.5005V24.1694C428.239 25.2396 428.484 26.1872 428.975 27.0121C429.465 27.8371 430.156 28.4725 431.048 28.9184C431.94 29.3643 432.966 29.5873 434.125 29.5873C435.128 29.5873 436.031 29.4312 436.834 29.1191C437.636 28.8069 438.35 28.3164 438.974 27.6475L441.215 30.2227C440.412 31.1591 439.398 31.8837 438.172 32.3965C436.968 32.887 435.585 33.1323 434.025 33.1323ZM451.953 33.1323C450.459 33.1323 449.021 32.9428 447.638 32.5638C446.278 32.1624 445.197 31.6831 444.394 31.1257L446 27.9485C446.802 28.4613 447.761 28.885 448.876 29.2194C449.991 29.5538 451.105 29.7211 452.22 29.7211C453.536 29.7211 454.483 29.5427 455.063 29.186C455.665 28.8292 455.966 28.3499 455.966 27.7479C455.966 27.2574 455.765 26.8895 455.364 26.6442C454.963 26.3767 454.439 26.176 453.792 26.0423C453.146 25.9085 452.421 25.7859 451.618 25.6744C450.838 25.5629 450.046 25.418 449.244 25.2396C448.463 25.0389 447.75 24.7603 447.103 24.4035C446.457 24.0245 445.933 23.5228 445.532 22.8986C445.13 22.2743 444.93 21.4493 444.93 20.4237C444.93 19.2866 445.253 18.3056 445.899 17.4807C446.546 16.6335 447.449 15.9869 448.608 15.541C449.79 15.0728 451.184 14.8387 452.789 14.8387C453.993 14.8387 455.208 14.9724 456.434 15.24C457.66 15.5075 458.675 15.8865 459.478 16.3771L457.872 19.5542C457.025 19.0414 456.167 18.6958 455.297 18.5174C454.45 18.3168 453.603 18.2165 452.755 18.2165C451.484 18.2165 450.537 18.406 449.913 18.785C449.311 19.164 449.01 19.6434 449.01 20.2231C449.01 20.7582 449.21 21.1595 449.612 21.427C450.013 21.6946 450.537 21.9064 451.184 22.0625C451.83 22.2185 452.544 22.3523 453.324 22.4638C454.127 22.553 454.918 22.6979 455.698 22.8986C456.479 23.0992 457.192 23.3779 457.839 23.7346C458.508 24.0691 459.043 24.5484 459.444 25.1727C459.845 25.797 460.046 26.6108 460.046 27.6141C460.046 28.7289 459.712 29.6988 459.043 30.5237C458.396 31.3486 457.471 31.9952 456.267 32.4634C455.063 32.9093 453.625 33.1323 451.953 33.1323Z" fill="#003474"/>
<path d="M95.2573 60.6697V55.4502L95.5986 56.3737L89.6363 46.6173H91.2223L96.4618 55.1893H95.6186L100.858 46.6173H102.344L96.3815 56.3737L96.7228 55.4502V60.6697H95.2573ZM107.447 60.7701C106.43 60.7701 105.513 60.5425 104.696 60.0875C103.893 59.6191 103.258 58.9834 102.789 58.1804C102.321 57.364 102.087 56.4339 102.087 55.39C102.087 54.3327 102.321 53.4026 102.789 52.5996C103.258 51.7966 103.893 51.1676 104.696 50.7126C105.499 50.2575 106.416 50.03 107.447 50.03C108.491 50.03 109.414 50.2575 110.217 50.7126C111.033 51.1676 111.669 51.7966 112.124 52.5996C112.592 53.4026 112.827 54.3327 112.827 55.39C112.827 56.4339 112.592 57.364 112.124 58.1804C111.669 58.9834 111.033 59.6191 110.217 60.0875C109.401 60.5425 108.477 60.7701 107.447 60.7701ZM107.447 59.5053C108.209 59.5053 108.885 59.338 109.474 59.0035C110.063 58.6555 110.525 58.1737 110.859 57.5581C111.207 56.9291 111.381 56.2064 111.381 55.39C111.381 54.5602 111.207 53.8376 110.859 53.2219C110.525 52.6063 110.063 52.1312 109.474 51.7966C108.885 51.4486 108.216 51.2747 107.467 51.2747C106.717 51.2747 106.048 51.4486 105.459 51.7966C104.87 52.1312 104.402 52.6063 104.054 53.2219C103.706 53.8376 103.532 54.5602 103.532 55.39C103.532 56.2064 103.706 56.9291 104.054 57.5581C104.402 58.1737 104.87 58.6555 105.459 59.0035C106.048 59.338 106.711 59.5053 107.447 59.5053ZM120.093 60.7701C119.196 60.7701 118.413 60.6028 117.744 60.2682C117.075 59.9336 116.553 59.4317 116.178 58.7626C115.817 58.0934 115.636 57.257 115.636 56.2532V50.1304H117.062V56.0926C117.062 57.2168 117.336 58.0666 117.885 58.6421C118.447 59.2042 119.23 59.4853 120.233 59.4853C120.969 59.4853 121.605 59.338 122.14 59.0436C122.689 58.7358 123.104 58.2942 123.385 57.7187C123.68 57.1432 123.827 56.454 123.827 55.651V50.1304H125.252V60.6697H123.887V57.7789L124.108 58.3008C123.773 59.0771 123.251 59.686 122.542 60.1277C121.846 60.5559 121.03 60.7701 120.093 60.7701ZM129.224 60.6697V50.1304H130.589V53.0011L130.449 52.4992C130.743 51.6962 131.239 51.0873 131.934 50.6724C132.63 50.2442 133.494 50.03 134.524 50.03V51.4152C134.471 51.4152 134.417 51.4152 134.363 51.4152C134.31 51.4018 134.256 51.3951 134.203 51.3951C133.092 51.3951 132.222 51.7364 131.593 52.4189C130.964 53.0881 130.65 54.045 130.65 55.2896V60.6697H129.224ZM142.837 60.6697V46.6173H144.322V60.6697H142.837ZM151.625 60.6697V47.9021H146.686V46.6173H158.049V47.9021H153.11V60.6697H151.625ZM165.676 60.6697V46.6173H170.935C172.127 46.6173 173.15 46.8114 174.007 47.1995C174.863 47.5742 175.519 48.1229 175.974 48.8456C176.443 49.5549 176.677 50.4181 176.677 51.4353C176.677 52.4256 176.443 53.2821 175.974 54.0048C175.519 54.7142 174.863 55.2629 174.007 55.651C173.15 56.0391 172.127 56.2331 170.935 56.2331H166.499L167.161 55.5305V60.6697H165.676ZM167.161 55.651L166.499 54.9283H170.895C172.3 54.9283 173.364 54.6272 174.087 54.0249C174.823 53.4093 175.191 52.5461 175.191 51.4353C175.191 50.3111 174.823 49.4412 174.087 48.8255C173.364 48.2099 172.3 47.9021 170.895 47.9021H166.499L167.161 47.1995V55.651ZM186.094 60.6697V58.341L186.034 57.9596V54.0651C186.034 53.1684 185.78 52.4792 185.271 51.9974C184.776 51.5156 184.033 51.2747 183.043 51.2747C182.36 51.2747 181.711 51.3884 181.096 51.6159C180.48 51.8435 179.958 52.1446 179.53 52.5193L178.888 51.4553C179.423 51.0003 180.065 50.6523 180.815 50.4114C181.564 50.1572 182.354 50.03 183.184 50.03C184.549 50.03 185.599 50.3713 186.335 51.0538C187.085 51.723 187.459 52.7468 187.459 54.1253V60.6697H186.094ZM182.461 60.7701C181.671 60.7701 180.982 60.6429 180.393 60.3886C179.818 60.121 179.376 59.7596 179.068 59.3046C178.76 58.8362 178.606 58.3009 178.606 57.6986C178.606 57.1499 178.734 56.6547 178.988 56.2131C179.256 55.758 179.684 55.3967 180.273 55.129C180.875 54.848 181.678 54.7075 182.682 54.7075H186.315V55.7714H182.722C181.705 55.7714 180.995 55.9521 180.594 56.3134C180.206 56.6748 180.012 57.1231 180.012 57.6585C180.012 58.2607 180.246 58.7425 180.714 59.1038C181.183 59.4652 181.839 59.6459 182.682 59.6459C183.485 59.6459 184.174 59.4652 184.749 59.1038C185.338 58.7291 185.767 58.1938 186.034 57.4979L186.355 58.4815C186.088 59.1775 185.619 59.7329 184.95 60.1477C184.294 60.5626 183.465 60.7701 182.461 60.7701ZM191.331 60.6697V50.1304H192.696V53.0011L192.555 52.4992C192.85 51.6962 193.345 51.0873 194.041 50.6724C194.737 50.2442 195.6 50.03 196.631 50.03V51.4152C196.577 51.4152 196.523 51.4152 196.47 51.4152C196.416 51.4018 196.363 51.3951 196.309 51.3951C195.199 51.3951 194.329 51.7364 193.7 52.4189C193.071 53.0881 192.756 54.045 192.756 55.2896V60.6697H191.331ZM203.015 60.7701C202.024 60.7701 201.261 60.5024 200.726 59.9671C200.191 59.4317 199.923 58.6756 199.923 57.6986V47.8017H201.348V57.6183C201.348 58.2339 201.502 58.709 201.81 59.0436C202.131 59.3782 202.586 59.5455 203.175 59.5455C203.804 59.5455 204.326 59.3648 204.741 59.0035L205.243 60.0273C204.962 60.2816 204.621 60.4689 204.219 60.5894C203.831 60.7098 203.43 60.7701 203.015 60.7701ZM198.036 51.3148V50.1304H204.56V51.3148H198.036ZM213.218 50.03C214.074 50.03 214.824 50.1973 215.466 50.5319C216.122 50.8531 216.63 51.3483 216.992 52.0174C217.366 52.6866 217.554 53.5297 217.554 54.5469V60.6697H216.129V54.6874C216.129 53.5766 215.847 52.7401 215.285 52.178C214.737 51.6026 213.96 51.3148 212.957 51.3148C212.207 51.3148 211.551 51.4687 210.989 51.7765C210.441 52.071 210.012 52.5059 209.705 53.0814C209.41 53.6435 209.263 54.326 209.263 55.129V60.6697H207.838V50.1304H209.203V53.0212L208.982 52.4792C209.316 51.7163 209.852 51.1208 210.588 50.6925C211.324 50.2509 212.201 50.03 213.218 50.03ZM225.88 60.7701C224.783 60.7701 223.819 60.5425 222.99 60.0875C222.16 59.6191 221.511 58.9834 221.042 58.1804C220.574 57.364 220.34 56.4339 220.34 55.39C220.34 54.3461 220.561 53.4227 221.002 52.6197C221.457 51.8167 222.073 51.1877 222.849 50.7326C223.639 50.2642 224.522 50.03 225.499 50.03C226.489 50.03 227.366 50.2575 228.129 50.7126C228.905 51.1542 229.514 51.7832 229.956 52.5996C230.397 53.4026 230.618 54.3327 230.618 55.39C230.618 55.4569 230.611 55.5305 230.598 55.6108C230.598 55.6777 230.598 55.7513 230.598 55.8316H221.424V54.7677H229.835L229.273 55.1893C229.273 54.4264 229.106 53.7506 228.771 53.1617C228.45 52.5595 228.008 52.091 227.446 51.7565C226.884 51.4219 226.235 51.2546 225.499 51.2546C224.776 51.2546 224.127 51.4219 223.552 51.7565C222.976 52.091 222.528 52.5595 222.207 53.1617C221.886 53.7639 221.725 54.4532 221.725 55.2294V55.4502C221.725 56.2532 221.899 56.9625 222.247 57.5782C222.608 58.1804 223.103 58.6555 223.732 59.0035C224.375 59.338 225.104 59.5053 225.921 59.5053C226.563 59.5053 227.159 59.3916 227.707 59.1641C228.269 58.9366 228.751 58.5886 229.153 58.1202L229.956 59.0436C229.487 59.6057 228.898 60.034 228.189 60.3284C227.493 60.6228 226.724 60.7701 225.88 60.7701ZM233.519 60.6697V50.1304H234.884V53.0011L234.744 52.4992C235.038 51.6962 235.533 51.0873 236.229 50.6724C236.925 50.2442 237.788 50.03 238.819 50.03V51.4152C238.765 51.4152 238.712 51.4152 238.658 51.4152C238.605 51.4018 238.551 51.3951 238.498 51.3951C237.387 51.3951 236.517 51.7364 235.888 52.4189C235.259 53.0881 234.945 54.045 234.945 55.2896V60.6697H233.519ZM240.517 63.6006L241.401 59.8868L241.561 60.75C241.253 60.75 240.992 60.6496 240.778 60.4489C240.578 60.2481 240.477 59.9871 240.477 59.6659C240.477 59.3447 240.578 59.0838 240.778 58.883C240.992 58.6823 241.247 58.5819 241.541 58.5819C241.849 58.5819 242.097 58.689 242.284 58.9031C242.485 59.1172 242.585 59.3715 242.585 59.6659C242.585 59.773 242.578 59.8801 242.565 59.9871C242.552 60.0942 242.525 60.2146 242.485 60.3485C242.445 60.4823 242.391 60.6429 242.324 60.8303L241.481 63.6006H240.517ZM252.515 52.9007H259.942V54.1654H252.515V52.9007ZM252.675 59.3849H261.127V60.6697H251.19V46.6173H260.826V47.9021H252.675V59.3849ZM264.318 60.6697V45.7742H265.743V60.6697H264.318ZM274.185 60.7701C273.088 60.7701 272.124 60.5425 271.295 60.0875C270.465 59.6191 269.816 58.9834 269.347 58.1804C268.879 57.364 268.645 56.4339 268.645 55.39C268.645 54.3461 268.866 53.4227 269.307 52.6197C269.762 51.8167 270.378 51.1877 271.154 50.7326C271.944 50.2642 272.827 50.03 273.804 50.03C274.794 50.03 275.671 50.2575 276.434 50.7126C277.21 51.1542 277.819 51.7832 278.261 52.5996C278.702 53.4026 278.923 54.3327 278.923 55.39C278.923 55.4569 278.916 55.5305 278.903 55.6108C278.903 55.6777 278.903 55.7513 278.903 55.8316H269.729V54.7677H278.14L277.578 55.1893C277.578 54.4264 277.411 53.7506 277.076 53.1617C276.755 52.5595 276.313 52.091 275.751 51.7565C275.189 51.4219 274.54 51.2546 273.804 51.2546C273.081 51.2546 272.432 51.4219 271.857 51.7565C271.281 52.091 270.833 52.5595 270.512 53.1617C270.191 53.7639 270.03 54.4532 270.03 55.2294V55.4502C270.03 56.2532 270.204 56.9625 270.552 57.5782C270.913 58.1804 271.408 58.6555 272.037 59.0035C272.68 59.338 273.409 59.5053 274.226 59.5053C274.868 59.5053 275.464 59.3916 276.012 59.1641C276.574 58.9366 277.056 58.5886 277.458 58.1202L278.261 59.0436C277.792 59.6057 277.203 60.034 276.494 60.3284C275.798 60.6228 275.029 60.7701 274.185 60.7701ZM284.338 60.6697L279.661 50.1304H281.146L285.442 59.9068H284.74L289.096 50.1304H290.501L285.804 60.6697H284.338ZM298.8 60.6697V58.341L298.739 57.9596V54.0651C298.739 53.1684 298.485 52.4792 297.976 51.9974C297.481 51.5156 296.739 51.2747 295.748 51.2747C295.066 51.2747 294.417 51.3884 293.801 51.6159C293.185 51.8435 292.663 52.1446 292.235 52.5193L291.593 51.4553C292.128 51.0003 292.77 50.6523 293.52 50.4114C294.269 50.1572 295.059 50.03 295.889 50.03C297.254 50.03 298.304 50.3713 299.04 51.0538C299.79 51.723 300.165 52.7468 300.165 54.1253V60.6697H298.8ZM295.166 60.7701C294.376 60.7701 293.687 60.6429 293.098 60.3886C292.523 60.121 292.081 59.7596 291.773 59.3046C291.466 58.8362 291.312 58.3009 291.312 57.6986C291.312 57.1499 291.439 56.6547 291.693 56.2131C291.961 55.758 292.389 55.3967 292.978 55.129C293.58 54.848 294.383 54.7075 295.387 54.7075H299.02V55.7714H295.427C294.41 55.7714 293.701 55.9521 293.299 56.3134C292.911 56.6748 292.717 57.1231 292.717 57.6585C292.717 58.2607 292.951 58.7425 293.42 59.1038C293.888 59.4652 294.544 59.6459 295.387 59.6459C296.19 59.6459 296.879 59.4652 297.455 59.1038C298.043 58.7291 298.472 58.1938 298.739 57.4979L299.061 58.4815C298.793 59.1775 298.324 59.7329 297.655 60.1477C297 60.5626 296.17 60.7701 295.166 60.7701ZM307.368 60.7701C306.378 60.7701 305.615 60.5024 305.08 59.9671C304.545 59.4317 304.277 58.6756 304.277 57.6986V47.8017H305.702V57.6183C305.702 58.2339 305.856 58.709 306.164 59.0436C306.485 59.3782 306.94 59.5455 307.529 59.5455C308.158 59.5455 308.68 59.3648 309.095 59.0035L309.597 60.0273C309.316 60.2816 308.974 60.4689 308.573 60.5894C308.185 60.7098 307.783 60.7701 307.368 60.7701ZM302.39 51.3148V50.1304H308.914V51.3148H302.39ZM316.296 60.7701C315.198 60.7701 314.235 60.5425 313.405 60.0875C312.575 59.6191 311.926 58.9834 311.458 58.1804C310.989 57.364 310.755 56.4339 310.755 55.39C310.755 54.3461 310.976 53.4227 311.417 52.6197C311.872 51.8167 312.488 51.1877 313.264 50.7326C314.054 50.2642 314.937 50.03 315.914 50.03C316.904 50.03 317.781 50.2575 318.544 50.7126C319.32 51.1542 319.929 51.7832 320.371 52.5996C320.812 53.4026 321.033 54.3327 321.033 55.39C321.033 55.4569 321.027 55.5305 321.013 55.6108C321.013 55.6777 321.013 55.7513 321.013 55.8316H311.839V54.7677H320.25L319.688 55.1893C319.688 54.4264 319.521 53.7506 319.186 53.1617C318.865 52.5595 318.423 52.091 317.861 51.7565C317.299 51.4219 316.65 51.2546 315.914 51.2546C315.191 51.2546 314.542 51.4219 313.967 51.7565C313.391 52.091 312.943 52.5595 312.622 53.1617C312.301 53.7639 312.14 54.4532 312.14 55.2294V55.4502C312.14 56.2532 312.314 56.9625 312.662 57.5782C313.023 58.1804 313.519 58.6555 314.148 59.0035C314.79 59.338 315.519 59.5053 316.336 59.5053C316.978 59.5053 317.574 59.3916 318.122 59.1641C318.684 58.9366 319.166 58.5886 319.568 58.1202L320.371 59.0436C319.902 59.6057 319.313 60.034 318.604 60.3284C317.908 60.6228 317.139 60.7701 316.296 60.7701ZM328.13 60.7701C327.126 60.7701 326.223 60.5425 325.42 60.0875C324.63 59.6325 324.008 59.0035 323.553 58.2005C323.098 57.3841 322.87 56.4473 322.87 55.39C322.87 54.3193 323.098 53.3825 323.553 52.5795C324.008 51.7765 324.63 51.1542 325.42 50.7126C326.223 50.2575 327.126 50.03 328.13 50.03C329.053 50.03 329.876 50.2375 330.599 50.6523C331.335 51.0672 331.917 51.6762 332.346 52.4792C332.787 53.2688 333.008 54.239 333.008 55.39C333.008 56.5276 332.794 57.4979 332.366 58.3008C331.937 59.1038 331.355 59.7195 330.619 60.1477C329.897 60.5626 329.067 60.7701 328.13 60.7701ZM328.23 59.5053C328.98 59.5053 329.649 59.338 330.238 59.0035C330.84 58.6555 331.308 58.1737 331.643 57.5581C331.991 56.9291 332.165 56.2064 332.165 55.39C332.165 54.5602 331.991 53.8376 331.643 53.2219C331.308 52.6063 330.84 52.1312 330.238 51.7966C329.649 51.4486 328.98 51.2747 328.23 51.2747C327.494 51.2747 326.832 51.4486 326.243 51.7966C325.654 52.1312 325.186 52.6063 324.838 53.2219C324.49 53.8376 324.316 54.5602 324.316 55.39C324.316 56.2064 324.49 56.9291 324.838 57.5581C325.186 58.1737 325.654 58.6555 326.243 59.0035C326.832 59.338 327.494 59.5053 328.23 59.5053ZM332.205 60.6697V57.4979L332.346 55.3699L332.145 53.242V45.7742H333.57V60.6697H332.205Z" fill="#003474"/>
</svg>
