<svg width="446" height="57" viewBox="0 0 446 57" fill="none" xmlns="http://www.w3.org/2000/svg">
<path d="M98.1245 26.5896C96.4017 26.5896 94.7974 26.3097 93.3115 25.7498C91.8472 25.1683 90.5659 24.3608 89.4676 23.3272C88.3909 22.272 87.5511 21.0337 86.9481 19.6125C86.3451 18.1912 86.0436 16.6407 86.0436 14.961C86.0436 13.2813 86.3451 11.7309 86.9481 10.3096C87.5511 8.88832 88.4017 7.66086 89.4999 6.6272C90.5982 5.57202 91.8795 4.76448 93.3438 4.20458C94.8082 3.62315 96.4125 3.33244 98.1568 3.33244C100.009 3.33244 101.699 3.65545 103.228 4.30149C104.757 4.92598 106.049 5.86273 107.104 7.11173L104.391 9.66356C103.573 8.78065 102.657 8.12385 101.645 7.69316C100.633 7.24094 99.535 7.01482 98.3506 7.01482C97.1662 7.01482 96.0787 7.20863 95.0881 7.59625C94.1191 7.98387 93.2684 8.533 92.5363 9.24364C91.8256 9.95427 91.2657 10.7941 90.8566 11.7632C90.469 12.7322 90.2752 13.7982 90.2752 14.961C90.2752 16.1239 90.469 17.1898 90.8566 18.1589C91.2657 19.1279 91.8256 19.9678 92.5363 20.6784C93.2684 21.3891 94.1191 21.9382 95.0881 22.3258C96.0787 22.7134 97.1662 22.9072 98.3506 22.9072C99.535 22.9072 100.633 22.6919 101.645 22.2612C102.657 21.809 103.573 21.1306 104.391 20.2262L107.104 22.8103C106.049 24.0378 104.757 24.9745 103.228 25.6206C101.699 26.2666 99.998 26.5896 98.1245 26.5896ZM110.74 26.2666V2.29878H114.778V26.2666H110.74ZM127.83 26.4927C126.064 26.4927 124.492 26.1159 123.114 25.3622C121.736 24.5869 120.648 23.5317 119.851 22.1966C119.055 20.8615 118.656 19.3433 118.656 17.6421C118.656 15.9193 119.055 14.4011 119.851 13.0875C120.648 11.7524 121.736 10.708 123.114 9.95427C124.492 9.20057 126.064 8.82372 127.83 8.82372C129.617 8.82372 131.2 9.20057 132.578 9.95427C133.978 10.708 135.065 11.7416 135.841 13.0552C136.637 14.3688 137.036 15.8978 137.036 17.6421C137.036 19.3433 136.637 20.8615 135.841 22.1966C135.065 23.5317 133.978 24.5869 132.578 25.3622C131.2 26.1159 129.617 26.4927 127.83 26.4927ZM127.83 23.0364C128.82 23.0364 129.703 22.8211 130.479 22.3904C131.254 21.9597 131.857 21.3352 132.287 20.5169C132.74 19.6986 132.966 18.7403 132.966 17.6421C132.966 16.5223 132.74 15.564 132.287 14.7672C131.857 13.9489 131.254 13.3244 130.479 12.8937C129.703 12.463 128.831 12.2477 127.862 12.2477C126.872 12.2477 125.989 12.463 125.213 12.8937C124.46 13.3244 123.857 13.9489 123.405 14.7672C122.952 15.564 122.726 16.5223 122.726 17.6421C122.726 18.7403 122.952 19.6986 123.405 20.5169C123.857 21.3352 124.46 21.9597 125.213 22.3904C125.989 22.8211 126.861 23.0364 127.83 23.0364ZM148.197 26.4927C146.733 26.4927 145.441 26.2235 144.321 25.6852C143.201 25.1253 142.329 24.2854 141.704 23.1656C141.08 22.0243 140.768 20.5923 140.768 18.8695V9.01752H144.805V18.3204C144.805 19.8709 145.15 21.0337 145.839 21.809C146.55 22.5627 147.551 22.9395 148.843 22.9395C149.791 22.9395 150.609 22.7457 151.298 22.3581C152.009 21.9705 152.558 21.3891 152.945 20.6138C153.355 19.8386 153.559 18.8803 153.559 17.739V9.01752H157.597V26.2666H153.753V21.6152L154.431 23.0364C153.85 24.1562 152.999 25.0176 151.879 25.6206C150.76 26.202 149.532 26.4927 148.197 26.4927ZM170.184 26.4927C168.525 26.4927 167.029 26.1266 165.694 25.3945C164.38 24.6408 163.346 23.6071 162.593 22.2935C161.839 20.9799 161.462 19.4294 161.462 17.6421C161.462 15.8547 161.839 14.3042 162.593 12.9906C163.346 11.677 164.38 10.6541 165.694 9.92197C167.029 9.1898 168.525 8.82372 170.184 8.82372C171.626 8.82372 172.918 9.14673 174.06 9.79276C175.201 10.4173 176.106 11.3755 176.773 12.6676C177.441 13.9597 177.775 15.6178 177.775 17.6421C177.775 19.6448 177.451 21.3029 176.805 22.6165C176.159 23.9086 175.266 24.8776 174.124 25.5237C172.983 26.1697 171.669 26.4927 170.184 26.4927ZM170.668 23.0364C171.637 23.0364 172.499 22.8211 173.252 22.3904C174.028 21.9597 174.641 21.3352 175.093 20.5169C175.567 19.6986 175.804 18.7403 175.804 17.6421C175.804 16.5223 175.567 15.564 175.093 14.7672C174.641 13.9489 174.028 13.3244 173.252 12.8937C172.499 12.463 171.637 12.2477 170.668 12.2477C169.699 12.2477 168.827 12.463 168.052 12.8937C167.298 13.3244 166.684 13.9489 166.211 14.7672C165.758 15.564 165.532 16.5223 165.532 17.6421C165.532 18.7403 165.758 19.6986 166.211 20.5169C166.684 21.3352 167.298 21.9597 168.052 22.3904C168.827 22.8211 169.699 23.0364 170.668 23.0364ZM175.901 26.2666V22.1966L176.063 17.6098L175.739 13.0229V2.29878H179.745V26.2666H175.901ZM182.249 26.2666L192.424 3.65545H196.559L206.766 26.2666H202.373L193.619 5.88427H195.299L186.577 26.2666H182.249ZM186.933 21.0337L188.063 17.739H200.273L201.404 21.0337H186.933ZM209.642 26.2666V3.65545H213.841V26.2666H209.642ZM233.471 26.2666V7.20863H225.977V3.65545H245.164V7.20863H237.67V26.2666H233.471ZM254.269 26.4927C252.352 26.4927 250.673 26.1159 249.23 25.3622C247.808 24.5869 246.699 23.5317 245.903 22.1966C245.127 20.8615 244.74 19.3433 244.74 17.6421C244.74 15.9193 245.117 14.4011 245.87 13.0875C246.646 11.7524 247.701 10.708 249.036 9.95427C250.393 9.20057 251.932 8.82372 253.655 8.82372C255.335 8.82372 256.831 9.1898 258.145 9.92197C259.459 10.6541 260.492 11.6878 261.246 13.0229C262 14.3581 262.377 15.9301 262.377 17.739C262.377 17.9112 262.366 18.1051 262.344 18.3204C262.344 18.5357 262.333 18.7403 262.312 18.9341H247.938V16.2531H260.18L258.597 17.0929C258.619 16.1024 258.414 15.2302 257.984 14.4765C257.553 13.7228 256.961 13.1306 256.207 12.6999C255.475 12.2692 254.624 12.0539 253.655 12.0539C252.665 12.0539 251.792 12.2692 251.039 12.6999C250.306 13.1306 249.725 13.7336 249.294 14.5088C248.885 15.2625 248.681 16.1562 248.681 17.1898V17.8359C248.681 18.8695 248.918 19.7847 249.391 20.5815C249.865 21.3783 250.533 21.992 251.394 22.4227C252.255 22.8534 253.246 23.0687 254.366 23.0687C255.335 23.0687 256.207 22.918 256.982 22.6165C257.757 22.315 258.447 21.8413 259.049 21.1952L261.214 23.6825C260.438 24.5869 259.459 25.2868 258.274 25.7821C257.111 26.2558 255.776 26.4927 254.269 26.4927ZM274.169 26.4927C272.36 26.4927 270.745 26.1159 269.324 25.3622C267.924 24.5869 266.826 23.5317 266.029 22.1966C265.232 20.8615 264.834 19.3433 264.834 17.6421C264.834 15.9193 265.232 14.4011 266.029 13.0875C266.826 11.7524 267.924 10.708 269.324 9.95427C270.745 9.20057 272.36 8.82372 274.169 8.82372C275.849 8.82372 277.324 9.16827 278.594 9.85737C279.886 10.5249 280.866 11.5155 281.534 12.8291L278.433 14.638C277.916 13.8197 277.281 13.2167 276.527 12.8291C275.795 12.4415 274.998 12.2477 274.137 12.2477C273.146 12.2477 272.252 12.463 271.456 12.8937C270.659 13.3244 270.034 13.9489 269.582 14.7672C269.13 15.564 268.904 16.5223 268.904 17.6421C268.904 18.7619 269.13 19.7309 269.582 20.5492C270.034 21.346 270.659 21.9597 271.456 22.3904C272.252 22.8211 273.146 23.0364 274.137 23.0364C274.998 23.0364 275.795 22.8426 276.527 22.455C277.281 22.0674 277.916 21.4644 278.433 20.6461L281.534 22.455C280.866 23.7471 279.886 24.7484 278.594 25.4591C277.324 26.1482 275.849 26.4927 274.169 26.4927ZM294.654 8.82372C296.032 8.82372 297.259 9.0929 298.336 9.63126C299.434 10.1696 300.296 10.9987 300.92 12.1185C301.545 13.2167 301.857 14.638 301.857 16.3823V26.2666H297.819V16.8991C297.819 15.3702 297.453 14.2289 296.721 13.4752C296.01 12.7214 295.009 12.3446 293.717 12.3446C292.769 12.3446 291.93 12.5384 291.197 12.926C290.465 13.3136 289.895 13.8951 289.485 14.6703C289.098 15.424 288.904 16.3823 288.904 17.5452V26.2666H284.866V2.29878H288.904V13.669L288.032 12.2477C288.635 11.1494 289.507 10.3096 290.648 9.72816C291.811 9.1252 293.146 8.82372 294.654 8.82372ZM316.766 8.82372C318.145 8.82372 319.372 9.0929 320.449 9.63126C321.547 10.1696 322.408 10.9987 323.033 12.1185C323.657 13.2167 323.97 14.638 323.97 16.3823V26.2666H319.932V16.8991C319.932 15.3702 319.566 14.2289 318.834 13.4752C318.123 12.7214 317.122 12.3446 315.83 12.3446C314.882 12.3446 314.042 12.5384 313.31 12.926C312.578 13.3136 312.007 13.8951 311.598 14.6703C311.211 15.424 311.017 16.3823 311.017 17.5452V26.2666H306.979V9.01752H310.823V13.669L310.145 12.2477C310.748 11.1494 311.62 10.3096 312.761 9.72816C313.924 9.1252 315.259 8.82372 316.766 8.82372ZM336.876 26.4927C335.11 26.4927 333.538 26.1159 332.16 25.3622C330.781 24.5869 329.694 23.5317 328.897 22.1966C328.1 20.8615 327.702 19.3433 327.702 17.6421C327.702 15.9193 328.1 14.4011 328.897 13.0875C329.694 11.7524 330.781 10.708 332.16 9.95427C333.538 9.20057 335.11 8.82372 336.876 8.82372C338.663 8.82372 340.246 9.20057 341.624 9.95427C343.024 10.708 344.111 11.7416 344.887 13.0552C345.683 14.3688 346.082 15.8978 346.082 17.6421C346.082 19.3433 345.683 20.8615 344.887 22.1966C344.111 23.5317 343.024 24.5869 341.624 25.3622C340.246 26.1159 338.663 26.4927 336.876 26.4927ZM336.876 23.0364C337.866 23.0364 338.749 22.8211 339.524 22.3904C340.3 21.9597 340.903 21.3352 341.333 20.5169C341.786 19.6986 342.012 18.7403 342.012 17.6421C342.012 16.5223 341.786 15.564 341.333 14.7672C340.903 13.9489 340.3 13.3244 339.524 12.8937C338.749 12.463 337.877 12.2477 336.908 12.2477C335.917 12.2477 335.035 12.463 334.259 12.8937C333.506 13.3244 332.903 13.9489 332.45 14.7672C331.998 15.564 331.772 16.5223 331.772 17.6421C331.772 18.7403 331.998 19.6986 332.45 20.5169C332.903 21.3352 333.506 21.9597 334.259 22.3904C335.035 22.8211 335.907 23.0364 336.876 23.0364ZM349.943 26.2666V2.29878H353.98V26.2666H349.943ZM367.032 26.4927C365.267 26.4927 363.694 26.1159 362.316 25.3622C360.938 24.5869 359.851 23.5317 359.054 22.1966C358.257 20.8615 357.859 19.3433 357.859 17.6421C357.859 15.9193 358.257 14.4011 359.054 13.0875C359.851 11.7524 360.938 10.708 362.316 9.95427C363.694 9.20057 365.267 8.82372 367.032 8.82372C368.82 8.82372 370.402 9.20057 371.781 9.95427C373.18 10.708 374.268 11.7416 375.043 13.0552C375.84 14.3688 376.238 15.8978 376.238 17.6421C376.238 19.3433 375.84 20.8615 375.043 22.1966C374.268 23.5317 373.18 24.5869 371.781 25.3622C370.402 26.1159 368.82 26.4927 367.032 26.4927ZM367.032 23.0364C368.023 23.0364 368.906 22.8211 369.681 22.3904C370.456 21.9597 371.059 21.3352 371.49 20.5169C371.942 19.6986 372.168 18.7403 372.168 17.6421C372.168 16.5223 371.942 15.564 371.49 14.7672C371.059 13.9489 370.456 13.3244 369.681 12.8937C368.906 12.463 368.034 12.2477 367.065 12.2477C366.074 12.2477 365.191 12.463 364.416 12.8937C363.662 13.3244 363.059 13.9489 362.607 14.7672C362.155 15.564 361.929 16.5223 361.929 17.6421C361.929 18.7403 362.155 19.6986 362.607 20.5169C363.059 21.3352 363.662 21.9597 364.416 22.3904C365.191 22.8211 366.063 23.0364 367.032 23.0364ZM387.916 32.7592C386.323 32.7592 384.762 32.5439 383.233 32.1132C381.725 31.704 380.487 31.1011 379.518 30.3043L381.327 27.268C382.081 27.8925 383.028 28.3877 384.169 28.7538C385.332 29.1414 386.506 29.3353 387.69 29.3353C389.585 29.3353 390.974 28.8938 391.857 28.0109C392.74 27.1495 393.182 25.8467 393.182 24.1024V21.0337L393.505 17.1252L393.375 13.2167V9.01752H397.219V23.6502C397.219 26.7727 396.422 29.0661 394.829 30.5304C393.235 32.0163 390.931 32.7592 387.916 32.7592ZM387.4 25.4914C385.763 25.4914 384.277 25.1468 382.942 24.4577C381.628 23.7471 380.584 22.7673 379.809 21.5183C379.055 20.2693 378.678 18.8049 378.678 17.1252C378.678 15.4671 379.055 14.0135 379.809 12.7645C380.584 11.5155 381.628 10.5465 382.942 9.85737C384.277 9.16827 385.763 8.82372 387.4 8.82372C388.864 8.82372 390.177 9.11443 391.34 9.69586C392.503 10.2773 393.429 11.1817 394.118 12.4092C394.829 13.6367 395.184 15.2087 395.184 17.1252C395.184 19.0418 394.829 20.6246 394.118 21.8736C393.429 23.101 392.503 24.0163 391.34 24.6192C390.177 25.2006 388.864 25.4914 387.4 25.4914ZM388.013 22.0674C389.025 22.0674 389.93 21.8628 390.727 21.4537C391.523 21.023 392.137 20.4415 392.568 19.7094C393.02 18.9557 393.246 18.0943 393.246 17.1252C393.246 16.1562 393.02 15.3056 392.568 14.5734C392.137 13.8197 391.523 13.249 390.727 12.8614C389.93 12.4523 389.025 12.2477 388.013 12.2477C387.001 12.2477 386.086 12.4523 385.268 12.8614C384.471 13.249 383.846 13.8197 383.394 14.5734C382.963 15.3056 382.748 16.1562 382.748 17.1252C382.748 18.0943 382.963 18.9557 383.394 19.7094C383.846 20.4415 384.471 21.023 385.268 21.4537C386.086 21.8628 387.001 22.0674 388.013 22.0674ZM402.528 26.2666V9.01752H406.565V26.2666H402.528ZM404.563 6.17498C403.809 6.17498 403.184 5.9381 402.689 5.46434C402.215 4.99059 401.978 4.41993 401.978 3.75236C401.978 3.06326 402.215 2.49259 402.689 2.04037C403.184 1.56661 403.809 1.32974 404.563 1.32974C405.316 1.32974 405.93 1.55585 406.404 2.00807C406.899 2.43876 407.147 2.98789 407.147 3.65545C407.147 4.36609 406.91 4.96905 406.436 5.46434C405.962 5.9381 405.338 6.17498 404.563 6.17498ZM419.972 26.4927C418.056 26.4927 416.376 26.1159 414.933 25.3622C413.512 24.5869 412.403 23.5317 411.606 22.1966C410.831 20.8615 410.443 19.3433 410.443 17.6421C410.443 15.9193 410.82 14.4011 411.574 13.0875C412.349 11.7524 413.404 10.708 414.74 9.95427C416.096 9.20057 417.636 8.82372 419.359 8.82372C421.038 8.82372 422.535 9.1898 423.849 9.92197C425.162 10.6541 426.196 11.6878 426.95 13.0229C427.703 14.3581 428.08 15.9301 428.08 17.739C428.08 17.9112 428.069 18.1051 428.048 18.3204C428.048 18.5357 428.037 18.7403 428.016 18.9341H413.641V16.2531H425.884L424.301 17.0929C424.322 16.1024 424.118 15.2302 423.687 14.4765C423.256 13.7228 422.664 13.1306 421.911 12.6999C421.178 12.2692 420.328 12.0539 419.359 12.0539C418.368 12.0539 417.496 12.2692 416.742 12.6999C416.01 13.1306 415.429 13.7336 414.998 14.5088C414.589 15.2625 414.384 16.1562 414.384 17.1898V17.8359C414.384 18.8695 414.621 19.7847 415.095 20.5815C415.569 21.3783 416.236 21.992 417.098 22.4227C417.959 22.8534 418.95 23.0687 420.069 23.0687C421.038 23.0687 421.911 22.918 422.686 22.6165C423.461 22.315 424.15 21.8413 424.753 21.1952L426.917 23.6825C426.142 24.5869 425.162 25.2868 423.978 25.7821C422.815 26.2558 421.48 26.4927 419.972 26.4927ZM437.288 26.4927C435.846 26.4927 434.457 26.3097 433.121 25.9436C431.808 25.556 430.763 25.093 429.988 24.5546L431.539 21.486C432.314 21.9813 433.24 22.3904 434.317 22.7134C435.393 23.0364 436.47 23.1979 437.547 23.1979C438.817 23.1979 439.733 23.0257 440.292 22.6811C440.874 22.3366 441.165 21.8736 441.165 21.2921C441.165 20.8184 440.971 20.4631 440.583 20.2262C440.196 19.9678 439.689 19.774 439.065 19.6448C438.44 19.5156 437.741 19.3971 436.965 19.2894C436.212 19.1818 435.447 19.0418 434.672 18.8695C433.918 18.6757 433.229 18.4065 432.605 18.062C431.98 17.6959 431.474 17.2114 431.086 16.6084C430.699 16.0054 430.505 15.2087 430.505 14.2181C430.505 13.1198 430.817 12.1723 431.442 11.3755C432.066 10.5572 432.938 9.93274 434.058 9.50205C435.2 9.04983 436.545 8.82372 438.096 8.82372C439.259 8.82372 440.432 8.95292 441.617 9.21134C442.801 9.46975 443.781 9.83583 444.556 10.3096L443.006 13.3782C442.187 12.883 441.358 12.5492 440.519 12.3769C439.7 12.1831 438.882 12.0862 438.064 12.0862C436.836 12.0862 435.921 12.2692 435.318 12.6353C434.737 13.0014 434.446 13.4644 434.446 14.0243C434.446 14.5411 434.64 14.9287 435.027 15.1871C435.415 15.4456 435.921 15.6501 436.545 15.8009C437.17 15.9516 437.859 16.0808 438.613 16.1885C439.388 16.2746 440.152 16.4146 440.906 16.6084C441.66 16.8022 442.349 17.0714 442.973 17.416C443.62 17.739 444.136 18.202 444.524 18.8049C444.912 19.4079 445.105 20.1939 445.105 21.1629C445.105 22.2397 444.782 23.1764 444.136 23.9732C443.512 24.77 442.618 25.3945 441.455 25.8467C440.292 26.2774 438.903 26.4927 437.288 26.4927Z" fill="white"/>
<path d="M92.7729 53.4346V48.3933L93.1025 49.2853L87.3439 39.862H88.8756L93.9362 48.1413H93.1219L98.1825 39.862H99.6173L93.8587 49.2853L94.1883 48.3933V53.4346H92.7729ZM104.546 53.5315C103.564 53.5315 102.678 53.3118 101.89 52.8723C101.114 52.4199 100.5 51.8059 100.048 51.0303C99.5952 50.2418 99.369 49.3434 99.369 48.3352C99.369 47.314 99.5952 46.4156 100.048 45.6401C100.5 44.8645 101.114 44.2569 101.89 43.8175C102.665 43.378 103.551 43.1582 104.546 43.1582C105.554 43.1582 106.446 43.378 107.222 43.8175C108.01 44.2569 108.624 44.8645 109.064 45.6401C109.516 46.4156 109.742 47.314 109.742 48.3352C109.742 49.3434 109.516 50.2418 109.064 51.0303C108.624 51.8059 108.01 52.4199 107.222 52.8723C106.433 53.3118 105.541 53.5315 104.546 53.5315ZM104.546 52.31C105.283 52.31 105.936 52.1484 106.504 51.8253C107.073 51.4892 107.519 51.0238 107.842 50.4292C108.178 49.8217 108.346 49.1237 108.346 48.3352C108.346 47.5337 108.178 46.8357 107.842 46.2411C107.519 45.6465 107.073 45.1876 106.504 44.8645C105.936 44.5284 105.289 44.3604 104.565 44.3604C103.842 44.3604 103.195 44.5284 102.626 44.8645C102.058 45.1876 101.605 45.6465 101.269 46.2411C100.933 46.8357 100.765 47.5337 100.765 48.3352C100.765 49.1237 100.933 49.8217 101.269 50.4292C101.605 51.0238 102.058 51.4892 102.626 51.8253C103.195 52.1484 103.835 52.31 104.546 52.31ZM116.76 53.5315C115.894 53.5315 115.138 53.3699 114.492 53.0468C113.845 52.7236 113.341 52.2389 112.979 51.5926C112.63 50.9463 112.456 50.1384 112.456 49.1689V43.2552H113.833V49.0138C113.833 50.0996 114.098 50.9204 114.628 51.4762C115.17 52.0191 115.927 52.2906 116.896 52.2906C117.607 52.2906 118.221 52.1484 118.738 51.864C119.268 51.5667 119.669 51.1402 119.94 50.5843C120.225 50.0285 120.367 49.3628 120.367 48.5872V43.2552H121.743V53.4346H120.425V50.6425L120.638 51.1466C120.315 51.8963 119.811 52.4845 119.126 52.9111C118.454 53.3247 117.665 53.5315 116.76 53.5315ZM125.58 53.4346V43.2552H126.899V46.0278L126.763 45.5431C127.047 44.7675 127.525 44.1794 128.198 43.7787C128.87 43.365 129.704 43.1582 130.699 43.1582V44.4961C130.647 44.4961 130.595 44.4961 130.544 44.4961C130.492 44.4832 130.44 44.4767 130.389 44.4767C129.316 44.4767 128.476 44.8063 127.868 45.4655C127.261 46.1119 126.957 47.0361 126.957 48.2382V53.4346H125.58ZM138.728 53.4346V39.862H140.163V53.4346H138.728ZM147.216 53.4346V41.1029H142.446V39.862H153.42V41.1029H148.65V53.4346H147.216ZM160.787 53.4346V39.862H165.867C167.017 39.862 168.006 40.0495 168.833 40.4243C169.661 40.7863 170.294 41.3162 170.734 42.0142C171.186 42.6993 171.412 43.5331 171.412 44.5155C171.412 45.472 171.186 46.2993 170.734 46.9973C170.294 47.6824 169.661 48.2124 168.833 48.5872C168.006 48.9621 167.017 49.1495 165.867 49.1495H161.582L162.222 48.4709V53.4346H160.787ZM162.222 48.5872L161.582 47.8892H165.828C167.185 47.8892 168.213 47.5984 168.911 47.0167C169.622 46.4221 169.977 45.5883 169.977 44.5155C169.977 43.4297 169.622 42.5895 168.911 41.9949C168.213 41.4003 167.185 41.1029 165.828 41.1029H161.582L162.222 40.4243V48.5872ZM180.508 53.4346V51.1854L180.45 50.817V47.0555C180.45 46.1894 180.205 45.5237 179.713 45.0584C179.235 44.593 178.518 44.3604 177.561 44.3604C176.902 44.3604 176.275 44.4702 175.68 44.69C175.086 44.9097 174.582 45.2006 174.168 45.5625L173.548 44.5349C174.065 44.0954 174.685 43.7593 175.409 43.5266C176.133 43.281 176.895 43.1582 177.697 43.1582C179.015 43.1582 180.03 43.4878 180.741 44.1471C181.465 44.7934 181.827 45.7822 181.827 47.1136V53.4346H180.508ZM176.999 53.5315C176.236 53.5315 175.57 53.4087 175.002 53.1631C174.446 52.9046 174.019 52.5556 173.722 52.1161C173.425 51.6637 173.276 51.1466 173.276 50.5649C173.276 50.035 173.399 49.5567 173.644 49.1301C173.903 48.6906 174.317 48.3416 174.885 48.0831C175.467 47.8117 176.243 47.6759 177.212 47.6759H180.722V48.7036H177.251C176.268 48.7036 175.583 48.8781 175.196 49.2271C174.821 49.5761 174.633 50.0091 174.633 50.5262C174.633 51.1078 174.86 51.5732 175.312 51.9222C175.764 52.2712 176.398 52.4457 177.212 52.4457C177.988 52.4457 178.653 52.2712 179.209 51.9222C179.778 51.5603 180.192 51.0432 180.45 50.3711L180.76 51.3211C180.502 51.9933 180.049 52.5297 179.403 52.9304C178.77 53.3312 177.968 53.5315 176.999 53.5315ZM185.566 53.4346V43.2552H186.884V46.0278L186.749 45.5431C187.033 44.7675 187.511 44.1794 188.183 43.7787C188.856 43.365 189.689 43.1582 190.685 43.1582V44.4961C190.633 44.4961 190.581 44.4961 190.53 44.4961C190.478 44.4832 190.426 44.4767 190.374 44.4767C189.302 44.4767 188.461 44.8063 187.854 45.4655C187.246 46.1119 186.943 47.0361 186.943 48.2382V53.4346H185.566ZM196.851 53.5315C195.894 53.5315 195.157 53.273 194.64 52.7559C194.123 52.2389 193.865 51.5086 193.865 50.5649V41.006H195.241V50.4874C195.241 51.082 195.39 51.5409 195.687 51.864C195.998 52.1872 196.437 52.3488 197.006 52.3488C197.613 52.3488 198.118 52.1743 198.518 51.8253L199.003 52.8141C198.732 53.0597 198.402 53.2407 198.014 53.357C197.639 53.4733 197.251 53.5315 196.851 53.5315ZM192.042 44.3991V43.2552H198.344V44.3991H192.042ZM206.705 43.1582C207.533 43.1582 208.257 43.3198 208.877 43.643C209.51 43.9532 210.002 44.4315 210.351 45.0778C210.713 45.7241 210.894 46.5384 210.894 47.5208V53.4346H209.517V47.6565C209.517 46.5837 209.245 45.7758 208.703 45.2329C208.173 44.677 207.423 44.3991 206.453 44.3991C205.729 44.3991 205.096 44.5478 204.553 44.8451C204.023 45.1295 203.61 45.5496 203.312 46.1054C203.028 46.6483 202.886 47.3075 202.886 48.0831V53.4346H201.509V43.2552H202.828V46.0472L202.614 45.5237C202.937 44.7869 203.454 44.2117 204.165 43.7981C204.876 43.3715 205.723 43.1582 206.705 43.1582ZM218.936 53.5315C217.876 53.5315 216.945 53.3118 216.144 52.8723C215.342 52.4199 214.715 51.8059 214.263 51.0303C213.811 50.2418 213.584 49.3434 213.584 48.3352C213.584 47.3269 213.798 46.435 214.224 45.6594C214.664 44.8839 215.258 44.2763 216.008 43.8368C216.771 43.3844 217.624 43.1582 218.567 43.1582C219.524 43.1582 220.371 43.378 221.107 43.8175C221.857 44.244 222.445 44.8516 222.872 45.6401C223.298 46.4156 223.512 47.314 223.512 48.3352C223.512 48.3998 223.505 48.4709 223.492 48.5485C223.492 48.6131 223.492 48.6842 223.492 48.7617H214.631V47.7341H222.756L222.213 48.1413C222.213 47.4045 222.051 46.7517 221.728 46.183C221.418 45.6013 220.991 45.1489 220.448 44.8257C219.905 44.5025 219.278 44.341 218.567 44.341C217.869 44.341 217.243 44.5025 216.687 44.8257C216.131 45.1489 215.698 45.6013 215.388 46.183C215.077 46.7646 214.922 47.4303 214.922 48.1801V48.3933C214.922 49.1689 215.09 49.854 215.426 50.4486C215.775 51.0303 216.254 51.4892 216.861 51.8253C217.482 52.1484 218.186 52.31 218.975 52.31C219.595 52.31 220.17 52.2001 220.7 51.9804C221.243 51.7606 221.709 51.4245 222.096 50.9721L222.872 51.864C222.419 52.4069 221.851 52.8206 221.166 53.105C220.493 53.3893 219.75 53.5315 218.936 53.5315ZM226.314 53.4346V43.2552H227.632V46.0278L227.497 45.5431C227.781 44.7675 228.259 44.1794 228.931 43.7787C229.604 43.365 230.437 43.1582 231.433 43.1582V44.4961C231.381 44.4961 231.329 44.4961 231.277 44.4961C231.226 44.4832 231.174 44.4767 231.122 44.4767C230.049 44.4767 229.209 44.8063 228.602 45.4655C227.994 46.1119 227.69 47.0361 227.69 48.2382V53.4346H226.314ZM233.073 56.2654L233.926 52.6784L234.081 53.5121C233.784 53.5121 233.532 53.4152 233.325 53.2213C233.131 53.0274 233.034 52.7753 233.034 52.4651C233.034 52.1549 233.131 51.9028 233.325 51.7089C233.532 51.515 233.777 51.4181 234.062 51.4181C234.359 51.4181 234.598 51.5215 234.779 51.7283C234.973 51.9351 235.07 52.1807 235.07 52.4651C235.07 52.5685 235.064 52.6719 235.051 52.7753C235.038 52.8787 235.012 52.9951 234.973 53.1243C234.934 53.2536 234.883 53.4087 234.818 53.5897L234.004 56.2654H233.073ZM244.661 45.9309H251.835V47.1524H244.661V45.9309ZM244.816 52.1937H252.979V53.4346H243.381V39.862H252.688V41.1029H244.816V52.1937ZM256.061 53.4346V39.0477H257.437V53.4346H256.061ZM265.591 53.5315C264.532 53.5315 263.601 53.3118 262.799 52.8723C261.998 52.4199 261.371 51.8059 260.919 51.0303C260.466 50.2418 260.24 49.3434 260.24 48.3352C260.24 47.3269 260.453 46.435 260.88 45.6594C261.319 44.8839 261.914 44.2763 262.664 43.8368C263.426 43.3844 264.279 43.1582 265.223 43.1582C266.18 43.1582 267.026 43.378 267.763 43.8175C268.513 44.244 269.101 44.8516 269.527 45.6401C269.954 46.4156 270.167 47.314 270.167 48.3352C270.167 48.3998 270.161 48.4709 270.148 48.5485C270.148 48.6131 270.148 48.6842 270.148 48.7617H261.287V47.7341H269.411L268.868 48.1413C268.868 47.4045 268.707 46.7517 268.384 46.183C268.073 45.6013 267.647 45.1489 267.104 44.8257C266.561 44.5025 265.934 44.341 265.223 44.341C264.525 44.341 263.898 44.5025 263.342 44.8257C262.786 45.1489 262.353 45.6013 262.043 46.183C261.733 46.7646 261.578 47.4303 261.578 48.1801V48.3933C261.578 49.1689 261.746 49.854 262.082 50.4486C262.431 51.0303 262.909 51.4892 263.517 51.8253C264.137 52.1484 264.842 52.31 265.63 52.31C266.251 52.31 266.826 52.2001 267.356 51.9804C267.899 51.7606 268.364 51.4245 268.752 50.9721L269.527 51.864C269.075 52.4069 268.506 52.8206 267.821 53.105C267.149 53.3893 266.406 53.5315 265.591 53.5315ZM275.398 53.4346L270.88 43.2552H272.315L276.464 52.6978H275.785L279.993 43.2552H281.35L276.813 53.4346H275.398ZM289.365 53.4346V51.1854L289.307 50.817V47.0555C289.307 46.1894 289.061 45.5237 288.57 45.0584C288.092 44.593 287.374 44.3604 286.418 44.3604C285.759 44.3604 285.132 44.4702 284.537 44.69C283.943 44.9097 283.438 45.2006 283.025 45.5625L282.404 44.5349C282.921 44.0954 283.542 43.7593 284.266 43.5266C284.99 43.281 285.752 43.1582 286.554 43.1582C287.872 43.1582 288.887 43.4878 289.598 44.1471C290.322 44.7934 290.684 45.7822 290.684 47.1136V53.4346H289.365ZM285.856 53.5315C285.093 53.5315 284.427 53.4087 283.858 53.1631C283.303 52.9046 282.876 52.5556 282.579 52.1161C282.281 51.6637 282.133 51.1466 282.133 50.5649C282.133 50.035 282.256 49.5567 282.501 49.1301C282.76 48.6906 283.173 48.3416 283.742 48.0831C284.324 47.8117 285.099 47.6759 286.069 47.6759H289.578V48.7036H286.108C285.125 48.7036 284.44 48.8781 284.052 49.2271C283.678 49.5761 283.49 50.0091 283.49 50.5262C283.49 51.1078 283.716 51.5732 284.169 51.9222C284.621 52.2712 285.255 52.4457 286.069 52.4457C286.844 52.4457 287.51 52.2712 288.066 51.9222C288.635 51.5603 289.048 51.0432 289.307 50.3711L289.617 51.3211C289.359 51.9933 288.906 52.5297 288.26 52.9304C287.626 53.3312 286.825 53.5315 285.856 53.5315ZM297.641 53.5315C296.685 53.5315 295.948 53.273 295.431 52.7559C294.914 52.2389 294.655 51.5086 294.655 50.5649V41.006H296.032V50.4874C296.032 51.082 296.181 51.5409 296.478 51.864C296.788 52.1872 297.228 52.3488 297.796 52.3488C298.404 52.3488 298.908 52.1743 299.309 51.8253L299.793 52.8141C299.522 53.0597 299.192 53.2407 298.805 53.357C298.43 53.4733 298.042 53.5315 297.641 53.5315ZM292.833 44.3991V43.2552H299.134V44.3991H292.833ZM306.264 53.5315C305.204 53.5315 304.273 53.3118 303.472 52.8723C302.67 52.4199 302.043 51.8059 301.591 51.0303C301.138 50.2418 300.912 49.3434 300.912 48.3352C300.912 47.3269 301.125 46.435 301.552 45.6594C301.991 44.8839 302.586 44.2763 303.336 43.8368C304.098 43.3844 304.952 43.1582 305.895 43.1582C306.852 43.1582 307.698 43.378 308.435 43.8175C309.185 44.244 309.773 44.8516 310.2 45.6401C310.626 46.4156 310.84 47.314 310.84 48.3352C310.84 48.3998 310.833 48.4709 310.82 48.5485C310.82 48.6131 310.82 48.6842 310.82 48.7617H301.959V47.7341H310.083L309.54 48.1413C309.54 47.4045 309.379 46.7517 309.056 46.183C308.745 45.6013 308.319 45.1489 307.776 44.8257C307.233 44.5025 306.606 44.341 305.895 44.341C305.197 44.341 304.57 44.5025 304.014 44.8257C303.459 45.1489 303.026 45.6013 302.715 46.183C302.405 46.7646 302.25 47.4303 302.25 48.1801V48.3933C302.25 49.1689 302.418 49.854 302.754 50.4486C303.103 51.0303 303.581 51.4892 304.189 51.8253C304.809 52.1484 305.514 52.31 306.302 52.31C306.923 52.31 307.498 52.2001 308.028 51.9804C308.571 51.7606 309.036 51.4245 309.424 50.9721L310.2 51.864C309.747 52.4069 309.178 52.8206 308.493 53.105C307.821 53.3893 307.078 53.5315 306.264 53.5315ZM317.694 53.5315C316.724 53.5315 315.852 53.3118 315.076 52.8723C314.314 52.4328 313.713 51.8253 313.273 51.0497C312.834 50.2612 312.614 49.3563 312.614 48.3352C312.614 47.3011 312.834 46.3962 313.273 45.6207C313.713 44.8451 314.314 44.244 315.076 43.8175C315.852 43.378 316.724 43.1582 317.694 43.1582C318.586 43.1582 319.381 43.3586 320.079 43.7593C320.79 44.16 321.352 44.7481 321.766 45.5237C322.192 46.2864 322.406 47.2235 322.406 48.3352C322.406 49.4339 322.199 50.3711 321.785 51.1466C321.371 51.9222 320.809 52.5168 320.098 52.9304C319.4 53.3312 318.599 53.5315 317.694 53.5315ZM317.791 52.31C318.515 52.31 319.161 52.1484 319.73 51.8253C320.312 51.4892 320.764 51.0238 321.087 50.4292C321.423 49.8217 321.591 49.1237 321.591 48.3352C321.591 47.5337 321.423 46.8357 321.087 46.2411C320.764 45.6465 320.312 45.1876 319.73 44.8645C319.161 44.5284 318.515 44.3604 317.791 44.3604C317.08 44.3604 316.44 44.5284 315.871 44.8645C315.303 45.1876 314.85 45.6465 314.514 46.2411C314.178 46.8357 314.01 47.5337 314.01 48.3352C314.01 49.1237 314.178 49.8217 314.514 50.4292C314.85 51.0238 315.303 51.4892 315.871 51.8253C316.44 52.1484 317.08 52.31 317.791 52.31ZM321.63 53.4346V50.3711L321.766 48.3158L321.572 46.2605V39.0477H322.948V53.4346H321.63Z" fill="white"/>
<path d="M38.7068 42.3271C36.8817 48.897 34.4487 51.3307 31.4071 54.7373H58.4166C65.3513 54.7373 69.0014 49.384 70.4613 47.4374C78.491 31.7426 65.7163 21.523 56.2265 22.2528C44.9072 22.2528 41.2469 33.1836 38.7068 42.3271Z" stroke="white" stroke-width="0.729983"/>
<path d="M36.152 35.0276C38.7069 21.8879 53.0634 17.3864 58.4166 18.238C55.4967 8.89436 48.4402 4.12504 45.2769 2.90834C40.605 0.572396 34.0839 1.20505 31.4073 1.81337C19.4356 5.31729 15.956 16.4131 15.7126 21.523C6.36883 22.6911 2.57293 31.0128 1.84296 35.0276C-0.200997 44.3714 7.68268 51.6956 11.3326 53.6422C29.5822 59.482 34.3777 44.1524 36.152 35.0276Z" stroke="white" stroke-width="0.729983"/>
<path d="M39.4368 38.3118C37.6907 45.4464 32.5175 52.4728 30.312 55.1013H59.8763C62.4494 55.1013 70.4771 52.0551 73.016 43.0566C76.0076 32.4537 68.5359 23.1834 58.2435 21.6814C47.951 20.1793 41.6423 29.2997 39.4368 38.3118Z" fill="url(#paint0_linear_679_2185)" stroke="white" stroke-width="0.919562"/>
<path d="M16.8071 21.5225L24.8369 15.3177M16.8071 21.5225L24.1069 31.7423M16.8071 21.5225L14.6171 38.6771M16.8071 21.5225L7.31728 26.6324L14.6171 38.6771M24.8369 15.3177L21.5519 9.11281M24.8369 15.3177L31.0417 2.90796L37.9766 10.9378M24.8369 15.3177L32.5017 22.2525M24.8369 15.3177L37.9766 10.9378M24.8369 15.3177L24.1069 31.7423M37.9766 10.9378L44.9114 2.90796L47.1014 11.6678M37.9766 10.9378L44.9114 20.7925M37.9766 10.9378L32.5017 22.2525M47.1014 11.6678L57.6861 17.1426M47.1014 11.6678L44.9114 20.7925M44.9114 20.7925L32.5017 22.2525M32.5017 22.2525L24.1069 31.7423M32.5017 22.2525L35.7866 35.7572M24.1069 31.7423L35.7866 35.7572M24.1069 31.7423L14.6171 38.6771M24.1069 31.7423L25.5669 44.152M35.7866 35.7572L25.5669 44.152M14.6171 38.6771L1.84241 35.0272M14.6171 38.6771L5.49232 49.2619M14.6171 38.6771L19.727 54.7368L25.5669 44.152M14.6171 38.6771L25.5669 44.152M25.5669 44.152L32.5017 47.4369" stroke="white" stroke-width="0.919562"/>
<circle cx="13.5221" cy="39.042" r="1.75196" fill="white" stroke="white" stroke-width="0.87598"/>
<circle cx="5.49164" cy="49.262" r="1.16797" fill="white" stroke="white" stroke-width="0.583987"/>
<circle cx="1.8426" cy="34.6619" r="1.16797" fill="white" stroke="white" stroke-width="0.583987"/>
<circle cx="6.95221" cy="26.6322" r="1.16797" fill="white" stroke="white" stroke-width="0.583987"/>
<circle cx="15.712" cy="22.2529" r="1.16797" fill="white" stroke="white" stroke-width="0.583987"/>
<circle cx="25.5668" cy="14.5875" r="1.45997" fill="white" stroke="white" stroke-width="0.729983"/>
<circle cx="20.8221" cy="8.74805" r="1.16797" fill="white" stroke="white" stroke-width="0.583986"/>
<circle cx="31.0413" cy="2.17786" r="1.45997" fill="white" stroke="white" stroke-width="0.729983"/>
<circle cx="37.6119" cy="10.9378" r="1.75196" fill="white" stroke="white" stroke-width="0.87598"/>
<circle cx="45.2765" cy="2.90784" r="1.45997" fill="white" stroke="white" stroke-width="0.729983"/>
<circle cx="46.7371" cy="11.6672" r="1.45997" fill="white" stroke="white" stroke-width="0.729983"/>
<circle cx="57.6862" cy="17.5071" r="1.45997" fill="white" stroke="white" stroke-width="0.729983"/>
<circle cx="44.5466" cy="21.8872" r="1.45997" fill="white" stroke="white" stroke-width="0.729983"/>
<circle cx="32.1365" cy="22.6179" r="1.45997" fill="white" stroke="white" stroke-width="0.729983"/>
<circle cx="23.7417" cy="31.3771" r="1.75196" fill="white" stroke="white" stroke-width="0.87598"/>
<circle cx="25.9318" cy="44.152" r="1.75196" fill="white" stroke="white" stroke-width="0.87598"/>
<circle cx="19.7269" cy="54.7377" r="1.45997" fill="white" stroke="white" stroke-width="0.729983"/>
<circle cx="32.8665" cy="47.4365" r="1.45997" fill="white" stroke="white" stroke-width="0.729983"/>
<circle cx="35.7868" cy="35.7575" r="1.45997" fill="white" stroke="white" stroke-width="0.729983"/>
<defs>
<linearGradient id="paint0_linear_679_2185" x1="67.9706" y1="27.9396" x2="30.7284" y2="55.5265" gradientUnits="userSpaceOnUse">
<stop stop-color="white"/>
<stop offset="1" stop-color="#056FE7"/>
</linearGradient>
</defs>
</svg>
