<svg width="1629" height="579" viewBox="0 0 1629 579" fill="none" xmlns="http://www.w3.org/2000/svg">
<mask id="mask0_1597_2506" style="mask-type:luminance" maskUnits="userSpaceOnUse" x="0" y="0" width="1629" height="579">
<path d="M49.8225 0H1579.18C1606.69 0 1629 22.72 1629 50.74V528.26C1629 556.28 1606.69 579 1579.18 579H49.8225C22.3092 579 0 556.28 0 528.26V50.74C0 22.72 22.3092 0 49.8225 0Z" fill="white"/>
</mask>
<g mask="url(#mask0_1597_2506)">
<path d="M49.7832 0H1579.22C1606.71 0 1629 22.7 1629 50.7V528.3C1629 556.3 1606.71 579 1579.22 579H49.7832C22.2895 579 0 556.3 0 528.3V50.7C0 22.7 22.2895 0 49.7832 0Z" fill="url(#paint0_linear_1597_2506)"/>
<path opacity="0.4" fill-rule="evenodd" clip-rule="evenodd" d="M1654.23 127.9C1654.23 169.1 1619.38 202.5 1576.47 202.5C1533.56 202.5 1498.7 169.1 1498.7 127.9C1498.7 86.7001 1533.56 53.3 1576.47 53.3C1619.38 53.3 1654.23 86.7001 1654.23 127.9Z" stroke="white" stroke-width="0.7"/>
<path opacity="0.4" fill-rule="evenodd" clip-rule="evenodd" d="M1643.24 128.2C1643.24 163.4 1613.49 192 1576.76 192C1540.04 192 1510.29 163.4 1510.29 128.2C1510.29 93 1540.04 64.5 1576.76 64.5C1613.49 64.5 1643.24 93 1643.24 128.2Z" stroke="white" stroke-width="0.6"/>
<path opacity="0.4" fill-rule="evenodd" clip-rule="evenodd" d="M1631.65 127.9C1631.65 157.2 1607.01 180.9 1576.47 180.9C1545.93 180.9 1521.19 157.2 1521.19 127.9C1521.19 98.6999 1545.93 74.8999 1576.47 74.8999C1607.01 74.8999 1631.65 98.6999 1631.65 127.9Z" stroke="white" stroke-width="0.5"/>
<path opacity="0.4" fill-rule="evenodd" clip-rule="evenodd" d="M1620.06 128.2C1620.06 151.2 1600.62 169.8 1576.76 169.8C1552.8 169.8 1533.46 151.2 1533.46 128.2C1533.46 105.3 1552.8 86.7 1576.76 86.7C1600.62 86.7 1620.06 105.3 1620.06 128.2Z" stroke="white" stroke-width="0.4"/>
<path opacity="0.4" fill-rule="evenodd" clip-rule="evenodd" d="M1040.05 596.7C1040.05 632.8 1009.51 662.1 971.803 662.1C934.196 662.1 903.658 632.8 903.658 596.7C903.658 560.6 934.196 531.3 971.803 531.3C1009.51 531.3 1040.05 560.6 1040.05 596.7Z" stroke="white" stroke-width="0.6"/>
<path opacity="0.4" fill-rule="evenodd" clip-rule="evenodd" d="M1030.42 597C1030.42 627.9 1004.3 652.9 972.097 652.9C939.89 652.9 913.771 627.9 913.771 597C913.771 566.1 939.89 541 972.097 541C1004.3 541 1030.42 566.1 1030.42 597Z" stroke="white" stroke-width="0.5"/>
<path opacity="0.4" fill-rule="evenodd" clip-rule="evenodd" d="M1020.21 596.7C1020.21 622.3 998.609 643.2 971.803 643.2C944.997 643.2 923.395 622.3 923.395 596.7C923.395 571 944.997 550.2 971.803 550.2C998.609 550.2 1020.21 571 1020.21 596.7Z" stroke="white" stroke-width="0.4"/>
<path opacity="0.4" fill-rule="evenodd" clip-rule="evenodd" d="M1010 597C1010 617.1 993.013 633.4 972.098 633.4C951.085 633.4 934.098 617.1 934.098 597C934.098 576.9 951.085 560.5 972.098 560.5C993.013 560.5 1010 576.9 1010 597Z" stroke="white" stroke-width="0.4"/>
<path opacity="0.4" fill-rule="evenodd" clip-rule="evenodd" d="M1247.82 66.1999C1247.82 95.4999 1223.08 119.2 1192.54 119.2C1162 119.2 1137.26 95.4999 1137.26 66.1999C1137.26 36.9999 1162 13.2 1192.54 13.2C1223.08 13.2 1247.82 36.9999 1247.82 66.1999Z" stroke="white" stroke-width="0.5"/>
<path opacity="0.4" fill-rule="evenodd" clip-rule="evenodd" d="M1239.96 66.5001C1239.96 91.5001 1218.85 111.8 1192.73 111.8C1166.62 111.8 1145.5 91.5001 1145.5 66.5001C1145.5 41.4001 1166.62 21.1001 1192.73 21.1001C1218.85 21.1001 1239.96 41.4001 1239.96 66.5001Z" stroke="white" stroke-width="0.4"/>
<path opacity="0.4" fill-rule="evenodd" clip-rule="evenodd" d="M1231.81 66.2001C1231.81 87.0001 1214.24 103.9 1192.54 103.9C1170.84 103.9 1153.26 87.0001 1153.26 66.2001C1153.26 45.4001 1170.84 28.6001 1192.54 28.6001C1214.24 28.6001 1231.81 45.4001 1231.81 66.2001Z" stroke="white" stroke-width="0.4"/>
<path opacity="0.4" fill-rule="evenodd" clip-rule="evenodd" d="M1223.47 66.4999C1223.47 82.7999 1209.72 95.9999 1192.73 95.9999C1175.75 95.9999 1161.9 82.7999 1161.9 66.4999C1161.9 50.1999 1175.75 36.8999 1192.73 36.8999C1209.72 36.8999 1223.47 50.1999 1223.47 66.4999Z" stroke="white" stroke-width="0.4"/>
<path opacity="0.5" fill-rule="evenodd" clip-rule="evenodd" d="M1532.97 590.5C1532.97 614.4 1512.74 633.8 1487.8 633.8C1462.86 633.8 1442.63 614.4 1442.63 590.5C1442.63 566.6 1462.86 547.2 1487.8 547.2C1512.74 547.2 1532.97 566.6 1532.97 590.5Z" stroke="white" stroke-width="0.4"/>
<path opacity="0.5" fill-rule="evenodd" clip-rule="evenodd" d="M1526.59 590.7C1526.59 611.1 1509.3 627.7 1488 627.7C1466.59 627.7 1449.31 611.1 1449.31 590.7C1449.31 570.2 1466.59 553.6 1488 553.6C1509.3 553.6 1526.59 570.2 1526.59 590.7Z" stroke="white" stroke-width="0.4"/>
<path opacity="0.5" fill-rule="evenodd" clip-rule="evenodd" d="M1519.81 590.5C1519.81 607.5 1505.47 621.3 1487.8 621.3C1470.03 621.3 1455.69 607.5 1455.69 590.5C1455.69 573.5 1470.03 559.7 1487.8 559.7C1505.47 559.7 1519.81 573.5 1519.81 590.5Z" stroke="white" stroke-width="0.4"/>
<path opacity="0.5" fill-rule="evenodd" clip-rule="evenodd" d="M1513.04 590.7C1513.04 604 1501.84 614.8 1487.9 614.8C1474.05 614.8 1462.76 604 1462.76 590.7C1462.76 577.4 1474.05 566.6 1487.9 566.6C1501.84 566.6 1513.04 577.4 1513.04 590.7Z" stroke="white" stroke-width="0.4"/>
<path opacity="0.5" fill-rule="evenodd" clip-rule="evenodd" d="M1613.29 339C1613.29 345.2 1607.99 350.3 1601.51 350.3C1594.93 350.3 1589.72 345.2 1589.72 339C1589.72 332.8 1594.93 327.7 1601.51 327.7C1607.99 327.7 1613.29 332.8 1613.29 339Z" stroke="white" stroke-width="0.4"/>
<path opacity="0.5" fill-rule="evenodd" clip-rule="evenodd" d="M1611.62 339.1C1611.62 344.4 1607.1 348.7 1601.51 348.7C1596.01 348.7 1591.49 344.4 1591.49 339C1591.49 333.7 1596.01 329.4 1601.51 329.4C1607.1 329.4 1611.62 333.7 1611.62 339V339.1Z" stroke="white" stroke-width="0.4"/>
<path opacity="0.5" fill-rule="evenodd" clip-rule="evenodd" d="M1609.85 339C1609.85 343.4 1606.12 347 1601.51 347C1596.89 347 1593.16 343.4 1593.16 339C1593.16 334.6 1596.89 331 1601.51 331C1606.12 331 1609.85 334.6 1609.85 339Z" stroke="white" stroke-width="0.4"/>
<path opacity="0.5" fill-rule="evenodd" clip-rule="evenodd" d="M1608.09 339.1C1608.09 342.5 1605.14 345.3 1601.51 345.3C1597.87 345.3 1594.93 342.5 1594.93 339C1594.93 335.6 1597.87 332.8 1601.51 332.8C1605.14 332.8 1608.09 335.6 1608.09 339V339.1Z" stroke="white" stroke-width="0.4"/>
<path opacity="0.1" d="M-0.000234604 507.4C-7.56099 507.4 -13.7471 501.5 -13.7471 494.2C-13.7471 486.9 -7.56099 481 -0.000234604 481C7.56053 481 13.7466 486.9 13.7466 494.2C13.7466 501.5 7.56053 507.4 -0.000234604 507.4Z" fill="white"/>
<path opacity="0.1" d="M658.081 32C632.453 32 611.734 12.1 611.734 -12.5C611.734 -37.1 632.453 -57 658.081 -57C683.807 -57 704.526 -37.1 704.526 -12.5C704.526 12.1 683.807 32 658.081 32Z" fill="white"/>
<path opacity="0.1" d="M203.748 349C136.192 349 81.499 297.6 81.499 234C81.499 170.4 136.192 119 203.748 119C271.304 119 325.996 170.4 325.996 234C325.996 297.6 271.304 349 203.748 349Z" fill="white"/>
<path opacity="0.1" d="M722.297 524C725.832 524 728.582 521.3 728.582 518C728.582 514.7 725.832 512 722.297 512C718.861 512 716.111 514.7 716.111 518C716.111 521.3 718.861 524 722.297 524Z" fill="white"/>
<path opacity="0.5" d="M1423.19 190C1412.59 190.5 1403.65 182.2 1403.06 171.4C1402.57 160.6 1410.72 151.5 1421.32 150.9C1431.93 150.4 1440.96 158.7 1441.45 169.5C1441.94 180.3 1433.8 189.5 1423.19 190Z" fill="#18377C"/>
</g>
<defs>
<linearGradient id="paint0_linear_1597_2506" x1="0" y1="311" x2="1629" y2="311" gradientUnits="userSpaceOnUse">
<stop stop-color="#00256A"/>
<stop offset="1" stop-color="#021F75"/>
</linearGradient>
</defs>
</svg>
