<svg width="25" height="25" viewBox="0 0 25 25" fill="none" xmlns="http://www.w3.org/2000/svg">
<path d="M17.6549 15.4048L22.9107 20.6621L23.5256 20.0416C24.3274 19.2397 24.3274 17.8387 23.5256 17.0368L21.2787 14.79C20.8764 14.3877 20.3423 14.1667 19.7757 14.1667C19.209 14.1667 18.6749 14.3877 18.274 14.7872L17.6549 15.4048ZM9.35891 5.8735C10.1607 5.07167 10.1607 3.67058 9.35891 2.86875L7.11208 0.621916C6.70974 0.220999 6.17566 -7.84676e-07 5.60899 -8.09446e-07C5.04233 -8.34216e-07 4.50824 0.220999 4.10449 0.624749L3.49249 1.24383L8.73841 6.48975L9.35891 5.8735ZM20.9897 22.5774L21.4912 22.0759L16.2382 16.8229L15.3188 17.7437C15.253 17.8097 15.1749 17.8621 15.0888 17.8978C15.0028 17.9335 14.9105 17.9519 14.8173 17.9519C14.7242 17.9519 14.6319 17.9335 14.5458 17.8978C14.4598 17.8621 14.3816 17.8097 14.3158 17.7437L6.40233 9.83025C6.27387 9.69516 6.20224 9.51587 6.20224 9.32946C6.20224 9.14304 6.27387 8.96376 6.40233 8.82867L7.32316 7.90783L2.06733 2.66333L1.56583 3.16483C1.19749 3.53317 0.000409864 4.93 0.000409752 7.49417C0.000409652 9.7835 1.00908 13.5235 5.81583 18.3317C15.4137 27.9267 20.7617 22.8055 20.9897 22.5774Z" fill="#00256A"/>
</svg>
