<svg width="73" height="74" viewBox="0 0 73 74" fill="none" xmlns="http://www.w3.org/2000/svg">
<rect width="73" height="74" fill="#615F5F"/>
<g clip-path="url(#clip0_755_1352)">
<rect width="1728" height="3181" transform="translate(-37 -2983)" fill="white"/>
<g clip-path="url(#clip1_755_1352)">
<rect width="1728" height="883" transform="translate(-37 -685.83)" fill="#000D33"/>
<path d="M66.1562 1.88137H6.84375C5.49799 1.86767 4.20176 2.3884 3.23948 3.32929C2.27721 4.27019 1.72748 5.55439 1.71094 6.90012V66.4521C1.73048 67.7959 2.28151 69.0772 3.24346 70.0156C4.20542 70.954 5.49994 71.4732 6.84375 71.4595H66.1562C67.5021 71.4702 68.7974 70.9477 69.7592 70.0062C70.721 69.0647 71.271 67.7808 71.2891 66.435V6.88301C71.2651 5.54123 70.7124 4.26315 69.7513 3.32657C68.7902 2.39 67.4982 1.87063 66.1562 1.88137Z" fill="white"/>
<path d="M12.0115 27.9593H22.3399V61.1915H12.0115V27.9593ZM17.1785 11.4203C18.3631 11.4203 19.5211 11.7716 20.506 12.4299C21.4909 13.0881 22.2585 14.0237 22.7115 15.1183C23.1646 16.2128 23.2828 17.4172 23.0513 18.5789C22.8198 19.7407 22.2489 20.8077 21.4109 21.6449C20.5728 22.4822 19.5053 23.0521 18.3433 23.2825C17.1813 23.5129 15.9771 23.3935 14.883 22.9394C13.7888 22.4853 12.854 21.7168 12.1967 20.7313C11.5394 19.7458 11.1891 18.5875 11.1902 17.4029C11.1918 15.8157 11.8233 14.294 12.9462 13.1722C14.069 12.0504 15.5913 11.4203 17.1785 11.4203ZM28.8186 27.9593H38.7192V32.5218H38.8561C40.2363 29.9098 43.6011 27.1552 48.6256 27.1552C59.0851 27.1324 61.0242 34.0161 61.0242 42.9415V61.1915H50.6958V45.0231C50.6958 41.1735 50.6274 36.2175 45.3292 36.2175C40.031 36.2175 39.1299 40.415 39.1299 44.7722V61.1915H28.8186V27.9593Z" fill="#00256A"/>
</g>
</g>
<defs>
<clipPath id="clip0_755_1352">
<rect width="1728" height="3181" fill="white" transform="translate(-37 -2983)"/>
</clipPath>
<clipPath id="clip1_755_1352">
<rect width="1728" height="883" fill="white" transform="translate(-37 -685.83)"/>
</clipPath>
</defs>
</svg>
