<svg width="34" height="34" viewBox="0 0 34 34" fill="none" xmlns="http://www.w3.org/2000/svg">
<path d="M28.334 5.66699H5.66732C4.10898 5.66699 2.84815 6.94199 2.84815 8.50033L2.83398 25.5003C2.83398 27.0587 4.10898 28.3337 5.66732 28.3337H28.334C29.8923 28.3337 31.1673 27.0587 31.1673 25.5003V8.50033C31.1673 6.94199 29.8923 5.66699 28.334 5.66699ZM27.7673 11.6878L17.7515 17.9495C17.2982 18.2328 16.7032 18.2328 16.2498 17.9495L6.23398 11.6878C6.09193 11.6081 5.96754 11.5003 5.86833 11.3711C5.76912 11.2419 5.69716 11.0939 5.6568 10.9361C5.61644 10.7783 5.60853 10.6139 5.63354 10.4529C5.65855 10.292 5.71596 10.1377 5.8023 9.99959C5.88864 9.86144 6.00211 9.74225 6.13585 9.64924C6.26958 9.55622 6.4208 9.4913 6.58035 9.45842C6.7399 9.42553 6.90447 9.42536 7.06409 9.45792C7.22371 9.49048 7.37506 9.55508 7.50899 9.64783L17.0007 15.5837L26.4923 9.64783C26.6262 9.55508 26.7776 9.49048 26.9372 9.45792C27.0968 9.42536 27.2614 9.42553 27.421 9.45842C27.5805 9.4913 27.7317 9.55622 27.8655 9.64924C27.9992 9.74225 28.1127 9.86144 28.199 9.99959C28.2853 10.1377 28.3428 10.292 28.3678 10.4529C28.3928 10.6139 28.3849 10.7783 28.3445 10.9361C28.3041 11.0939 28.2322 11.2419 28.133 11.3711C28.0338 11.5003 27.9094 11.6081 27.7673 11.6878Z" fill="#00256A"/>
</svg>
