<svg width="70" height="70" viewBox="0 0 70 70" fill="none" xmlns="http://www.w3.org/2000/svg">
<path d="M25.6839 52.3241V53.9628M44.0089 52.3241V53.9628M27.5312 59.177C29.9449 63.8449 36.1617 70.3801 41.7183 59.177M28.7873 28.1153L31.743 30.9459V47.3333M40.6099 28.1153L38.0237 30.9459V47.3333M55.0187 7.25854C53.33 7.69319 51.3414 8.35675 49.1453 9.26973M7.72827 55.0801C16.3115 28.5115 36.2868 14.6152 49.1453 9.26973M14.2307 63.2739C15.4622 63.2739 19.477 62.4545 25.6839 59.177M61.5212 14.931C60.7084 19.8224 56.8512 32.5548 44.6739 42.5661C61.2256 30.1115 54.5514 15.1791 49.1453 9.26973M44.0089 59.177C48.9104 61.7096 59.2749 65.2553 61.5212 59.177C62.1616 57.4389 62.6 52.3539 59.2305 45.9181M10.3145 24.6144C8.73812 20.8651 6.29478 12.7558 9.13221 10.3126C10.0435 8.79797 13.743 6.46896 21.2504 9.26973C27.9006 12.0506 43.9646 21.7689 55.0187 38.3947M25.6839 46.6629V43.9814C21.4721 41.0018 13.2849 32.5697 14.2307 22.6777C15.1765 12.7856 23.4918 6.53849 27.5312 4.65145C31.3741 2.68992 41.0771 0.867432 49.1453 9.26973" stroke="white" stroke-width="1.77339" stroke-linecap="round"/>
<path d="M44.5269 42.7901V46.887" stroke="white" stroke-width="1.77339" stroke-linecap="round"/>
<ellipse cx="60.4912" cy="9.26938" rx="5.91479" ry="6.25703" fill="#FF6A00"/>
<ellipse cx="9.35466" cy="60.6665" rx="6.35466" ry="6.40601" fill="#FF6A00"/>
<ellipse cx="11.8668" cy="26.7001" rx="2.95565" ry="2.97954" fill="#FF6A00"/>
<mask id="path-6-inside-1_1056_1533" fill="white">
<rect x="22.803" y="46.6621" width="24.2364" height="5.51215" rx="1.33004"/>
</mask>
<rect x="22.803" y="46.6621" width="24.2364" height="5.51215" rx="1.33004" stroke="white" stroke-width="3.54679" mask="url(#path-6-inside-1_1056_1533)"/>
<mask id="path-7-inside-2_1056_1533" fill="white">
<rect x="22.5073" y="53.6655" width="24.2364" height="5.51215" rx="1.33004"/>
</mask>
<rect x="22.5073" y="53.6655" width="24.2364" height="5.51215" rx="1.33004" stroke="white" stroke-width="3.54679" mask="url(#path-7-inside-2_1056_1533)"/>
<ellipse cx="57.389" cy="42.3429" rx="4.13264" ry="4.32033" fill="#FF6A00"/>
</svg>
