<svg width="66" height="65" viewBox="0 0 66 65" fill="none" xmlns="http://www.w3.org/2000/svg">
<path d="M46.1107 43.142L50.1656 47.064L58.4947 38.9991" stroke="white" stroke-width="2.17854" stroke-linecap="round"/>
<ellipse cx="29.3978" cy="13.3126" rx="13.5347" ry="13.3126" fill="#FF6A00"/>
<path d="M19.48 26.018C14.7127 27.6383 2.65755 34.3039 2 45.6278V59.6585C2.18265 60.8554 3.20552 63.2491 5.83573 63.2491H52.6865C54.0381 63.1202 56.7962 62.2216 57.0154 59.6585V53.9951M38.823 26.018C40.3756 26.2942 44.4013 27.4874 48.0836 30.0505M37.5079 34.0829C37.9463 40.9141 41.256 55.3278 50.9878 58.3328C54.8966 57.0991 63.4375 49.9033 64.3581 34.5248C60.4127 34.5248 53.0152 30.9343 50.9878 28.2828C48.7777 30.5292 43.2615 35.4086 37.5079 34.0829Z" stroke="white" stroke-width="2.17854" stroke-linecap="round"/>
<path d="M15.2919 36.5696C15.781 36.2193 15.8935 35.5389 15.5432 35.0498C15.1928 34.5607 14.5124 34.4482 14.0233 34.7985L15.2919 36.5696ZM9.72595 44.675H10.8152H9.72595ZM9.72595 57.2273H8.63668C8.63668 57.8289 9.12437 58.3166 9.72595 58.3166V57.2273ZM26.2744 58.3166C26.876 58.3166 27.3637 57.8289 27.3637 57.2273C27.3637 56.6257 26.876 56.138 26.2744 56.138V58.3166ZM14.0233 34.7985C11.7969 36.3932 8.63668 39.7738 8.63668 44.675H10.8152C10.8152 40.764 13.3538 37.9578 15.2919 36.5696L14.0233 34.7985ZM8.63668 44.675V57.2273H10.8152V44.675H8.63668ZM9.72595 58.3166H26.2744V56.138H9.72595V58.3166Z" fill="white"/>
<ellipse cx="16.3569" cy="33.8616" rx="0.931534" ry="0.939061" fill="white"/>
</svg>
