<svg width="66" height="66" viewBox="0 0 66 66" fill="none" xmlns="http://www.w3.org/2000/svg">
<path d="M26.1526 13.5428H32.3433M34.6976 54.3328H43.3298M44.9864 33.5038H58.2399C60.5069 33.3303 64.9538 31.9243 64.605 27.6891V18.4896C64.4016 16.9853 63.1576 14.0288 59.8094 14.2371H55.4497" stroke="white" stroke-width="2.0662" stroke-linecap="round"/>
<path d="M21.8795 33.33H8.27728C6.56247 33.3879 3.11541 34.4062 3.04565 38.0166V47.8801C3.04565 49.2206 3.63442 50.4935 4.65596 51.3615V51.3615C5.92426 52.4391 7.53436 53.0308 9.19866 53.0308H12.0266" stroke="white" stroke-width="2.0662" stroke-linecap="round"/>
<path d="M64.9668 54.1591C64.9668 59.8483 60.2567 64.4952 54.4032 64.4952C48.5496 64.4952 43.8395 59.8483 43.8395 54.1591C43.8395 48.4699 48.5496 43.8231 54.4032 43.8231C60.2567 43.8231 64.9668 48.4699 64.9668 54.1591Z" stroke="white" stroke-width="2.0662"/>
<path d="M18.7547 13.6294C18.7547 16.3957 16.464 18.6714 13.597 18.6714C10.7301 18.6714 8.43935 16.3957 8.43935 13.6294C8.43935 10.863 10.7301 8.58736 13.597 8.58736C16.464 8.58736 18.7547 10.863 18.7547 13.6294Z" stroke="white" stroke-width="2.0662"/>
<path d="M11.5276 4.32794L12.2013 2H15.0885L15.5697 4.32794L18.5531 5.58891L20.6703 4.32794L22.4989 6.26789L21.344 8.59584L22.4989 11.4088L25.1935 12.1847V14.9007L22.4989 15.7737L21.344 18.7806L22.4989 20.8175L20.6703 22.6605L18.5531 21.4965L15.5697 22.9515L14.7998 25.0854H12.2013L11.5276 22.6605L8.64047 21.4965L6.52322 22.9515L4.50221 20.8175L5.56083 18.4896L4.50221 15.7737L2 14.9007V12.1847L4.50221 11.4088L5.56083 8.59584L4.50221 6.26789L6.52322 4.32794L8.64047 5.58891L11.5276 4.32794Z" stroke="white" stroke-width="2.0662" stroke-linecap="round"/>
<rect x="32.3431" y="8.42166" width="23.0191" height="10.2409" rx="2.58275" fill="#FF6A00"/>
<rect x="21.8795" y="28.2095" width="23.0192" height="10.2409" rx="2.58275" fill="#FF6A00"/>
<rect x="11.4166" y="49.0385" width="23.0191" height="10.2409" rx="2.58275" fill="#FF6A00"/>
<rect x="36.5289" y="12.4142" width="2.09265" height="2.25647" fill="white"/>
<rect x="26.0654" y="32.2015" width="2.09265" height="2.25647" fill="white"/>
<rect x="15.6021" y="53.0311" width="2.09265" height="2.25647" fill="white"/>
<rect x="40.7136" y="12.4142" width="2.09265" height="2.25647" fill="white"/>
<rect x="30.2505" y="32.2015" width="2.09265" height="2.25647" fill="white"/>
<rect x="19.7872" y="53.0311" width="2.09265" height="2.25647" fill="white"/>
<rect x="44.8988" y="12.4142" width="2.09265" height="2.25647" fill="white"/>
<rect x="34.436" y="32.2015" width="2.09265" height="2.25647" fill="white"/>
<rect x="23.9728" y="53.0311" width="2.09265" height="2.25647" fill="white"/>
<rect x="49.0845" y="12.4142" width="2.09265" height="2.25647" fill="white"/>
<rect x="38.6212" y="32.2015" width="2.09265" height="2.25647" fill="white"/>
<rect x="28.1577" y="53.0311" width="2.09265" height="2.25647" fill="white"/>
<path d="M49.2585 56.6757L51.4384 58.8454L59.7218 50.4271" stroke="white" stroke-width="2.0662" stroke-linecap="round"/>
</svg>
