<svg width="68" height="68" viewBox="0 0 68 68" fill="none" xmlns="http://www.w3.org/2000/svg">
<path d="M21.6281 31.8238L22.6047 31.9857L21.6281 31.8238ZM55.3244 49.7711L56.0331 50.4623L55.3244 49.7711ZM42.0071 40.6529C41.6091 40.278 40.9825 40.2967 40.6076 40.6947C40.2327 41.0927 40.2515 41.7192 40.6494 42.0941L42.0071 40.6529ZM40.5312 48.5412C40.1348 48.1647 39.5082 48.1808 39.1316 48.5772C38.7551 48.9736 38.7712 49.6003 39.1676 49.9768L40.5312 48.5412ZM38.0294 55.8994C37.6103 55.5482 36.9859 55.6032 36.6347 56.0222C36.2835 56.4413 36.3386 57.0657 36.7576 57.4169L38.0294 55.8994ZM34.969 62.4806C34.5083 62.1861 33.8961 62.3209 33.6017 62.7816C33.3072 63.2423 33.442 63.8545 33.9027 64.1489L34.969 62.4806ZM37.552 20.1235L37.552 21.1135H37.552V20.1235ZM49.536 20.8202L48.7729 21.4509L49.536 20.8202ZM25.1957 36.3364L25.2136 37.3263L25.1957 36.3364ZM27.471 35.1305L26.7378 34.4653L27.471 35.1305ZM39.2919 30.4382L39.9489 29.6976L39.2919 30.4382ZM30.872 30.8096L30.0291 30.2905L30.872 30.8096ZM60.7057 34.3328L59.9427 34.9636L60.7057 34.3328ZM60.7661 35.0914L59.8981 34.6154L60.7661 35.0914ZM7.73691 36.7461L6.9664 37.3677L7.73691 36.7461ZM8.50743 36.1257L20.312 21.4982L18.7711 20.2548L6.9666 34.8822L8.50743 36.1257ZM21.1097 21.0962C22.0145 21.1017 23.1767 21.165 24.3224 21.34C25.4831 21.5173 26.5531 21.7986 27.3194 22.2026L28.2427 20.451C27.1905 19.8964 25.8684 19.5732 24.6213 19.3827C23.3592 19.19 22.0981 19.1222 21.1219 19.1162L21.1097 21.0962ZM26.952 20.7857C25.962 22.3026 24.4646 24.6505 23.1886 26.7669C22.5513 27.824 21.9636 28.8328 21.5207 29.6553C21.2997 30.0657 21.109 30.4406 20.9648 30.7578C20.8339 31.046 20.6987 31.3764 20.6514 31.6619L22.6047 31.9857C22.6021 32.0017 22.6055 31.9755 22.6369 31.8893C22.6656 31.8106 22.7084 31.7069 22.7675 31.5769C22.8857 31.3167 23.0534 30.9853 23.2641 30.5939C23.6847 29.8127 24.2536 28.8354 24.8843 27.7892C26.1444 25.6991 27.6284 23.3721 28.6101 21.8679L26.952 20.7857ZM20.6514 31.6619C20.509 32.5208 20.6787 33.8867 21.3173 35.0514C21.9902 36.2789 23.2398 37.3618 25.2136 37.3263L25.1779 35.3466C24.0907 35.3662 23.4516 34.8257 23.0535 34.0996C22.621 33.3107 22.5373 32.3927 22.6047 31.9857L20.6514 31.6619ZM28.2041 35.7958C29.3107 34.5762 30.8013 32.8124 31.715 31.3288L30.0291 30.2905C29.2162 31.6104 27.8292 33.2625 26.7378 34.4653L28.2041 35.7958ZM31.9887 31.1496H38.5583V29.1696H31.9887V31.1496ZM38.6349 31.1787L54.192 44.9815L55.5061 43.5004L39.9489 29.6976L38.6349 31.1787ZM54.132 44.9236C54.5409 45.3531 54.9334 46.1766 55.0567 47.0708C55.1812 47.9746 55.0006 48.6852 54.6156 49.0799L56.0331 50.4623C57.0214 49.4489 57.1841 48.0046 57.0181 46.8005C56.8509 45.5868 56.3191 44.3492 55.566 43.5583L54.132 44.9236ZM54.6156 49.0799C53.931 49.782 53.2926 49.8968 52.6582 49.7718C51.9377 49.6298 51.1446 49.1558 50.3228 48.4899L49.0762 50.0282C49.971 50.7533 51.0717 51.4772 52.2753 51.7144C53.5649 51.9686 54.8808 51.644 56.0331 50.4623L54.6156 49.0799ZM50.3783 48.5384L42.0071 40.6529L40.6494 42.0941L49.0207 49.9797L50.3783 48.5384ZM48.9423 49.8967C49.4718 50.5255 50.0229 51.3304 50.3309 52.1358C50.6419 52.9488 50.6493 53.6014 50.3692 54.0975L52.0932 55.0712C52.7848 53.8468 52.5942 52.5109 52.1803 51.4285C51.7634 50.3385 51.0628 49.341 50.4568 48.6213L48.9423 49.8967ZM50.3692 54.0975C50.0874 54.5963 49.5757 54.878 48.876 54.9486C48.1613 55.0207 47.3764 54.8499 46.8146 54.5692L45.9297 56.3404C46.8027 56.7766 47.9614 57.0309 49.0746 56.9186C50.2028 56.8048 51.4031 56.2929 52.0932 55.0712L50.3692 54.0975ZM47.054 54.737L40.5312 48.5412L39.1676 49.9768L45.6903 56.1726L47.054 54.737ZM45.4584 55.8358C45.5868 56.1438 45.7611 56.7366 45.8114 57.4114C45.8619 58.0897 45.7806 58.7577 45.4973 59.2926L47.247 60.2194C47.7665 59.2387 47.8524 58.1572 47.7859 57.2643C47.7191 56.368 47.492 55.5681 47.2859 55.0738L45.4584 55.8358ZM45.4973 59.2926C45.3299 59.6086 44.9545 59.8312 44.2606 59.881C43.5827 59.9296 42.8384 59.7852 42.3743 59.634L41.761 61.5166C42.3972 61.7239 43.4038 61.9276 44.4024 61.8559C45.3849 61.7854 46.6116 61.4191 47.247 60.2194L45.4973 59.2926ZM42.7036 59.8165L38.0294 55.8994L36.7576 57.4169L41.4318 61.3341L42.7036 59.8165ZM41.0781 60.6048C41.0905 61.0206 41.1583 61.5082 41.1942 61.8614C41.2345 62.2577 41.25 62.59 41.2114 62.8867C41.1746 63.1691 41.0907 63.4009 40.9367 63.606C40.7809 63.8136 40.5081 64.0538 40.0015 64.2793L40.8065 66.0882C41.5543 65.7554 42.1221 65.325 42.5203 64.7946C42.9204 64.2616 43.1038 63.688 43.1748 63.1424C43.244 62.611 43.2079 62.0928 43.164 61.6611C43.1157 61.1862 43.0669 60.8682 43.0572 60.5458L41.0781 60.6048ZM40.0015 64.2793C39.122 64.6707 38.2551 64.5084 37.3654 64.0662C36.9189 63.8443 36.4942 63.5643 36.0905 63.2773C35.7229 63.016 35.291 62.6864 34.969 62.4806L33.9027 64.1489C34.1748 64.3229 34.4724 64.5564 34.9433 64.8911C35.3781 65.2002 35.9007 65.5493 36.4842 65.8393C37.6543 66.4208 39.1773 66.8132 40.8065 66.0882L40.0015 64.2793ZM6.9664 37.3677L12.2486 43.9153L13.7897 42.6721L8.50743 36.1245L6.9664 37.3677ZM28.1382 22.2502C28.7936 21.9967 30.2781 21.7062 32.1077 21.4805C33.902 21.2591 35.9114 21.1135 37.552 21.1135L37.552 19.1335C35.8123 19.1335 33.7197 19.2866 31.8653 19.5154C30.0463 19.7398 28.3354 20.051 27.424 20.4034L28.1382 22.2502ZM37.552 21.1135H48.0562V19.1335H37.552V21.1135ZM48.7729 21.4509L59.9427 34.9636L61.4688 33.7021L50.299 20.1894L48.7729 21.4509ZM59.8981 34.6154C59.4582 35.4176 59.1318 36.3064 58.834 37.1557C58.5279 38.0283 58.2515 38.8599 57.8961 39.6623C57.2018 41.2298 56.2628 42.5503 54.4558 43.3324L55.2423 45.1495C57.6712 44.0983 58.8978 42.29 59.7065 40.4642C60.1026 39.5698 60.4121 38.6386 60.7024 37.811C61.0008 36.9601 61.2811 36.2113 61.6342 35.5674L59.8981 34.6154ZM48.0562 21.1135C48.3335 21.1135 48.5963 21.2372 48.7729 21.4509L50.299 20.1894C49.7463 19.5207 48.9239 19.1335 48.0562 19.1335V21.1135ZM25.2136 37.3263C26.4946 37.3032 27.5169 36.5532 28.2041 35.7958L26.7378 34.4653C26.2257 35.0296 25.6814 35.3375 25.1779 35.3466L25.2136 37.3263ZM38.5583 31.1496C38.5865 31.1496 38.6138 31.16 38.6349 31.1787L39.9489 29.6976C39.5656 29.3575 39.0708 29.1696 38.5583 29.1696V31.1496ZM20.312 21.4982C20.526 21.233 20.8214 21.0944 21.1097 21.0962L21.1219 19.1162C20.1793 19.1104 19.3301 19.5621 18.7711 20.2548L20.312 21.4982ZM31.715 31.3288C31.7964 31.1966 31.9112 31.1496 31.9887 31.1496V29.1696C31.1479 29.1696 30.4292 29.6407 30.0291 30.2905L31.715 31.3288ZM59.9427 34.9636C59.8392 34.8384 59.8533 34.697 59.8981 34.6154L61.6342 35.5674C61.9456 34.9996 61.9256 34.2547 61.4688 33.7021L59.9427 34.9636ZM6.9666 34.8822C6.38141 35.6074 6.38132 36.6425 6.9664 37.3677L8.50743 36.1245C8.50695 36.1239 8.50729 36.1242 8.50756 36.125C8.50772 36.1255 8.50765 36.1255 8.50765 36.1251C8.50765 36.1247 8.50772 36.1247 8.50756 36.1252C8.50729 36.126 8.50695 36.1263 8.50743 36.1257L6.9666 34.8822Z" fill="white"/>
<path d="M16.5049 4.89006L26.6191 15.131M41.1433 15.131L51.2575 4.89006M34.3301 6.81024V15.131" stroke="white" stroke-width="1.98" stroke-linecap="round"/>
<path d="M35.4365 1.51054C35.4365 2.32788 34.7528 2.992 33.9075 2.992C33.0623 2.992 32.3786 2.32788 32.3786 1.51054C32.3786 0.693201 33.0623 0.0290892 33.9075 0.0290892C34.7528 0.0290892 35.4365 0.693201 35.4365 1.51054Z" fill="#FF6A00" stroke="#FF6A00" stroke-width="0.0581783"/>
<rect width="6.78686" height="10.3878" rx="3.39343" transform="matrix(0.726914 0.686729 -0.716473 0.697615 16.6589 39.991)" fill="#FF6A00"/>
<rect width="7.84004" height="13.5218" rx="3.92002" transform="matrix(0.726914 0.686729 -0.716473 0.697615 22.4351 43.5908)" fill="#FF6A00"/>
<rect width="8.12379" height="13.5218" rx="4.06189" transform="matrix(0.726914 0.686729 -0.716473 0.697615 27.8992 48.7155)" fill="#FF6A00"/>
<rect width="7.09089" height="11.509" rx="3.54545" transform="matrix(0.726914 0.686729 -0.716473 0.697615 32.5293 55.1016)" fill="#FF6A00"/>
<path d="M12.5 14.0698L0 29.5814L8.5 36L21 20.5L12.5 14.0698Z" fill="#FF6A00"/>
<path d="M60 35L48.5 21L56.5 14.0698L68 28.5116L60 35Z" fill="#FF6A00"/>
</svg>
