<svg width="175" height="172" viewBox="0 0 175 172" fill="none" xmlns="http://www.w3.org/2000/svg">
<g id="Group 232">
<g id="Group 205">
<g id="Group 200">
<g id="Rectangle 59" filter="url(#filter0_d_1694_744)">
<rect x="22.5789" y="23" width="129.942" height="127.967" rx="63.9833" fill="#6DAFFE" fill-opacity="0.36" shape-rendering="crispEdges"/>
</g>
</g>
</g>
<g id="Group 206">
<path id="Vector 117" d="M72.2239 68.4499L70.8777 67.0678C70.1697 67.7574 70.0973 68.8704 70.7099 69.646L72.2239 68.4499ZM110.982 47.3642L110.502 49.233L110.982 47.3642ZM128.984 73.8614L127.085 73.5197C127.068 73.6117 127.059 73.7047 127.056 73.7981L128.984 73.8614ZM104.367 68.6826C103.619 67.9232 102.398 67.9136 101.638 68.6611C100.879 69.4087 100.869 70.6303 101.617 71.3897L104.367 68.6826ZM51.2833 56.5077L52.7358 57.7777C52.7421 57.7706 52.7483 57.7633 52.7544 57.7561L51.2833 56.5077ZM102.604 83.6857C101.846 82.9363 100.625 82.9429 99.8752 83.7004C99.1258 84.458 99.1324 85.6796 99.8899 86.429L102.604 83.6857ZM96.8173 93.3887C96.0597 92.6394 94.838 92.6462 94.0887 93.4038C93.3394 94.1615 93.3462 95.3831 94.1039 96.1324L96.8173 93.3887ZM99.0426 115.66L99.8997 113.931L99.0426 115.66ZM91.1355 104.356C90.1483 103.954 89.0228 104.43 88.6217 105.417C88.2205 106.404 88.6956 107.529 89.6828 107.931L91.1355 104.356ZM86.8272 68.4499L88.3175 69.6754L86.8272 68.4499ZM110.951 61.3787C111.528 60.4832 111.27 59.2891 110.375 58.7115C109.479 58.134 108.285 58.3917 107.708 59.2872L110.951 61.3787ZM73.5702 69.8321L89.1838 54.6242L86.4913 51.8599L70.8777 67.0678L73.5702 69.8321ZM89.0246 54.7631C91.3247 52.968 94.8914 51.0887 98.846 49.9134C102.811 48.7351 106.964 48.324 110.502 49.233L111.462 45.4954C107.01 44.3518 102.101 44.9203 97.7467 46.2144C93.3817 47.5117 89.3712 49.5976 86.6504 51.7211L89.0246 54.7631ZM110.502 49.233C113.749 50.0669 118.671 52.2081 122.373 56.1063C125.998 59.9231 128.53 65.4887 127.085 73.5197L130.883 74.2031C132.56 64.8803 129.582 58.094 125.171 53.4489C120.837 48.8851 115.196 46.4547 111.462 45.4954L110.502 49.233ZM127.056 73.7981C126.976 76.2167 125.567 82.7233 120.528 87.9116L123.296 90.6002C129.131 84.5925 130.808 77.1041 130.912 73.9247L127.056 73.7981ZM123.287 87.9023L104.367 68.6826L101.617 71.3897L120.537 90.6094L123.287 87.9023ZM89.2091 51.885C85.9389 48.5798 80.0707 44.7938 72.969 44.1619C65.7333 43.518 57.5194 46.1773 49.8122 55.2593L52.7544 57.7561C59.7424 49.5217 66.7747 47.4848 72.6269 48.0056C78.613 48.5383 83.6744 51.7777 86.466 54.5991L89.2091 51.885ZM49.8308 55.2376C47.2701 58.1662 44.4929 63.3903 44.2874 69.7358C44.0789 76.1718 46.5243 83.5598 54.0963 90.663L56.7364 87.8487C49.9072 81.4422 47.9746 75.0995 48.1442 69.8607C48.3168 64.5313 50.6737 60.1361 52.7358 57.7777L49.8308 55.2376ZM120.195 90.1364C120.595 90.9161 120.962 91.905 121.153 92.9059C121.348 93.9235 121.335 94.8129 121.127 95.4782C120.941 96.0723 120.595 96.5277 119.915 96.8333C119.158 97.1739 117.826 97.3944 115.591 97.0519L115.007 100.866C117.64 101.27 119.806 101.113 121.498 100.353C123.267 99.5573 124.322 98.1875 124.809 96.6319C125.274 95.1473 125.208 93.5624 124.944 92.1805C124.676 90.7819 124.178 89.446 123.629 88.3753L120.195 90.1364ZM116.656 97.5874L102.604 83.6857L99.8899 86.429L113.942 100.331L116.656 97.5874ZM113.599 99.8718C114.645 101.82 114.891 103.923 114.382 105.19C114.157 105.749 113.785 106.167 113.169 106.431C112.506 106.716 111.406 106.884 109.666 106.576L108.993 110.375C111.202 110.767 113.121 110.651 114.691 109.977C116.308 109.284 117.383 108.069 117.962 106.63C119.06 103.9 118.341 100.545 116.999 98.0463L113.599 99.8718ZM110.686 107.104L96.8173 93.3887L94.1039 96.1324L107.972 109.847L110.686 107.104ZM107.4 108.476C107.4 110.046 106.589 112.088 105.195 113.369C104.526 113.983 103.769 114.381 102.947 114.514C102.136 114.644 101.127 114.539 99.8997 113.931L98.1855 117.388C100.044 118.31 101.864 118.597 103.561 118.323C105.246 118.052 106.675 117.249 107.806 116.21C110.012 114.184 111.259 111.104 111.259 108.476H107.4ZM99.8997 113.931C99.9062 113.934 99.8804 113.922 99.8218 113.876C99.7638 113.83 99.6867 113.761 99.5901 113.661C99.3927 113.458 99.1617 113.175 98.8886 112.802C98.3173 112.022 97.7552 111.124 97.013 110.026C95.6748 108.048 93.7747 105.428 91.1355 104.356L89.6828 107.931C91.0848 108.5 92.3992 110.092 93.8164 112.188C94.4518 113.128 95.1526 114.232 95.7754 115.082C96.3631 115.885 97.1669 116.883 98.1855 117.388L99.8997 113.931ZM70.7099 69.646C71.8149 71.0447 74.1614 73.4045 77.3384 74.2352C78.9774 74.6637 80.8221 74.6785 82.7505 73.9569C84.661 73.2419 86.5278 71.8519 88.3175 69.6754L85.3369 67.2245C83.8662 69.0131 82.526 69.9206 81.398 70.3428C80.2879 70.7582 79.2625 70.7497 78.3145 70.5018C76.3176 69.9797 74.6229 68.3742 73.7379 67.2539L70.7099 69.646ZM88.3175 69.6754C89.2619 68.5269 89.7082 68.1185 90.4793 67.9039C91.4099 67.6449 93.0433 67.6247 96.4699 68.2912L97.2067 64.5033C93.7266 63.8264 91.3134 63.6663 89.4447 64.1863C87.4164 64.7508 86.3106 66.0404 85.3369 67.2245L88.3175 69.6754ZM96.4699 68.2912C104.624 69.8773 109.12 64.2177 110.951 61.3787L107.708 59.2872C106.049 61.8595 102.866 65.6041 97.2067 64.5033L96.4699 68.2912Z" fill="#003474"/>
<rect id="Rectangle 81" x="0.0143506" y="1.42521" width="11.9231" height="28.2268" rx="5.96156" transform="matrix(0.708669 0.705541 -0.694319 0.719668 77.9039 81.4231)" fill="#003474" stroke="white" stroke-width="2"/>
<rect id="Rectangle 82" x="0.0143506" y="1.42521" width="10.7695" height="23.8123" rx="5.38476" transform="matrix(0.708669 0.705541 -0.694319 0.719668 84.1593 92.3543)" fill="#003474" stroke="white" stroke-width="2"/>
<rect id="Rectangle 84" x="0.0143506" y="1.42521" width="10.2648" height="23.0542" rx="5.13241" transform="matrix(0.708669 0.705541 -0.694319 0.719668 67.6522 77.4539)" fill="#003474" stroke="white" stroke-width="2"/>
<path id="Vector 118" d="M94.9328 120.501C98.0266 117.297 94.9385 114.224 94.4406 112.001L87.0575 120.001C88.7068 120.774 93.0322 122.469 94.9328 120.501Z" fill="#003474" stroke="white" stroke-width="2" stroke-linejoin="round"/>
<rect id="Rectangle 83" x="0.0143506" y="1.42521" width="10.1242" height="21.0233" rx="5.06211" transform="matrix(0.708669 0.705541 -0.694319 0.719668 90.7473 101.389)" fill="#003474" stroke="white" stroke-width="2"/>
</g>
</g>
<defs>
<filter id="filter0_d_1694_744" x="0.878948" y="0.299999" width="173.342" height="171.367" filterUnits="userSpaceOnUse" color-interpolation-filters="sRGB">
<feFlood flood-opacity="0" result="BackgroundImageFix"/>
<feColorMatrix in="SourceAlpha" type="matrix" values="0 0 0 0 0 0 0 0 0 0 0 0 0 0 0 0 0 0 127 0" result="hardAlpha"/>
<feMorphology radius="4" operator="dilate" in="SourceAlpha" result="effect1_dropShadow_1694_744"/>
<feOffset dy="-1"/>
<feGaussianBlur stdDeviation="8.85"/>
<feComposite in2="hardAlpha" operator="out"/>
<feColorMatrix type="matrix" values="0 0 0 0 0 0 0 0 0 0 0 0 0 0 0 0 0 0 0.03 0"/>
<feBlend mode="normal" in2="BackgroundImageFix" result="effect1_dropShadow_1694_744"/>
<feBlend mode="normal" in="SourceGraphic" in2="effect1_dropShadow_1694_744" result="shape"/>
</filter>
</defs>
</svg>
