<svg width="120" height="121" viewBox="0 0 120 121" fill="none" xmlns="http://www.w3.org/2000/svg">
<g id="Group 223">
<g id="Rectangle 54" filter="url(#filter0_d_1694_663)">
<rect x="15" y="16.2544" width="90" height="90" rx="45" fill="#6DAFFE" fill-opacity="0.36" shape-rendering="crispEdges"/>
</g>
<g id="Group 197">
<path id="Vector 104" d="M35.2815 48.0395C37.597 43.6931 44.5968 34.7185 54.0716 33.5908M66.7122 33.5908C70.8499 34.2173 80.2411 37.9842 84.7052 48.0395M35.2815 73.1778C39.7228 80.1085 42.2281 85.1596 54.0716 88.5662M66.7122 88.5662C71.3813 87.4699 79.6945 84.5723 84.7052 73.1778" stroke="#00256A" stroke-width="1.36981" stroke-linecap="round"/>
<g id="Vector 105">
<path d="M33.2316 51.4457C30.8402 54.3823 28.6765 54.2649 28.1071 54.3824L28.5626 67.8912C32.89 70.4755 39.1534 71.1803 40.1783 71.1803H49.858C52.8189 71.1803 52.4773 68.4021 51.2246 68.4021H43.9363C43.0253 68.4021 42.7975 66.9514 44.2779 66.9514H54.4132C56.9186 66.9514 56.5769 63.6623 54.8687 63.6623H44.9612C43.8224 63.6623 43.8224 62.4876 44.9612 62.4876H56.6908C59.5378 62.2527 59.0823 59.5509 56.6908 59.5509H44.9612C43.3669 59.1986 43.8224 57.4364 44.9612 57.4364H55.552C56.6908 57.4364 56.6908 54.9696 54.1855 54.9696H40.406L38.2423 56.7316C37.2174 57.9064 36.4203 57.4364 36.9897 56.7316L40.1783 52.8551L45.9861 52.5027C47.9221 52.5027 48.3776 49.4486 46.3278 49.2138H39.1534C38.2423 49.2136 35.4116 48.7688 33.2316 51.4457Z" fill="#00256A"/>
<path d="M28.1071 54.3824L27.969 53.7131L27.4046 53.8295L27.424 54.4054L28.1071 54.3824ZM33.2316 51.4457L32.7017 51.0141V51.0141L33.2316 51.4457ZM39.1534 49.2138L39.1533 49.8972H39.1534V49.2138ZM46.3278 49.2138L46.4056 48.5348L46.3668 48.5303H46.3278V49.2138ZM45.9861 52.5027V51.8193H45.9654L45.9447 51.8206L45.9861 52.5027ZM40.1783 52.8551L40.1369 52.173L39.8396 52.191L39.6505 52.421L40.1783 52.8551ZM36.9897 56.7316L36.4618 56.2974L36.458 56.3021L36.9897 56.7316ZM38.2423 56.7316L37.8108 56.2017L37.7656 56.2384L37.7273 56.2823L38.2423 56.7316ZM40.406 54.9696V54.2861C40.2488 54.2861 40.0964 54.3404 39.9745 54.4396L40.406 54.9696ZM44.9612 59.5509L44.8138 60.2182L44.8866 60.2343H44.9612V59.5509ZM56.6908 62.4876V63.171H56.7189L56.747 63.1687L56.6908 62.4876ZM28.5626 67.8912L27.8795 67.9142L27.8921 68.2868L28.2122 68.4779L28.5626 67.8912ZM28.2451 55.0517C28.3662 55.0268 29.2612 54.9844 30.2326 54.6086C31.2603 54.2111 32.4949 53.4326 33.7616 51.8772L32.7017 51.0141C31.5769 52.3953 30.5339 53.0265 29.7395 53.3338C28.8889 53.6628 28.4173 53.6206 27.969 53.7131L28.2451 55.0517ZM33.7616 51.8772C35.6981 49.4993 38.1439 49.8971 39.1533 49.8972L39.1535 48.5303C38.3408 48.5302 35.1252 48.0382 32.7017 51.0141L33.7616 51.8772ZM39.1534 49.8972H46.3278V48.5303H39.1534V49.8972ZM46.25 49.8928C46.5776 49.9303 46.7486 50.0662 46.8447 50.2088C46.9518 50.3676 47.0065 50.5984 46.9735 50.8611C46.905 51.4062 46.5226 51.8193 45.9861 51.8193V53.1862C47.3856 53.1862 48.1989 52.0723 48.3297 51.0315C48.3964 50.5013 48.3016 49.9246 47.9781 49.4447C47.6436 48.9486 47.1029 48.6147 46.4056 48.5348L46.25 49.8928ZM45.9447 51.8206L40.1369 52.173L40.2197 53.5373L46.0275 53.1849L45.9447 51.8206ZM39.6505 52.421L36.4618 56.2975L37.5175 57.1658L40.7061 53.2893L39.6505 52.421ZM36.458 56.3021C36.2574 56.5504 36.0885 56.8832 36.1201 57.2524C36.1367 57.4467 36.2105 57.6438 36.356 57.8066C36.5004 57.9681 36.6841 58.0611 36.8654 58.1026C37.2121 58.1821 37.5626 58.0832 37.8516 57.9316C38.154 57.773 38.4601 57.5216 38.7573 57.1809L37.7273 56.2823C37.5121 56.529 37.3343 56.6594 37.2167 56.7211C37.0858 56.7898 37.0804 56.7496 37.1709 56.7703C37.224 56.7825 37.3045 56.8167 37.3751 56.8956C37.4468 56.9758 37.4761 57.0665 37.482 57.1359C37.4922 57.2555 37.4372 57.2652 37.5213 57.1611L36.458 56.3021ZM38.6739 57.2616L40.8376 55.4995L39.9745 54.4396L37.8108 56.2017L38.6739 57.2616ZM40.406 55.653H54.1855V54.2861H40.406V55.653ZM54.1855 55.653C55.1845 55.653 55.5013 56.1134 55.5766 56.3854C55.6228 56.5521 55.5948 56.6784 55.5657 56.7342C55.5527 56.7589 55.5447 56.7612 55.5513 56.7569C55.5609 56.7507 55.566 56.753 55.552 56.753V58.1199C56.1228 58.1199 56.5534 57.7949 56.7768 57.3678C56.9896 56.961 57.0186 56.4706 56.8939 56.0206C56.6277 55.0592 55.6918 54.2861 54.1855 54.2861V55.653ZM55.552 56.753H44.9612V58.1199H55.552V56.753ZM44.9612 56.753C44.0002 56.753 43.3494 57.4996 43.2575 58.2818C43.21 58.686 43.3055 59.1196 43.585 59.4862C43.8649 59.8534 44.2896 60.1024 44.8138 60.2182L45.1087 58.8835C44.8357 58.8232 44.7194 58.7198 44.672 58.6575C44.624 58.5946 44.6056 58.5217 44.6151 58.4413C44.637 58.2543 44.7835 58.1199 44.9612 58.1199V56.753ZM44.9612 60.2343H56.6908V58.8674H44.9612V60.2343ZM56.6908 60.2343C57.6474 60.2343 57.9543 60.742 57.974 60.9862C57.9843 61.1133 57.9429 61.268 57.7727 61.4201C57.5934 61.5804 57.2442 61.7562 56.6346 61.8065L56.747 63.1687C57.5609 63.1016 58.2224 62.8515 58.6837 62.4392C59.1541 62.0187 59.3831 61.4538 59.3364 60.8761C59.2423 59.7106 58.1257 58.8674 56.6908 58.8674V60.2343ZM56.6908 61.8041H44.9612V63.171H56.6908V61.8041ZM44.9612 61.8041C44.1879 61.8041 43.4237 62.251 43.4237 63.0749C43.4237 63.8988 44.1879 64.3457 44.9612 64.3457V62.9788C44.7904 62.9788 44.7348 62.9351 44.7388 62.9382C44.7408 62.9397 44.7543 62.9511 44.7676 62.9767C44.781 63.0025 44.7906 63.0365 44.7906 63.0749C44.7906 63.1134 44.781 63.1473 44.7676 63.1732C44.7543 63.1988 44.7408 63.2102 44.7388 63.2117C44.7348 63.2148 44.7904 63.171 44.9612 63.171V61.8041ZM44.9612 64.3457H54.8687V62.9788H44.9612V64.3457ZM54.8687 64.3457C55.052 64.3457 55.2025 64.4258 55.3253 64.5883C55.4571 64.7627 55.5425 65.0208 55.5377 65.295C55.533 65.5655 55.4424 65.8026 55.2866 65.9662C55.1404 66.1197 54.881 66.268 54.4132 66.268V67.6348C55.1981 67.6348 55.8355 67.372 56.2765 66.9088C56.7079 66.4557 56.8948 65.8704 56.9044 65.3187C56.9139 64.7706 56.7501 64.2064 56.4157 63.7641C56.0724 63.3099 55.5395 62.9788 54.8687 62.9788V64.3457ZM54.4132 66.268H44.2779V67.6348H54.4132V66.268ZM44.2779 66.268C43.8008 66.268 43.374 66.3851 43.0489 66.6413C42.7163 66.9033 42.5422 67.2725 42.5274 67.65C42.4988 68.3775 43.0704 69.0856 43.9363 69.0856V67.7187C43.9145 67.7187 43.905 67.7147 43.903 67.7138C43.9004 67.7127 43.8991 67.7116 43.8979 67.7103C43.893 67.7051 43.8934 67.6999 43.8932 67.7036C43.8927 67.7184 43.8823 67.7248 43.8949 67.7149C43.9149 67.6991 44.0149 67.6348 44.2779 67.6348V66.268ZM43.9363 69.0856H51.2246V67.7187H43.9363V69.0856ZM51.2246 69.0856C51.2571 69.0856 51.3129 69.0964 51.3755 69.197C51.4426 69.3049 51.4842 69.4778 51.4493 69.6672C51.4166 69.8445 51.3167 70.035 51.0997 70.19C50.8782 70.3482 50.4936 70.4968 49.858 70.4968V71.8637C50.7029 71.8637 51.386 71.6651 51.894 71.3024C52.4065 70.9364 52.6981 70.4324 52.7935 69.9152C52.8867 69.41 52.7931 68.8884 52.5363 68.4754C52.2751 68.0551 51.8184 67.7187 51.2246 67.7187V69.0856ZM49.858 70.4968H40.1783V71.8637H49.858V70.4968ZM40.1783 70.4968C39.7345 70.4968 37.9661 70.3311 35.7579 69.8378C33.5552 69.3458 30.9875 68.5432 28.913 67.3044L28.2122 68.4779C30.4651 69.8234 33.1928 70.6654 35.4599 71.1718C37.7214 71.677 39.5971 71.8637 40.1783 71.8637V70.4968ZM29.2456 67.8681L28.7901 54.3594L27.424 54.4054L27.8795 67.9142L29.2456 67.8681Z" fill="white"/>
</g>
<g id="Vector 106">
<path d="M87.0646 51.4833C89.4179 54.4318 91.5471 54.314 92.1074 54.432L91.6592 67.9959C87.4008 70.5908 81.2374 71.2985 80.2289 71.2985H70.7036C67.79 71.2985 68.1262 68.509 69.3589 68.509H76.5309C77.4273 68.509 77.6515 67.0523 76.1947 67.0523H66.2212C63.7558 67.0523 64.092 63.7498 65.7729 63.7498H75.5223C76.6429 63.7498 76.6429 62.5703 75.5223 62.5703H63.9799C61.1784 62.3345 61.6266 59.6216 63.9799 59.6216H75.5223C77.0912 59.2678 76.6429 57.4985 75.5223 57.4985H65.1006C63.9799 57.4985 63.9799 55.0216 66.4453 55.0216H80.0048L82.1339 56.7908C83.1425 57.9704 83.9269 57.4985 83.3666 56.7908L80.2289 52.8985L74.5137 52.5446C72.6087 52.5446 72.1604 49.4781 74.1776 49.2422H81.2374C82.1339 49.2421 84.9195 48.7954 87.0646 51.4833Z" fill="#00256A"/>
<path d="M92.1074 54.432L92.2482 53.7632L92.8094 53.8813L92.7905 54.4545L92.1074 54.432ZM87.0646 51.4833L87.5988 51.0569V51.0569L87.0646 51.4833ZM81.2374 49.2422L81.2375 49.9257H81.2374V49.2422ZM74.1776 49.2422L74.0982 48.5634L74.1377 48.5588H74.1776V49.2422ZM74.5137 52.5446V51.8612H74.5349L74.556 51.8625L74.5137 52.5446ZM80.2289 52.8985L80.2711 52.2163L80.5719 52.235L80.761 52.4696L80.2289 52.8985ZM83.3666 56.7908L83.8987 56.3618L83.9024 56.3666L83.3666 56.7908ZM82.1339 56.7908L82.5707 56.2651L82.6155 56.3024L82.6534 56.3466L82.1339 56.7908ZM80.0048 55.0216V54.3381C80.1643 54.3381 80.3188 54.3939 80.4416 54.4959L80.0048 55.0216ZM75.5223 59.6216L75.6726 60.2883L75.5984 60.305H75.5223V59.6216ZM63.9799 62.5703V63.2537H63.9512L63.9226 63.2513L63.9799 62.5703ZM91.6592 67.9959L92.3422 68.0185L92.3301 68.3875L92.0148 68.5795L91.6592 67.9959ZM91.9666 55.1008C91.853 55.0768 90.9652 55.0329 90.0075 54.6548C88.9929 54.2544 87.7768 53.4712 86.5305 51.9096L87.5988 51.0569C88.7058 52.4439 89.7309 53.0761 90.5093 53.3834C91.3446 53.7131 91.8016 53.6692 92.2482 53.7632L91.9666 55.1008ZM86.5305 51.9096C84.6283 49.5263 82.2314 49.9255 81.2375 49.9257L81.2373 48.5588C82.0365 48.5587 85.2106 48.0646 87.5988 51.0569L86.5305 51.9096ZM81.2374 49.9257H74.1776V48.5588H81.2374V49.9257ZM74.2569 49.921C73.9422 49.9578 73.7765 50.0906 73.6814 50.2345C73.575 50.3956 73.5202 50.6308 73.5532 50.8983C73.622 51.4576 74.0032 51.8612 74.5137 51.8612V53.2281C73.1192 53.2281 72.3237 52.0984 72.1965 51.0654C72.1314 50.5368 72.2237 49.9612 72.541 49.481C72.8697 48.9835 73.4043 48.6445 74.0982 48.5634L74.2569 49.921ZM74.556 51.8625L80.2711 52.2163L80.1867 53.5806L74.4715 53.2268L74.556 51.8625ZM80.761 52.4696L83.8987 56.3619L82.8345 57.2197L79.6968 53.3274L80.761 52.4696ZM83.9024 56.3666C84.1004 56.6166 84.2638 56.9477 84.2333 57.3123C84.2172 57.5037 84.146 57.6998 84.0028 57.8632C83.8602 58.026 83.6771 58.1212 83.4943 58.164C83.1452 58.2457 82.7942 58.1435 82.5083 57.9905C82.2088 57.8302 81.9069 57.5769 81.6145 57.2349L82.6534 56.3466C82.8653 56.5945 83.0396 56.7245 83.1533 56.7854C83.2806 56.8535 83.2799 56.8104 83.1829 56.833C83.1262 56.8463 83.0446 56.8826 82.9747 56.9624C82.9042 57.0429 82.8767 57.1321 82.8712 57.1981C82.8616 57.3121 82.913 57.3188 82.8308 57.215L83.9024 56.3666ZM81.6971 57.3164L79.568 55.5472L80.4416 54.4959L82.5707 56.2651L81.6971 57.3164ZM80.0048 55.705H66.4453V54.3381H80.0048V55.705ZM66.4453 55.705C65.4758 55.705 65.1638 56.1591 65.0878 56.4391C65.0414 56.6098 65.0692 56.7409 65.0994 56.7996C65.1128 56.8258 65.1208 56.8275 65.1124 56.822C65.1008 56.8143 65.0918 56.815 65.1006 56.815V58.1819C64.527 58.1819 64.1012 57.8487 63.8831 57.4233C63.6751 57.0176 63.6469 56.5295 63.7686 56.081C64.0288 55.1225 64.9494 54.3381 66.4453 54.3381V55.705ZM65.1006 56.815H75.5223V58.1819H65.1006V56.815ZM75.5223 56.815C76.4853 56.815 77.1207 57.5758 77.2098 58.3492C77.256 58.7504 77.1636 59.1825 76.8893 59.5496C76.6136 59.9186 76.1935 60.1708 75.6726 60.2883L75.372 58.9549C75.6356 58.8954 75.7477 58.7939 75.7942 58.7315C75.8421 58.6675 75.8617 58.5909 75.8519 58.5056C75.8289 58.3059 75.6799 58.1819 75.5223 58.1819V56.815ZM75.5223 60.305H63.9799V58.9381H75.5223V60.305ZM63.9799 60.305C63.0549 60.305 62.7485 60.8049 62.7282 61.0614C62.7176 61.1956 62.7614 61.3535 62.9277 61.5051C63.1022 61.6643 63.4419 61.8391 64.0373 61.8892L63.9226 63.2513C63.1172 63.1835 62.4624 62.9308 62.0065 62.515C61.5425 62.0917 61.3202 61.5271 61.3656 60.9535C61.4573 59.7946 62.5517 58.9381 63.9799 58.9381V60.305ZM63.9799 61.8868H75.5223V63.2537H63.9799V61.8868ZM75.5223 61.8868C76.3006 61.8868 77.0462 62.3459 77.0462 63.16C77.0462 63.9741 76.3006 64.4332 75.5223 64.4332V63.0663C75.6856 63.0663 75.7357 63.0239 75.7292 63.029C75.7262 63.0314 75.7131 63.043 75.7006 63.0677C75.6881 63.0924 75.6793 63.1243 75.6793 63.16C75.6793 63.1958 75.6881 63.2277 75.7006 63.2524C75.7131 63.2771 75.7262 63.2887 75.7292 63.291C75.7357 63.2962 75.6856 63.2537 75.5223 63.2537V61.8868ZM75.5223 64.4332H65.7729V63.0663H75.5223V64.4332ZM65.7729 64.4332C65.6023 64.4332 65.4578 64.5086 65.3363 64.6726C65.206 64.8485 65.1208 65.1103 65.1255 65.3895C65.1302 65.6654 65.221 65.9057 65.3744 66.07C65.517 66.2229 65.7678 66.3689 66.2212 66.3689V67.7358C65.4419 67.7358 64.8102 67.469 64.375 67.0026C63.9505 66.5477 63.7682 65.9624 63.7589 65.4126C63.7496 64.8662 63.9095 64.3023 64.238 63.859C64.5752 63.4038 65.1031 63.0663 65.7729 63.0663V64.4332ZM66.2212 66.3689H76.1947V67.7358H66.2212V66.3689ZM76.1947 66.3689C76.6689 66.3689 77.0934 66.4879 77.4161 66.7473C77.7451 67.0119 77.9138 67.3811 77.9282 67.7544C77.9557 68.4692 77.4027 69.1924 76.5309 69.1924V67.8255C76.5404 67.8255 76.5465 67.8246 76.5496 67.8239C76.5528 67.8232 76.5543 67.8226 76.5546 67.8225C76.5548 67.8224 76.555 67.8224 76.556 67.8213C76.5574 67.8198 76.5594 67.8168 76.5609 67.8128C76.5624 67.8087 76.5623 67.8064 76.5623 67.8069C76.5627 67.816 76.5703 67.8211 76.5596 67.8126C76.5426 67.7989 76.4489 67.7358 76.1947 67.7358V66.3689ZM76.5309 69.1924H69.3589V67.8255H76.5309V69.1924ZM69.3589 69.1924C69.338 69.1924 69.2859 69.197 69.2229 69.3004C69.1559 69.4105 69.1138 69.5878 69.149 69.7822C69.1819 69.9646 69.2821 70.1562 69.4935 70.3102C69.7086 70.467 70.0826 70.6151 70.7036 70.6151V71.9819C69.8679 71.9819 69.1913 71.7813 68.6886 71.415C68.1821 71.046 67.897 70.5402 67.8039 70.0253C67.7129 69.5223 67.804 69.0022 68.0556 68.5892C68.3113 68.1697 68.7634 67.8255 69.3589 67.8255V69.1924ZM70.7036 70.6151H80.2289V71.9819H70.7036V70.6151ZM80.2289 70.6151C80.6631 70.6151 82.4013 70.449 84.5735 69.9539C86.7397 69.4602 89.2642 68.655 91.3035 67.4123L92.0148 68.5795C89.7958 69.9317 87.1095 70.7778 84.8772 71.2866C82.651 71.7941 80.8033 71.9819 80.2289 71.9819V70.6151ZM90.9761 67.9734L91.4244 54.4094L92.7905 54.4545L92.3422 68.0185L90.9761 67.9734Z" fill="white"/>
</g>
<path id="Ellipse 59" d="M64.7761 32.8856C64.7761 35.318 62.8699 37.2533 60.5627 37.2533C58.2556 37.2533 56.3493 35.318 56.3493 32.8856C56.3493 30.4533 58.2556 28.5179 60.5627 28.5179C62.8699 28.5179 64.7761 30.4533 64.7761 32.8856Z" stroke="#00256A" stroke-width="1.36688"/>
<path id="Ellipse 60" d="M64.7761 89.2709C64.7761 91.7033 62.8699 93.6386 60.5627 93.6386C58.2556 93.6386 56.3493 91.7033 56.3493 89.2709C56.3493 86.8385 58.2556 84.9032 60.5627 84.9032C62.8699 84.9032 64.7761 86.8385 64.7761 89.2709Z" stroke="#00256A" stroke-width="1.36688"/>
<path id="Ellipse 62" d="M62.9541 75.6438C62.9541 77.0382 61.8636 78.132 60.5628 78.132C59.2619 78.132 58.1715 77.0382 58.1715 75.6438C58.1715 74.2495 59.2619 73.1556 60.5628 73.1556C61.8636 73.1556 62.9541 74.2495 62.9541 75.6438Z" stroke="#00256A" stroke-width="1.36688"/>
<path id="Ellipse 63" d="M62.9541 46.9812C62.9541 48.3756 61.8636 49.4694 60.5628 49.4694C59.2619 49.4694 58.1715 48.3756 58.1715 46.9812C58.1715 45.5869 59.2619 44.493 60.5628 44.493C61.8636 44.493 62.9541 45.5869 62.9541 46.9812Z" stroke="#00256A" stroke-width="1.36688"/>
</g>
</g>
<defs>
<filter id="filter0_d_1694_663" x="0.169316" y="0.740269" width="119.661" height="119.661" filterUnits="userSpaceOnUse" color-interpolation-filters="sRGB">
<feFlood flood-opacity="0" result="BackgroundImageFix"/>
<feColorMatrix in="SourceAlpha" type="matrix" values="0 0 0 0 0 0 0 0 0 0 0 0 0 0 0 0 0 0 127 0" result="hardAlpha"/>
<feMorphology radius="2.73377" operator="dilate" in="SourceAlpha" result="effect1_dropShadow_1694_663"/>
<feOffset dy="-0.683442"/>
<feGaussianBlur stdDeviation="6.04846"/>
<feComposite in2="hardAlpha" operator="out"/>
<feColorMatrix type="matrix" values="0 0 0 0 0 0 0 0 0 0 0 0 0 0 0 0 0 0 0.03 0"/>
<feBlend mode="normal" in2="BackgroundImageFix" result="effect1_dropShadow_1694_663"/>
<feBlend mode="normal" in="SourceGraphic" in2="effect1_dropShadow_1694_663" result="shape"/>
</filter>
</defs>
</svg>
