<svg width="443" height="433" viewBox="0 0 443 433" fill="none" xmlns="http://www.w3.org/2000/svg">
<g filter="url(#filter0_d_680_3214)">
<rect x="55" y="58" width="332.749" height="322.582" rx="161.291" fill="#6DAFFE" fill-opacity="0.36" shape-rendering="crispEdges"/>
</g>
<circle cx="219.669" cy="221.174" r="87.762" stroke="#003474" stroke-width="5.48298"/>
<path d="M202.489 115.123L221.489 97.9321C223.518 96.0963 226.673 96.3434 228.392 98.4728L241.188 114.329C242.543 116.008 244.858 116.567 246.83 115.691L263.961 108.077C266.434 106.977 269.325 108.157 270.323 110.672L278.417 131.07L290.723 122.734V139.405H314.142L319.303 164.413L334.055 174.034C336.061 175.342 336.784 177.936 335.744 180.093L328.147 195.848C327.351 197.5 327.573 199.461 328.718 200.893L342.237 217.79C343.483 219.348 343.626 221.517 342.597 223.225L327.914 247.584C327.232 248.716 327.051 250.081 327.414 251.352L332.841 270.347C333.498 272.647 332.348 275.077 330.153 276.027L310.266 284.635C308.523 285.39 307.394 287.108 307.394 289.007V311.283C307.394 313.913 305.262 316.046 302.631 316.046H281.613C279.68 316.046 277.938 317.214 277.205 319.003L270.293 335.869C269.298 338.296 266.527 339.462 264.096 338.477L241.899 329.478C240.201 328.789 238.257 329.137 236.902 330.371L220.592 345.224C218.579 347.058 215.44 346.833 213.708 344.731L202.555 331.188C201.179 329.517 198.848 328.984 196.882 329.891L178.836 338.22C176.411 339.34 173.54 338.247 172.473 335.799L162.168 312.158C161.411 310.421 159.696 309.298 157.802 309.298H136.044C133.687 309.298 131.685 307.575 131.334 305.244L127.953 282.808C127.718 281.252 126.731 279.912 125.314 279.228L108.362 271.044C106.19 269.996 105.145 267.489 105.928 265.208L112.769 245.279C113.334 243.634 112.957 241.812 111.786 240.525L96.3883 223.619C94.7218 221.789 94.7344 218.987 96.4172 217.172L111.727 200.662C112.931 199.364 113.315 197.504 112.724 195.835L105.885 176.507C105.116 174.332 106.015 171.918 108.02 170.778L125.573 160.79C126.84 160.07 127.707 158.81 127.927 157.37L131.327 135.114C131.682 132.788 133.683 131.07 136.035 131.07H158.08C159.83 131.07 161.44 130.109 162.271 128.569L172.347 109.9C173.519 107.728 176.156 106.811 178.423 107.787L197.408 115.966C199.121 116.703 201.106 116.374 202.489 115.123Z" stroke="#003474" stroke-width="5.48298" stroke-linejoin="round"/>
<path d="M345.538 150.915C345.538 171.675 329.575 188.265 310.173 188.265C290.771 188.265 274.808 171.675 274.808 150.915C274.808 130.154 290.771 113.565 310.173 113.565C329.575 113.565 345.538 130.154 345.538 150.915Z" fill="#003474" stroke="white" stroke-width="5.48298"/>
<path d="M166.082 212.842H193.868C201.939 208.343 218.796 195.059 221.654 177.911C222.845 173.412 227.211 164.891 235.15 166.796C245.074 169.178 243.883 181.483 243.089 183.468C242.454 185.055 239.649 200.272 238.326 207.681H264.127C268.758 207.284 277.782 208.713 276.829 217.605C276.565 220.251 271.352 226.02 257.379 226.338C264.656 226.602 275.686 227.5 274.051 237.055C273.312 241.375 270.22 243.278 266.74 243.932C271.83 245.117 275.714 247.786 274.051 253.727C273.088 257.167 264.634 260.193 258.937 260.553C266.534 261.306 276.161 266.306 270.875 273.574C267.868 277.71 256.599 281.062 224.119 278.437C220.415 278.138 216.844 276.91 213.525 275.237C208.604 272.757 201.403 269.615 193.868 267.62H164.097L166.082 212.842Z" fill="#00256A"/>
<path d="M193.868 212.842H166.082L164.097 267.62M193.868 212.842C201.939 208.343 218.796 195.059 221.654 177.911C222.845 173.412 227.211 164.891 235.15 166.796C245.074 169.178 243.883 181.483 243.089 183.468C242.454 185.055 239.649 200.272 238.326 207.681H264.127C268.758 207.284 277.782 208.713 276.829 217.605C276.565 220.251 271.352 226.02 257.379 226.338C264.656 226.602 275.686 227.5 274.051 237.055C272.463 246.332 260.025 244.465 256.188 243.009C264.127 243.009 276.829 243.803 274.051 253.727C272.914 257.786 261.349 261.269 256.188 260.475C263.863 260.078 276.829 265.387 270.875 273.574C267.868 277.71 256.599 281.062 224.119 278.437C220.415 278.138 216.844 276.91 213.525 275.237C208.604 272.757 201.403 269.615 193.868 267.62M193.868 212.842V267.62M193.868 267.62C189.422 267.62 172.168 267.62 164.097 267.62M193.868 267.62H164.097" stroke="white" stroke-width="5.48298" stroke-linejoin="round"/>
<circle cx="179.578" cy="252.534" r="7.54195" fill="white"/>
<path d="M288.738 155.679L302.631 166.397L332.402 135.435" stroke="white" stroke-width="5.48298" stroke-linecap="round" stroke-linejoin="round"/>
<defs>
<filter id="filter0_d_680_3214" x="0.298022" y="0.777194" width="442.153" height="431.986" filterUnits="userSpaceOnUse" color-interpolation-filters="sRGB">
<feFlood flood-opacity="0" result="BackgroundImageFix"/>
<feColorMatrix in="SourceAlpha" type="matrix" values="0 0 0 0 0 0 0 0 0 0 0 0 0 0 0 0 0 0 127 0" result="hardAlpha"/>
<feMorphology radius="10.0833" operator="dilate" in="SourceAlpha" result="effect1_dropShadow_680_3214"/>
<feOffset dy="-2.52083"/>
<feGaussianBlur stdDeviation="22.3093"/>
<feComposite in2="hardAlpha" operator="out"/>
<feColorMatrix type="matrix" values="0 0 0 0 0 0 0 0 0 0 0 0 0 0 0 0 0 0 0.08 0"/>
<feBlend mode="normal" in2="BackgroundImageFix" result="effect1_dropShadow_680_3214"/>
<feBlend mode="normal" in="SourceGraphic" in2="effect1_dropShadow_680_3214" result="shape"/>
</filter>
</defs>
</svg>
