<svg width="124" height="125" viewBox="0 0 124 125" fill="none" xmlns="http://www.w3.org/2000/svg">
<g id="Group 204">
<g id="Group 200">
<g id="Rectangle 59" filter="url(#filter0_d_1694_706)">
<rect x="17" y="18.2798" width="90" height="90.2387" rx="45" fill="#6DAFFE" fill-opacity="0.36" shape-rendering="crispEdges"/>
</g>
</g>
<g id="Group 201">
<path id="Vector 113" d="M60.6137 61.6899C58.7016 63.7621 54.5247 66.2832 52.8459 67.3695C53.3012 68.233 54.6214 70.0936 56.2604 70.6284C58.309 71.2969 63.772 69.4586 65.5646 67.9545C66.9986 66.7512 69.2351 67.4531 70.174 67.9545L81.4416 74.6393L85.3681 73.0516L79.7344 58.6794C78.767 59.1529 76.4395 60.15 74.8688 60.3506C72.9056 60.6012 71.7959 59.6839 68.7229 58.6811C65.65 57.6784 63.0038 59.0995 60.6137 61.6899Z" stroke="#003474" stroke-width="1.93646" stroke-linejoin="round"/>
<path id="Vector 108" d="M61.7552 34.4722L53.2786 38.7662V48.696C53.6246 53.5625 59.0738 57.3436 61.7552 58.6258C62.9661 58.0891 64.2635 57.9102 66.2529 56.8367C70.2317 54.6897 71.5868 48.9942 71.7021 45.9228V38.7662L61.7552 34.4722Z" stroke="#003474" stroke-width="1.93646" stroke-linejoin="round"/>
<path id="Vector 109" d="M61.1496 47.0849L58.0357 44.3117C54.9219 42.7911 54.5759 46.1905 55.9599 47.0849L60.3094 51.5084C60.7692 51.976 61.5245 51.9707 61.9777 51.4967L68.8476 44.3117C70.5775 41.7174 67.9827 40.1075 66.3393 41.7175L61.1496 47.0849Z" fill="#003474" stroke="white" stroke-width="1.52646" stroke-linejoin="round"/>
<path id="Vector 110" d="M48.7809 50.4851C48.8647 53.3478 51.3469 56.6577 52.5867 58.268L53.4516 59.252C54.6238 58.7132 56.2455 58.3962 57.0332 58.2862C57.1244 58.2734 57.2177 58.2787 57.307 58.3011C59.6317 58.8828 60.6307 59.9677 60.6307 59.9677C63.4678 57.5344 67.5503 58.268 69.8856 59.252C73.2763 56.4609 75.5079 50.4851 75.5079 47.8908L75.1619 36.0824L61.7552 30.2676L48.7809 36.4402C48.7521 40.1378 48.7118 48.1234 48.7809 50.4851Z" stroke="#003474" stroke-width="1.93646" stroke-linejoin="round"/>
<path id="Vector 111" d="M49.2936 58.9092L49.7558 58.0584C49.7429 58.0514 49.7299 58.0447 49.7168 58.0383L49.2936 58.9092ZM55.684 58.9092L55.2883 58.0255V58.0255L55.684 58.9092ZM61.3835 60.0822L62.2358 60.5418C62.4399 60.1631 62.3698 59.6952 62.0636 59.393L61.3835 60.0822ZM52.9323 67.0343L52.6624 66.1045C52.304 66.2085 52.0373 66.5093 51.9768 66.8776L52.9323 67.0343ZM57.776 70.881L57.9741 71.8288L57.776 70.881ZM64.9551 68.5641L65.3378 69.4535C65.3547 69.4462 65.3714 69.4385 65.3879 69.4302L64.9551 68.5641ZM69.2799 68.1078L69.736 67.2538C69.712 67.241 69.6875 67.2292 69.6625 67.2184L69.2799 68.1078ZM79.8323 73.7437L80.4446 72.9936C80.396 72.954 80.3437 72.9192 80.2884 72.8896L79.8323 73.7437ZM69.9895 74.6761C69.5278 74.4063 68.9348 74.562 68.6651 75.0237C68.3953 75.4854 68.551 76.0784 69.0127 76.3481L69.9895 74.6761ZM64.9016 78.7408C64.4421 78.4671 63.8479 78.6177 63.5742 79.0771C63.3005 79.5365 63.4511 80.1308 63.9105 80.4044L64.9016 78.7408ZM70.192 89.5885L69.6559 90.3948C69.77 90.4707 69.8991 90.5215 70.0344 90.5438L70.192 89.5885ZM45.157 57.9753L48.8703 59.78L49.7168 58.0383L46.0034 56.2337L45.157 57.9753ZM48.8313 59.7599C51.3373 61.1215 53.8841 60.7761 56.0797 59.7928L55.2883 58.0255C53.4478 58.8497 51.5677 59.0428 49.7558 58.0584L48.8313 59.7599ZM56.0797 59.7928C57.983 58.9405 59.8126 59.8922 60.7035 60.7714L62.0636 59.393C60.8819 58.2269 58.2209 56.7122 55.2883 58.0255L56.0797 59.7928ZM60.5313 59.6226C59.6519 61.2535 57.9885 62.7981 56.3204 64.0041C55.4976 64.599 54.6977 65.0942 54.0339 65.46C53.3494 65.8371 52.8658 66.0455 52.6624 66.1045L53.2022 67.9642C53.6206 67.8428 54.2587 67.5471 54.9685 67.156C55.699 66.7535 56.5659 66.2161 57.455 65.5734C59.2106 64.3041 61.1511 62.5531 62.2358 60.5418L60.5313 59.6226ZM51.9768 66.8776C51.9151 67.2541 52.0096 67.6083 52.1082 67.8653C52.2139 68.1406 52.3682 68.4157 52.5424 68.6753C52.8917 69.1961 53.3805 69.7423 53.9274 70.2273C54.4737 70.7118 55.1129 71.166 55.7766 71.475C56.4233 71.776 57.203 71.9899 57.9741 71.8288L57.578 69.9333C57.3895 69.9727 57.0624 69.9376 56.594 69.7195C56.1426 69.5093 55.6584 69.1741 55.2121 68.7784C54.7664 68.3831 54.3932 67.9583 54.1504 67.5965C54.0286 67.4148 53.9542 67.2707 53.916 67.1713C53.8709 67.0536 53.9063 67.0778 53.8877 67.1911L51.9768 66.8776ZM57.9741 71.8288C59.1649 71.5799 61.7361 71.0031 65.3378 69.4535L64.5725 67.6747C61.1274 69.157 58.69 69.7009 57.578 69.9333L57.9741 71.8288ZM65.3879 69.4302C66.3158 68.9666 66.9783 68.7798 67.4967 68.7396C67.9954 68.701 68.4224 68.793 68.8972 68.9972L69.6625 67.2184C68.9629 66.9174 68.2207 66.7412 67.3471 66.8089C66.4933 66.8751 65.5807 67.1691 64.5223 67.698L65.3879 69.4302ZM68.8237 68.9619L79.3762 74.5977L80.2884 72.8896L69.736 67.2538L68.8237 68.9619ZM79.22 74.4937C79.2761 74.5396 79.3948 74.6818 79.5204 74.9845C79.6397 75.2721 79.7373 75.6378 79.7969 76.0433C79.92 76.8803 79.858 77.7136 79.6554 78.2214L81.4542 78.9387C81.8274 78.0028 81.8646 76.7938 81.7128 75.7616C81.635 75.2324 81.5016 74.7068 81.3091 74.2426C81.1229 73.7936 80.849 73.3238 80.4446 72.9936L79.22 74.4937ZM79.6554 78.2214C79.5663 78.4449 79.3432 78.8003 79.0102 79.0449C78.7109 79.2646 78.3197 79.4035 77.7678 79.2651L77.2968 81.1434C78.4721 81.4381 79.4482 81.1258 80.1564 80.6056C80.8309 80.1103 81.2554 79.437 81.4542 78.9387L79.6554 78.2214ZM78.0207 79.3682L69.9895 74.6761L69.0127 76.3481L77.0439 81.0402L78.0207 79.3682ZM76.7635 80.7928C77.1657 81.3182 77.233 82.3459 76.7307 83.1977C76.4963 83.5952 76.157 83.9123 75.7187 84.0926C75.284 84.2715 74.6855 84.343 73.8859 84.1387L73.4066 86.0149C74.55 86.307 75.5815 86.2431 76.4556 85.8834C77.3263 85.5251 77.9746 84.9005 78.3987 84.1813C79.2134 82.7998 79.2806 80.895 78.3011 79.6156L76.7635 80.7928ZM74.1418 84.245L64.9016 78.7408L63.9105 80.4044L73.1507 85.9087L74.1418 84.245ZM72.8696 85.655C73.2463 86.1611 73.3464 87.0527 72.9899 87.7392C72.8243 88.058 72.5621 88.3284 72.1726 88.5C71.7774 88.6741 71.191 88.772 70.3496 88.6332L70.0344 90.5438C71.1619 90.7298 72.1429 90.6292 72.9534 90.2721C73.7697 89.9124 74.3516 89.3189 74.7085 88.6316C75.3969 87.3059 75.2552 85.6167 74.4229 84.4987L72.8696 85.655ZM70.7281 88.7822L63.1286 83.7292L62.0564 85.3417L69.6559 90.3948L70.7281 88.7822Z" fill="#003474"/>
<rect id="Rectangle 79" x="0.549095" y="1.42259" width="7.05344" height="24.7217" rx="1.2587" transform="matrix(0.909173 0.416419 -0.393618 0.919274 40.4518 48.7124)" stroke="#003474" stroke-width="2.13011"/>
<rect id="Rectangle 75" x="0.366102" y="1.48401" width="4.70168" height="11.5956" rx="2.35084" transform="matrix(0.848086 0.529859 -0.504346 0.863502 51.9229 77.1145)" stroke="#003474" stroke-width="2.13011"/>
<rect id="Rectangle 76" x="0.366102" y="1.48401" width="4.70168" height="10.2681" rx="2.35084" transform="matrix(0.848086 0.529859 -0.504346 0.863502 56.9459 79.826)" stroke="#003474" stroke-width="2.13011"/>
<rect id="Rectangle 77" x="0.394985" y="1.47609" width="4.69767" height="9.679" rx="2.34883" transform="matrix(0.858468 0.512868 -0.487609 0.873062 61.8575 82.727)" stroke="#003474" stroke-width="2.13011"/>
<rect id="Rectangle 80" x="1.24159" y="0.53878" width="7.33977" height="25.001" rx="1.35553" transform="matrix(0.925866 -0.377853 0.35646 0.93431 76.8308 53.4513)" stroke="#003474" stroke-width="1.93646"/>
<rect id="Rectangle 78" x="1.44065" y="-0.354327" width="4.80941" height="5.0407" rx="2.40471" transform="matrix(0.504946 -0.863151 0.847706 0.530467 62.6473 93.1899)" stroke="#003474" stroke-width="2.13011"/>
<ellipse id="Ellipse 67" cx="42.207" cy="55.3154" rx="1.29743" ry="1.25241" fill="#003474"/>
<path id="Vector 112" d="M39.6121 72.8506L42.0339 74.0135C42.4952 74.9379 43.5735 77.6992 43.5043 79.2021" stroke="#003474" stroke-width="1.93646" stroke-linejoin="round"/>
<rect id="Rectangle 74" x="0.366102" y="1.48401" width="4.70168" height="9.89473" rx="2.35084" transform="matrix(0.848086 0.529859 -0.504346 0.863502 46.9471 73.5061)" stroke="#003474" stroke-width="2.13011"/>
<ellipse id="Ellipse 68" cx="83.0326" cy="56.6583" rx="1.29743" ry="1.34187" fill="#003474"/>
</g>
</g>
<defs>
<filter id="filter0_d_1694_706" x="0.437882" y="0.954436" width="123.124" height="123.363" filterUnits="userSpaceOnUse" color-interpolation-filters="sRGB">
<feFlood flood-opacity="0" result="BackgroundImageFix"/>
<feColorMatrix in="SourceAlpha" type="matrix" values="0 0 0 0 0 0 0 0 0 0 0 0 0 0 0 0 0 0 127 0" result="hardAlpha"/>
<feMorphology radius="3.05292" operator="dilate" in="SourceAlpha" result="effect1_dropShadow_1694_706"/>
<feOffset dy="-0.763231"/>
<feGaussianBlur stdDeviation="6.7546"/>
<feComposite in2="hardAlpha" operator="out"/>
<feColorMatrix type="matrix" values="0 0 0 0 0 0 0 0 0 0 0 0 0 0 0 0 0 0 0.03 0"/>
<feBlend mode="normal" in2="BackgroundImageFix" result="effect1_dropShadow_1694_706"/>
<feBlend mode="normal" in="SourceGraphic" in2="effect1_dropShadow_1694_706" result="shape"/>
</filter>
</defs>
</svg>
