<?xml version="1.0" encoding="UTF-8"?> <svg xmlns="http://www.w3.org/2000/svg" xmlns:xlink="http://www.w3.org/1999/xlink" id="DESIGNED_BY_FREEPIK" data-name="DESIGNED BY FREEPIK" viewBox="0 0 326.75 311.23"><defs><style> .cls-1 { fill: #fff; } .cls-1, .cls-2, .cls-3, .cls-4, .cls-5, .cls-6, .cls-7, .cls-8, .cls-9, .cls-10, .cls-11, .cls-12, .cls-13, .cls-14, .cls-15, .cls-16, .cls-17, .cls-18, .cls-19, .cls-20, .cls-21, .cls-22, .cls-23, .cls-24, .cls-25, .cls-26, .cls-27, .cls-28, .cls-29, .cls-30, .cls-31, .cls-32, .cls-33, .cls-34, .cls-35, .cls-36, .cls-37, .cls-38, .cls-39, .cls-40, .cls-41, .cls-42, .cls-43, .cls-44, .cls-45 { stroke-width: 0px; } .cls-1, .cls-46 { opacity: .2; } .cls-2, .cls-31 { fill: aqua; } .cls-3 { fill: #003051; } .cls-4 { fill: url(#linear-gradient-34); } .cls-4, .cls-26, .cls-31, .cls-47 { opacity: .4; } .cls-5 { fill: url(#linear-gradient-33); } .cls-6 { fill: url(#linear-gradient-30); } .cls-7 { fill: url(#linear-gradient-31); } .cls-8 { fill: url(#linear-gradient-25); } .cls-9 { fill: url(#linear-gradient-11); } .cls-10 { fill: url(#linear-gradient-12); } .cls-11 { fill: url(#linear-gradient-13); } .cls-12 { fill: url(#linear-gradient-10); } .cls-13 { fill: url(#linear-gradient-17); } .cls-14 { fill: url(#linear-gradient-16); } .cls-15 { fill: url(#linear-gradient-19); } .cls-16 { fill: url(#linear-gradient-15); } .cls-17 { fill: url(#linear-gradient-23); } .cls-18 { fill: url(#linear-gradient-21); } .cls-19 { fill: url(#linear-gradient-18); } .cls-20 { fill: url(#linear-gradient-14); } .cls-21 { fill: url(#linear-gradient-22); } .cls-22 { fill: url(#linear-gradient-20); } .cls-23 { fill: url(#linear-gradient-27); } .cls-24 { fill: url(#linear-gradient-24); } .cls-25 { fill: url(#linear-gradient-26); } .cls-26 { fill: url(#linear-gradient); } .cls-48 { fill: none; stroke: #fff; stroke-miterlimit: 10; } .cls-27 { fill: #1e00bf; } .cls-28 { fill: url(#linear-gradient-28); } .cls-28, .cls-29, .cls-30, .cls-49 { opacity: .8; } .cls-29 { fill: url(#linear-gradient-29); } .cls-30 { fill: url(#linear-gradient-32); } .cls-32 { fill: #17008f; } .cls-50 { opacity: .5; } .cls-33 { fill: #5045ba; } .cls-34 { fill: url(#linear-gradient-4); } .cls-35 { fill: url(#linear-gradient-2); } .cls-36 { fill: url(#linear-gradient-3); } .cls-37 { fill: url(#linear-gradient-8); } .cls-38 { fill: url(#linear-gradient-9); } .cls-39 { fill: url(#linear-gradient-7); } .cls-40 { fill: url(#linear-gradient-5); } .cls-41 { fill: url(#linear-gradient-6); } .cls-51 { isolation: isolate; } .cls-42 { fill: #ccc; } .cls-43 { fill: #0a003f; } .cls-44 { fill: #e6e6e6; } .cls-45 { fill: #3a2f86; } </style><linearGradient id="linear-gradient" x1="113.06" y1="140.45" x2="126.04" y2="140.45" gradientUnits="userSpaceOnUse"><stop offset="0" stop-color="#008fff"></stop><stop offset="1" stop-color="#fff"></stop></linearGradient><linearGradient id="linear-gradient-2" x1="132.88" y1="272.22" x2="165.78" y2="272.22" gradientUnits="userSpaceOnUse"><stop offset="0" stop-color="#1e00bf"></stop><stop offset="1" stop-color="#008fff"></stop></linearGradient><linearGradient id="linear-gradient-3" x1="107" y1="260.56" x2="132.88" y2="260.56" gradientUnits="userSpaceOnUse"><stop offset="0" stop-color="aqua"></stop><stop offset=".09" stop-color="#01f3fc"></stop><stop offset=".24" stop-color="#04d5f4"></stop><stop offset=".44" stop-color="#0aa4e8"></stop><stop offset=".69" stop-color="#1261d7"></stop><stop offset=".96" stop-color="#1c0bc1"></stop><stop offset="1" stop-color="#1e00bf"></stop></linearGradient><linearGradient id="linear-gradient-4" x1="132.88" x2="158.76" xlink:href="#linear-gradient-3"></linearGradient><linearGradient id="linear-gradient-5" y1="250.12" y2="250.12" xlink:href="#linear-gradient-2"></linearGradient><linearGradient id="linear-gradient-6" x1="86.92" y1="131.53" x2="119.82" y2="131.53" xlink:href="#linear-gradient-2"></linearGradient><linearGradient id="linear-gradient-7" x1="61.04" y1="119.86" x2="86.92" y2="119.86" xlink:href="#linear-gradient-3"></linearGradient><linearGradient id="linear-gradient-8" x1="86.92" y1="119.86" x2="112.8" y2="119.86" xlink:href="#linear-gradient-3"></linearGradient><linearGradient id="linear-gradient-9" x1="86.92" y1="109.42" x2="119.82" y2="109.42" xlink:href="#linear-gradient-2"></linearGradient><linearGradient id="linear-gradient-10" x1="61.04" y1="97.75" x2="86.92" y2="97.75" xlink:href="#linear-gradient-3"></linearGradient><linearGradient id="linear-gradient-11" x1="86.92" y1="97.75" x2="112.8" y2="97.75" xlink:href="#linear-gradient-3"></linearGradient><linearGradient id="linear-gradient-12" x1="86.92" y1="87.32" x2="119.82" y2="87.32" xlink:href="#linear-gradient-2"></linearGradient><linearGradient id="linear-gradient-13" x1="199.81" y1="130.45" x2="249.66" y2="80.6" xlink:href="#linear-gradient-3"></linearGradient><linearGradient id="linear-gradient-14" x1="275.51" y1="289.98" x2="308.42" y2="289.98" xlink:href="#linear-gradient-2"></linearGradient><linearGradient id="linear-gradient-15" x1="249.63" y1="278.31" x2="275.51" y2="278.31" xlink:href="#linear-gradient-3"></linearGradient><linearGradient id="linear-gradient-16" x1="275.51" y1="278.31" x2="301.39" y2="278.31" xlink:href="#linear-gradient-3"></linearGradient><linearGradient id="linear-gradient-17" x1="275.51" y1="267.87" x2="308.42" y2="267.87" xlink:href="#linear-gradient-2"></linearGradient><linearGradient id="linear-gradient-18" x1="249.63" y1="256.2" x2="275.51" y2="256.2" xlink:href="#linear-gradient-3"></linearGradient><linearGradient id="linear-gradient-19" x1="275.51" y1="256.2" x2="301.39" y2="256.2" xlink:href="#linear-gradient-3"></linearGradient><linearGradient id="linear-gradient-20" x1="275.51" y1="245.76" x2="308.42" y2="245.76" xlink:href="#linear-gradient-2"></linearGradient><linearGradient id="linear-gradient-21" x1="249.63" y1="233.68" x2="275.51" y2="233.68" xlink:href="#linear-gradient-3"></linearGradient><linearGradient id="linear-gradient-22" x1="275.51" y1="233.68" x2="301.39" y2="233.68" xlink:href="#linear-gradient-3"></linearGradient><linearGradient id="linear-gradient-23" x1="275.51" y1="223.24" x2="308.42" y2="223.24" xlink:href="#linear-gradient-2"></linearGradient><linearGradient id="linear-gradient-24" x1="33.9" y1="204.76" x2="66.81" y2="204.76" xlink:href="#linear-gradient-2"></linearGradient><linearGradient id="linear-gradient-25" x1="8.02" y1="193.09" x2="33.9" y2="193.09" xlink:href="#linear-gradient-3"></linearGradient><linearGradient id="linear-gradient-26" x1="33.9" y1="193.09" x2="59.78" y2="193.09" xlink:href="#linear-gradient-3"></linearGradient><linearGradient id="linear-gradient-27" x1="33.9" y1="182.65" x2="66.81" y2="182.65" xlink:href="#linear-gradient-2"></linearGradient><linearGradient id="linear-gradient-28" x1="121.36" y1="224.58" x2="144.67" y2="224.58" xlink:href="#linear-gradient"></linearGradient><linearGradient id="linear-gradient-29" x1="265.32" y1="197.37" x2="285.74" y2="197.37" xlink:href="#linear-gradient"></linearGradient><linearGradient id="linear-gradient-30" x1="19.22" y1="163.21" x2="39.7" y2="163.21" xlink:href="#linear-gradient"></linearGradient><linearGradient id="linear-gradient-31" x1="32.65" y1="157.64" x2="48.59" y2="157.64" xlink:href="#linear-gradient"></linearGradient><linearGradient id="linear-gradient-32" x1="75.98" y1="61.95" x2="95.57" y2="61.95" xlink:href="#linear-gradient"></linearGradient><linearGradient id="linear-gradient-33" x1="73.65" y1="70.33" x2="95.09" y2="70.33" xlink:href="#linear-gradient"></linearGradient><linearGradient id="linear-gradient-34" x1="132.88" y1="250.45" x2="132.88" y2="-72.49" gradientUnits="userSpaceOnUse"><stop offset="0" stop-color="#008fff"></stop><stop offset=".01" stop-color="rgba(6, 146, 255, .97)" stop-opacity=".97"></stop><stop offset=".13" stop-color="rgba(64, 171, 255, .75)" stop-opacity=".75"></stop><stop offset=".25" stop-color="rgba(115, 193, 255, .55)" stop-opacity=".55"></stop><stop offset=".37" stop-color="rgba(158, 212, 255, .38)" stop-opacity=".38"></stop><stop offset=".49" stop-color="rgba(193, 227, 255, .24)" stop-opacity=".24"></stop><stop offset=".62" stop-color="rgba(220, 239, 255, .14)" stop-opacity=".14"></stop><stop offset=".74" stop-color="rgba(239, 248, 255, .06)" stop-opacity=".06"></stop><stop offset=".87" stop-color="rgba(251, 253, 255, .01)" stop-opacity=".01"></stop><stop offset="1" stop-color="#fff" stop-opacity="0"></stop></linearGradient></defs><g class="cls-46"><polygon class="cls-48" points="82.64 264.38 132.88 293.39 183.12 264.38 132.88 235.37 82.64 264.38"></polygon><polygon class="cls-48" points="275.51 252.63 225.27 281.64 275.51 310.65 325.75 281.64 275.51 252.63"></polygon><polygon class="cls-48" points="33.9 167.9 -16.34 196.91 33.9 225.92 84.15 196.91 33.9 167.9"></polygon><polygon class="cls-48" points="137.16 122.86 86.92 93.85 36.68 122.86 86.92 151.86 137.16 122.86"></polygon><polygon class="cls-48" points="161.97 124.09 93.69 163.23 203.79 227.02 272.06 187.87 161.97 124.09"></polygon><polyline class="cls-48" points="56.14 213.08 71.05 221.69 113.06 197.43 92.06 185.3 111.87 173.76"></polyline><polyline class="cls-48" points="158.8 278.42 176.09 288.4 217.69 264.38 181.34 242.91 191.85 236.85 170.84 224.72 185.35 216.34"></polyline><polyline class="cls-48" points="220.75 217.01 239.09 227.74 270.38 209.58 286.38 218.66 228.61 252.01 252.44 265.6"></polyline><line class="cls-26" x1="113.06" y1="136.62" x2="126.04" y2="144.27"></line><polyline class="cls-48" points="40.38 222.18 71.05 239.88 55.29 248.98 71.05 258.08 92.06 245.95 103.18 252.37"></polyline><polyline class="cls-48" points="65.69 139.61 50.04 148.8 65.58 158.13 42.17 171.65"></polyline><polyline class="cls-48" points="148.3 284.48 186.59 306.59 212.85 291.43 233.86 303.56 248.55 295.08"></polyline></g><g><g><polygon class="cls-44" points="99.98 258.12 132.88 277.11 165.78 258.12 132.88 239.12 99.98 258.12"></polygon><polygon class="cls-32" points="99.98 267.34 132.88 286.33 132.88 277.11 99.98 258.12 99.98 267.34"></polygon><polygon class="cls-35" points="165.78 267.34 132.88 286.33 132.88 277.11 165.78 258.12 165.78 267.34"></polygon></g><g><polygon class="cls-36" points="107 258.33 132.88 273.27 132.88 262.78 107 247.84 107 258.33"></polygon><polygon class="cls-34" points="158.76 258.33 132.88 273.27 132.88 262.78 158.76 247.84 158.76 258.33"></polygon></g><g><polygon class="cls-44" points="99.98 236.01 132.88 255 165.78 236.01 132.88 217.01 99.98 236.01"></polygon><polygon class="cls-32" points="99.98 245.23 132.88 264.23 132.88 255 99.98 236.01 99.98 245.23"></polygon><polygon class="cls-40" points="165.78 245.23 132.88 264.23 132.88 255 165.78 236.01 165.78 245.23"></polygon></g></g><g><g><polygon class="cls-44" points="54.01 117.42 86.92 136.42 119.82 117.42 86.92 98.43 54.01 117.42"></polygon><polygon class="cls-32" points="54.01 126.65 86.92 145.64 86.92 136.42 54.01 117.42 54.01 126.65"></polygon><polygon class="cls-41" points="119.82 126.65 86.92 145.64 86.92 136.42 119.82 117.42 119.82 126.65"></polygon></g><g><g><polygon class="cls-39" points="61.04 117.64 86.92 132.58 86.92 122.09 61.04 107.15 61.04 117.64"></polygon><polygon class="cls-37" points="112.8 117.64 86.92 132.58 86.92 122.09 112.8 107.15 112.8 117.64"></polygon></g><g><polygon class="cls-44" points="54.01 95.32 86.92 114.31 119.82 95.32 86.92 76.32 54.01 95.32"></polygon><polygon class="cls-32" points="54.01 104.54 86.92 123.53 86.92 114.31 54.01 95.32 54.01 104.54"></polygon><polygon class="cls-38" points="119.82 104.54 86.92 123.53 86.92 114.31 119.82 95.32 119.82 104.54"></polygon></g></g><g><g><polygon class="cls-12" points="61.04 95.53 86.92 110.47 86.92 99.98 61.04 85.04 61.04 95.53"></polygon><polygon class="cls-9" points="112.8 95.53 86.92 110.47 86.92 99.98 112.8 85.04 112.8 95.53"></polygon></g><g><polygon class="cls-44" points="54.01 73.21 86.92 92.2 119.82 73.21 86.92 54.21 54.01 73.21"></polygon><polygon class="cls-32" points="54.01 82.43 86.92 101.42 86.92 92.2 54.01 73.21 54.01 82.43"></polygon><polygon class="cls-10" points="119.82 82.43 86.92 101.42 86.92 92.2 119.82 73.21 119.82 82.43"></polygon></g></g></g><g><g><polygon class="cls-44" points="183.23 120.77 266 168.89 266.23 90.28 183.47 42.17 183.23 120.77"></polygon><path class="cls-11" d="M187.62,118.26l74.03,43.04.21-68.5-74.03-43.04-.2,68.5Z"></path><polygon class="cls-45" points="266.23 90.28 266 168.89 269.54 166.82 269.77 88.22 266.23 90.28"></polygon><polygon class="cls-42" points="266.23 90.28 183.47 42.17 187.01 40.1 269.77 88.22 266.23 90.28"></polygon></g><polygon class="cls-45" points="115.99 163.89 198.75 212 198.77 207.45 116 159.33 115.99 163.89"></polygon><polygon class="cls-44" points="183.23 120.77 116 159.33 198.77 207.45 266 168.89 183.23 120.77"></polygon><polygon class="cls-33" points="198.77 207.45 198.75 212 265.99 173.44 266 168.89 198.77 207.45"></polygon><polygon class="cls-45" points="183.23 120.77 179.9 122.67 262.66 170.79 266 168.89 183.23 120.77"></polygon><polygon class="cls-3" points="262.65 175.36 265.99 173.44 266 168.89 262.66 170.8 262.65 175.36"></polygon><g><polygon class="cls-27" points="190.96 146.1 194.1 147.93 197.8 145.8 194.66 143.98 190.96 146.1"></polygon><polygon class="cls-27" points="194.97 148.44 198.11 150.26 201.82 148.13 198.68 146.31 194.97 148.44"></polygon><polygon class="cls-27" points="198.98 150.77 202.12 152.59 205.83 150.47 202.69 148.64 198.98 150.77"></polygon><polygon class="cls-27" points="182.93 141.44 186.07 143.26 189.78 141.13 186.64 139.31 182.93 141.44"></polygon><polygon class="cls-27" points="186.95 143.77 190.08 145.59 193.79 143.47 190.65 141.64 186.95 143.77"></polygon><polygon class="cls-27" points="215.03 160.1 218.17 161.92 221.87 159.8 218.74 157.97 215.03 160.1"></polygon><polygon class="cls-27" points="202.99 153.1 206.13 154.92 209.84 152.8 206.7 150.97 202.99 153.1"></polygon><polygon class="cls-27" points="211.02 157.77 214.16 159.59 217.87 157.46 214.73 155.64 211.02 157.77"></polygon><polygon class="cls-27" points="212.14 170.02 209 168.19 205.3 170.31 208.44 172.14 212.14 170.02"></polygon><polygon class="cls-27" points="207.01 155.43 210.14 157.26 213.85 155.13 210.71 153.31 207.01 155.43"></polygon><polygon class="cls-27" points="178.35 144.07 181.49 145.89 185.2 143.76 182.06 141.94 178.35 144.07"></polygon><polygon class="cls-27" points="180.04 151.35 176.9 149.53 173.23 151.64 176.36 153.46 180.04 151.35"></polygon><polygon class="cls-27" points="188.06 156.02 184.93 154.2 181.24 156.31 184.38 158.13 188.06 156.02"></polygon><polygon class="cls-27" points="196.09 160.69 192.95 158.86 189.26 160.97 192.4 162.8 196.09 160.69"></polygon><polygon class="cls-27" points="192.08 158.35 188.94 156.53 185.25 158.64 188.39 160.47 192.08 158.35"></polygon><polygon class="cls-27" points="200.1 163.02 196.96 161.19 193.27 163.31 196.41 165.14 200.1 163.02"></polygon><polygon class="cls-27" points="208.12 167.68 204.99 165.86 201.29 167.98 204.43 169.8 208.12 167.68"></polygon><polygon class="cls-27" points="204.11 165.35 200.98 163.53 197.29 165.64 200.42 167.47 204.11 165.35"></polygon><polygon class="cls-27" points="184.05 153.69 180.91 151.86 177.23 153.97 180.37 155.8 184.05 153.69"></polygon><polygon class="cls-27" points="165.2 146.97 168.34 148.8 172.02 146.69 168.87 144.87 165.2 146.97"></polygon><polygon class="cls-27" points="169.75 144.36 172.89 146.19 176.6 144.06 173.46 142.24 169.75 144.36"></polygon><polygon class="cls-27" points="176.03 149.02 172.89 147.2 169.21 149.3 172.35 151.13 176.03 149.02"></polygon><polygon class="cls-27" points="223.06 164.76 226.19 166.59 229.9 164.46 226.77 162.64 223.06 164.76"></polygon><polygon class="cls-27" points="174.34 141.73 177.48 143.56 181.18 141.43 178.04 139.61 174.34 141.73"></polygon><polygon class="cls-27" points="219.05 162.43 222.18 164.25 225.89 162.13 222.75 160.31 219.05 162.43"></polygon><polygon class="cls-27" points="233.91 166.79 230.78 164.97 227.07 167.1 230.21 168.92 233.91 166.79"></polygon><polygon class="cls-27" points="206.44 160.39 209.57 162.22 213.28 160.09 210.14 158.27 206.44 160.39"></polygon><polygon class="cls-27" points="198.41 155.73 201.55 157.56 205.26 155.43 202.12 153.6 198.41 155.73"></polygon><polygon class="cls-27" points="186.37 148.73 189.51 150.55 193.22 148.43 190.08 146.6 186.37 148.73"></polygon><polygon class="cls-27" points="194.4 153.4 197.54 155.22 201.24 153.09 198.11 151.27 194.4 153.4"></polygon><polygon class="cls-27" points="190.39 151.06 193.52 152.89 197.23 150.76 194.09 148.94 190.39 151.06"></polygon><polygon class="cls-27" points="210.45 162.73 213.59 164.55 217.29 162.42 214.15 160.6 210.45 162.73"></polygon><polygon class="cls-27" points="184.62 148.73 181.48 146.9 177.78 149.03 180.92 150.85 184.62 148.73"></polygon><polygon class="cls-27" points="173.77 146.7 176.9 148.52 180.61 146.39 177.47 144.57 173.77 146.7"></polygon><polygon class="cls-27" points="225.32 167.09 222.18 165.27 218.47 167.39 221.61 169.22 225.32 167.09"></polygon><polygon class="cls-27" points="214.46 165.06 217.6 166.88 221.31 164.76 218.17 162.93 214.46 165.06"></polygon><polygon class="cls-27" points="202.42 158.06 205.56 159.89 209.27 157.76 206.13 155.94 202.42 158.06"></polygon><polygon class="cls-27" points="208.7 162.72 205.56 160.9 201.85 163.02 204.99 164.85 208.7 162.72"></polygon><polygon class="cls-27" points="216.72 167.39 213.58 165.56 209.88 167.69 213.01 169.51 216.72 167.39"></polygon><polygon class="cls-27" points="212.71 165.05 209.57 163.23 205.86 165.36 209 167.18 212.71 165.05"></polygon><polygon class="cls-27" points="224.75 172.05 221.61 170.23 217.9 172.35 221.04 174.18 224.75 172.05"></polygon><polygon class="cls-27" points="229.33 169.42 226.19 167.6 222.48 169.72 225.62 171.55 229.33 169.42"></polygon><polygon class="cls-27" points="204.69 160.39 201.55 158.56 197.84 160.69 200.98 162.51 204.69 160.39"></polygon><polygon class="cls-27" points="188.64 151.06 185.5 149.23 181.79 151.36 184.93 153.19 188.64 151.06"></polygon><polygon class="cls-27" points="192.65 153.39 189.51 151.57 185.8 153.69 188.94 155.52 192.65 153.39"></polygon><polygon class="cls-27" points="200.68 158.06 197.53 156.23 193.83 158.36 196.97 160.18 200.68 158.06"></polygon><polygon class="cls-27" points="196.66 155.72 193.52 153.9 189.81 156.03 192.95 157.85 196.66 155.72"></polygon><polygon class="cls-27" points="182.36 146.4 185.5 148.22 189.21 146.1 186.07 144.27 182.36 146.4"></polygon><polygon class="cls-27" points="220.73 169.72 217.6 167.89 213.89 170.02 217.03 171.85 220.73 169.72"></polygon><polygon class="cls-27" points="195.53 165.64 192.4 163.81 188.67 165.95 191.81 167.77 195.53 165.64"></polygon><polygon class="cls-27" points="191.53 163.3 188.39 161.48 184.66 163.62 187.8 165.44 191.53 163.3"></polygon><polygon class="cls-27" points="207.56 172.64 204.43 170.81 200.71 172.95 203.84 174.77 207.56 172.64"></polygon><polygon class="cls-27" points="199.54 167.97 196.41 166.15 192.68 168.28 195.82 170.11 199.54 167.97"></polygon><polygon class="cls-27" points="203.55 170.31 200.42 168.48 196.69 170.61 199.83 172.44 203.55 170.31"></polygon><polygon class="cls-27" points="183.51 158.64 180.37 156.81 176.63 158.95 179.77 160.78 183.51 158.64"></polygon><polygon class="cls-27" points="187.52 160.97 184.38 159.14 180.65 161.28 183.78 163.11 187.52 160.97"></polygon><polygon class="cls-27" points="167.46 149.3 164.33 147.47 160.59 149.62 163.72 151.45 167.46 149.3"></polygon><polygon class="cls-27" points="179.5 156.3 176.36 154.48 172.62 156.62 175.76 158.44 179.5 156.3"></polygon><polygon class="cls-27" points="156.57 147.29 159.71 149.11 163.46 146.96 160.32 145.14 156.57 147.29"></polygon><polygon class="cls-27" points="216.15 172.35 213.01 170.52 209.31 172.65 212.45 174.47 216.15 172.35"></polygon><polygon class="cls-27" points="175.48 153.97 172.35 152.14 168.61 154.29 171.75 156.11 175.48 153.97"></polygon><polygon class="cls-27" points="228.19 179.35 225.05 177.52 221.34 179.65 224.48 181.47 228.19 179.35"></polygon><polygon class="cls-27" points="246.52 168.83 243.38 167.01 239.68 169.13 242.81 170.96 246.52 168.83"></polygon><polygon class="cls-27" points="241.94 171.46 238.8 169.64 235.1 171.76 238.23 173.59 241.94 171.46"></polygon><polygon class="cls-27" points="237.35 174.09 234.22 172.26 230.51 174.39 233.65 176.22 237.35 174.09"></polygon><polygon class="cls-27" points="179.49 134.14 182.63 135.97 186.34 133.84 183.2 132.02 179.49 134.14"></polygon><polygon class="cls-27" points="219.59 179.64 216.46 177.82 212.74 179.94 215.88 181.77 219.59 179.64"></polygon><polygon class="cls-27" points="215.58 177.31 212.45 175.48 208.73 177.61 211.87 179.44 215.58 177.31"></polygon><polygon class="cls-27" points="211.57 174.97 208.44 173.15 204.72 175.28 207.86 177.1 211.57 174.97"></polygon><polygon class="cls-27" points="223.6 181.98 220.47 180.15 216.76 182.28 219.9 184.1 223.6 181.98"></polygon><polygon class="cls-27" points="161.19 144.64 164.33 146.46 168 144.36 164.86 142.53 161.19 144.64"></polygon><polygon class="cls-27" points="232.77 176.72 229.63 174.89 225.93 177.02 229.06 178.84 232.77 176.72"></polygon><polygon class="cls-27" points="171.48 151.63 168.34 149.81 164.6 151.95 167.74 153.78 171.48 151.63"></polygon><polygon class="cls-27" points="227.64 162.13 230.78 163.96 234.49 161.83 231.35 160.01 227.64 162.13"></polygon><polygon class="cls-27" points="231.65 164.47 234.79 166.29 238.5 164.16 235.36 162.34 231.65 164.47"></polygon><polygon class="cls-27" points="215.6 155.14 218.74 156.96 222.45 154.83 219.31 153.01 215.6 155.14"></polygon><polygon class="cls-27" points="223.63 159.8 226.77 161.63 230.47 159.5 227.33 157.68 223.63 159.8"></polygon><polygon class="cls-27" points="242.51 166.5 239.37 164.67 235.66 166.8 238.8 168.62 242.51 166.5"></polygon><polygon class="cls-27" points="219.61 157.47 222.75 159.29 226.46 157.17 223.32 155.34 219.61 157.47"></polygon><polygon class="cls-27" points="220.16 174.68 217.02 172.86 213.32 174.98 216.46 176.81 220.16 174.68"></polygon><polygon class="cls-27" points="237.93 169.13 234.79 167.3 231.08 169.43 234.22 171.25 237.93 169.13"></polygon><polygon class="cls-27" points="224.17 177.01 221.04 175.19 217.34 177.31 220.47 179.14 224.17 177.01"></polygon><polygon class="cls-27" points="228.76 174.38 225.62 172.56 221.91 174.69 225.05 176.51 228.76 174.38"></polygon><polygon class="cls-27" points="233.34 171.76 230.21 169.93 226.5 172.06 229.64 173.88 233.34 171.76"></polygon><polygon class="cls-27" points="199.55 145.8 202.69 147.63 206.4 145.5 203.26 143.68 199.55 145.8"></polygon><polygon class="cls-27" points="183.51 136.48 186.64 138.3 190.35 136.17 187.21 134.35 183.51 136.48"></polygon><polygon class="cls-27" points="178.92 139.1 182.06 140.93 185.77 138.8 182.63 136.98 178.92 139.1"></polygon><polygon class="cls-27" points="170.32 139.4 173.47 141.23 177.17 139.1 174.03 137.27 170.32 139.4"></polygon><polygon class="cls-27" points="211.59 152.8 214.73 154.63 218.44 152.5 215.3 150.68 211.59 152.8"></polygon><polygon class="cls-27" points="174.91 136.77 178.05 138.6 181.75 136.47 178.62 134.65 174.91 136.77"></polygon><polygon class="cls-27" points="187.52 138.81 190.66 140.63 194.36 138.51 191.23 136.68 187.52 138.81"></polygon><polygon class="cls-27" points="203.57 148.14 206.7 149.96 210.41 147.84 207.27 146.01 203.57 148.14"></polygon><polygon class="cls-27" points="191.53 141.14 194.67 142.96 198.38 140.84 195.24 139.02 191.53 141.14"></polygon><polygon class="cls-27" points="207.58 150.47 210.72 152.3 214.42 150.17 211.29 148.34 207.58 150.47"></polygon><polygon class="cls-27" points="165.74 142.03 168.88 143.85 172.59 141.73 169.45 139.9 165.74 142.03"></polygon><polygon class="cls-27" points="195.54 143.47 198.68 145.3 202.39 143.17 199.25 141.35 195.54 143.47"></polygon></g><polygon class="cls-27" points="164.89 158.49 148.87 167.68 184.53 188.41 200.56 179.22 164.89 158.49"></polygon><path class="cls-32" d="M235.12,189.07c-.19-.34-.62-.45-.95-.26l-4.89,2.8c-.33.19-.45.62-.26.95.19.34.62.45.95.26l4.89-2.8c.33-.19.45-.62.26-.95Z"></path><path class="cls-32" d="M224.63,194.96c-.19-.33-.62-.45-.96-.26l-4.89,2.8c-.33.19-.45.62-.26.95.19.34.62.45.95.26l4.89-2.8c.33-.19.45-.62.26-.95Z"></path><path class="cls-32" d="M259.04,174.09c.56-.43,1.09-.29,1.17.32.08.61-.31,1.46-.87,1.89-.56.44-1.09.29-1.17-.32-.08-.61.31-1.46.87-1.89Z"></path><path class="cls-32" d="M253.58,177.19c.56-.43,1.08-.29,1.16.32.08.61-.31,1.46-.87,1.89-.56.43-1.09.29-1.17-.32-.08-.61.31-1.45.87-1.89Z"></path><path class="cls-32" d="M250.1,179.16c.56-.43,1.09-.29,1.17.32.08.61-.31,1.46-.87,1.89-.56.44-1.08.29-1.17-.32-.08-.61.31-1.46.87-1.89Z"></path><path class="cls-32" d="M204.71,205.74c.35-.26.67-.18.72.2.05.37-.19.9-.54,1.16-.35.27-.67.18-.72-.2-.05-.38.19-.89.54-1.16Z"></path><path class="cls-32" d="M207.72,204.08c.35-.27.67-.18.72.2.05.37-.19.89-.53,1.16-.35.27-.67.18-.72-.2-.05-.38.19-.89.53-1.16Z"></path><path class="cls-43" d="M259.77,173.97s-.03-.07-.04-.11c-.2-.03-.44.03-.69.23-.56.44-.95,1.28-.87,1.89,0,.04.03.07.04.11.2.03.44-.04.69-.23.57-.43.96-1.28.88-1.89Z"></path></g><g><g><polygon class="cls-44" points="242.61 275.87 275.51 294.87 308.42 275.87 275.51 256.88 242.61 275.87"></polygon><polygon class="cls-32" points="242.61 285.09 275.51 304.09 275.51 294.87 242.61 275.87 242.61 285.09"></polygon><polygon class="cls-20" points="308.42 285.09 275.51 304.09 275.51 294.87 308.42 275.87 308.42 285.09"></polygon></g><g><g><polygon class="cls-16" points="249.63 276.09 275.51 291.03 275.51 280.54 249.63 265.6 249.63 276.09"></polygon><polygon class="cls-14" points="301.39 276.09 275.51 291.03 275.51 280.54 301.39 265.6 301.39 276.09"></polygon></g><g><polygon class="cls-44" points="242.61 253.76 275.51 272.76 308.42 253.76 275.51 234.77 242.61 253.76"></polygon><polygon class="cls-32" points="242.61 262.99 275.51 281.98 275.51 272.76 242.61 253.76 242.61 262.99"></polygon><polygon class="cls-13" points="308.42 262.99 275.51 281.98 275.51 272.76 308.42 253.76 308.42 262.99"></polygon></g></g><g><g><polygon class="cls-19" points="249.63 253.98 275.51 268.92 275.51 258.43 249.63 243.49 249.63 253.98"></polygon><polygon class="cls-15" points="301.39 253.98 275.51 268.92 275.51 258.43 301.39 243.49 301.39 253.98"></polygon></g><g><polygon class="cls-44" points="242.61 231.66 275.51 250.65 308.42 231.66 275.51 212.66 242.61 231.66"></polygon><polygon class="cls-32" points="242.61 240.88 275.51 259.87 275.51 250.65 242.61 231.66 242.61 240.88"></polygon><polygon class="cls-22" points="308.42 240.88 275.51 259.87 275.51 250.65 308.42 231.66 308.42 240.88"></polygon></g></g><g><g><polygon class="cls-18" points="249.63 231.46 275.51 246.4 275.51 235.91 249.63 220.97 249.63 231.46"></polygon><polygon class="cls-21" points="301.39 231.46 275.51 246.4 275.51 235.91 301.39 220.97 301.39 231.46"></polygon></g><g><polygon class="cls-44" points="242.61 209.14 275.51 228.13 308.42 209.14 275.51 190.14 242.61 209.14"></polygon><polygon class="cls-32" points="242.61 218.36 275.51 237.35 275.51 228.13 242.61 209.14 242.61 218.36"></polygon><polygon class="cls-17" points="308.42 218.36 275.51 237.35 275.51 228.13 308.42 209.14 308.42 218.36"></polygon></g></g></g><g><g><polygon class="cls-44" points="1 190.65 33.9 209.64 66.81 190.65 33.9 171.65 1 190.65"></polygon><polygon class="cls-32" points="1 199.87 33.9 218.87 33.9 209.64 1 190.65 1 199.87"></polygon><polygon class="cls-24" points="66.81 199.87 33.9 218.87 33.9 209.64 66.81 190.65 66.81 199.87"></polygon></g><g><polygon class="cls-8" points="8.02 190.87 33.9 205.81 33.9 195.31 8.02 180.37 8.02 190.87"></polygon><polygon class="cls-25" points="59.78 190.87 33.9 205.81 33.9 195.31 59.78 180.37 59.78 190.87"></polygon></g><g><polygon class="cls-44" points="1 168.54 33.9 187.53 66.81 168.54 33.9 149.54 1 168.54"></polygon><polygon class="cls-32" points="1 177.76 33.9 196.76 33.9 187.53 1 168.54 1 177.76"></polygon><polygon class="cls-23" points="66.81 177.76 33.9 196.76 33.9 187.53 66.81 168.54 66.81 177.76"></polygon></g></g><path class="cls-2" d="M33.9,155l23.45,13.54-23.45,13.54-23.45-13.54,23.45-13.54M33.9,154.09l-25.02,14.45,25.02,14.45,25.02-14.45-25.02-14.45h0Z"></path><path class="cls-2" d="M86.92,59.67l23.45,13.54-23.45,13.54-23.45-13.54,23.45-13.54M86.92,58.76l-25.02,14.45,25.02,14.44,25.02-14.44-25.02-14.45h0Z"></path><path class="cls-2" d="M132.88,222.47l23.45,13.54-23.45,13.53-23.45-13.53,23.45-13.54M132.88,221.56l-25.02,14.45,25.02,14.44,25.02-14.44-25.02-14.45h0Z"></path><path class="cls-2" d="M275.51,195.6l23.45,13.54-23.45,13.54-23.45-13.54,23.45-13.54M275.51,194.69l-25.02,14.45,25.02,14.45,25.02-14.45-25.02-14.45h0Z"></path><g class="cls-51"><path class="cls-28" d="M144.6,220.57c-.04-.4-.3-.83-.62-1.04-4.53-2.88-6.27-5.89-6.9-7.41-.12-.29-.33-.54-.56-.68-.18-.1-.35-.12-.47-.05l-1.57.92c-1.08.2-2.78-.02-5.44-1.4-.17-.08-.32-.09-.43-.03l-7.25,4.21c.11-.06.27-.06.43.03.82.42,1.53.73,2.18.96l-1.53.89c-.15,2.76-.28,14.2,6.78,19.87,1.53.54,2.72.42,3.65-.12l3.52-2.05c-.55,1.59-1.37,2.95-2.61,3.67l7.25-4.21c4.44-2.58,3.59-13.42,3.58-13.55ZM129.68,216.08c.05.08.11.16.15.25.09.23.22.5.37.79l-.44.25c-.04-.45-.06-.88-.08-1.3ZM129.77,217.39l.44-.26c.47.9,1.23,2.07,2.46,3.35l-2.25,1.31c-.34-1.56-.54-3.06-.65-4.4ZM134.52,222.16c.35.28.72.56,1.12.84l-.65.25-.46-1.09ZM136.46,232.62c-2.24-1.8-3.76-4.19-4.78-6.69l.55-.22.63,1.23,4.38-2.54c.05.13.09.25.11.38,0,.08.33,4.21-.45,7.97-.14-.04-.29-.08-.44-.14Z"></path><polygon class="cls-27" points="132.24 225.71 132.87 226.94 127.53 229.04 125.62 224.58 126.45 224.43 127.74 227.46 132.24 225.71"></polygon><path class="cls-27" d="M137.35,224.78c.01.17,1.35,17.1-8.03,13.63l-.12-.06-.12-.08c-9.36-7.35-7.94-22.69-7.92-22.84.03-.36.3-.49.62-.32,4.54,2.36,6.28,1.36,6.92.57.12-.15.33-.17.56-.03.23.13.44.39.56.68.63,1.53,2.37,4.53,6.9,7.41.32.21.58.64.62,1.04ZM129.21,236.83c7.08,2.49,6.99-9.07,6.87-11.99-3.82-2.57-5.8-5.28-6.81-7.17-1.01.72-3.01,1.14-6.83-.7-.15,2.76-.28,14.2,6.78,19.87"></path></g><g><polygon class="cls-27" points="278.07 199.64 278.03 213.51 265.28 206.16 265.32 192.28 278.07 199.64"></polygon><g class="cls-51"><path class="cls-29" d="M284.12,194.24l.46-.27v-3.07c.02-3.29-2.31-7.32-5.18-8.98-1.44-.83-2.75-.91-3.7-.36l-7.67,4.46c.95-.55,2.26-.48,3.7.36.16.09.31.22.46.32l-2.82,1.64c-.59.34-.96,1.08-.97,2.11v.04l-3.08,1.79,12.74,7.36-.04,13.88,7.67-4.46.04-13.88-1.62-.94Z"></path><path class="cls-27" d="M271.72,186.39c2.87,1.66,5.2,5.69,5.19,8.98v3.07s-1.91-1.09-1.91-1.09v-3.07c.01-2.08-1.46-4.65-3.29-5.7-1.81-1.05-3.31-.2-3.31,1.89v3.07s-1.91-1.1-1.91-1.1v-3.07c.02-3.29,2.36-4.63,5.22-2.97Z"></path></g></g><g><g class="cls-49"><g class="cls-51"><path class="cls-6" d="M39.7,163.3l-1.31-.76c-.12-.57-.3-1.15-.51-1.73l.93-.54-2.02-3.5-.93.53c-.39-.48-.81-.93-1.25-1.32v-1.5s-2.87-1.66-2.87-1.66l-1.54.89-.64-1.11-2.04,1.16-7.37,4.28,2.04-1.16.61,1.07-3.57,2.07,1.32.76,3.76-2.18s.04,0,.06.01l1.3-.76,1.58.91v1.5s.07.08.11.11l-3.38,1.97c-.46.27-.74.83-.75,1.64,0,.17.02.36.04.54l-3.15,1.83.93-.53,2.22-1.29c.21,1.5,1.25,3.14,2.5,3.87.71.41,1.35.45,1.82.18l3.38-1.96c.02.07.04.14.05.22l1.31.76v1.74s-5.14,2.98-5.14,2.98v1.51s3.57-2.08,3.57-2.08l.65,1.13,7.37-4.28-.63-1.09,1.54-.89v-3.31Z"></path></g></g><path class="cls-27" d="M32.32,170.89l-1.31-.76c-.12.44-.3.82-.53,1.13l.92,1.6-2.04,1.17-.93-1.6c-.4.03-.81-.01-1.26-.13v1.51s-2.88-1.66-2.88-1.66v-1.51c-.44-.39-.86-.84-1.24-1.31l-.93.53-2.03-3.52.93-.53c-.22-.57-.39-1.16-.51-1.73l-1.32-.76v-3.31s1.33.76,1.33.76c.12-.44.3-.81.52-1.14l-.93-1.6,2.04-1.16.93,1.6c.39-.03.81,0,1.25.12v-1.5s2.88,1.66,2.88,1.66v1.5c.44.4.86.84,1.25,1.32l.93-.53,2.02,3.5-.93.53c.22.58.4,1.16.52,1.74l1.31.76v3.31ZM25.76,168.4c1.42.82,2.56.16,2.57-1.46,0-1.63-1.13-3.6-2.55-4.42-1.41-.81-2.56-.16-2.57,1.46,0,1.62,1.14,3.6,2.55,4.42"></path><g class="cls-49"><g class="cls-51"><path class="cls-7" d="M48.59,156.96l-.85-.49c-.08-.37-.2-.76-.34-1.13l.61-.35-1.33-2.29-.61.34c-.25-.31-.53-.6-.81-.85v-.99s-1.88-1.09-1.88-1.09l-1,.58-.42-.72-1.33.76-7.37,4.29,1.33-.76.4.69-2.33,1.36.86.5,2.46-1.43s.02,0,.04,0l.86-.5,1.03.59v.99s.04.05.07.07l-2.21,1.28c-.3.17-.49.55-.49,1.08,0,.11.01.23.03.35l-2.06,1.2.61-.35,1.45-.84c.14.98.81,2.06,1.63,2.53.46.27.89.29,1.19.11l2.21-1.29s.03.1.04.15l.86.49v1.14s-3.36,1.95-3.36,1.95v.98s2.33-1.36,2.33-1.36l.43.74,7.37-4.29-.41-.71,1.01-.58v-2.16Z"></path></g></g><path class="cls-27" d="M41.22,163.41l-.85-.49c-.08.28-.2.53-.35.74l.61,1.05-1.33.76-.61-1.05c-.25.02-.53,0-.82-.08v.98s-1.89-1.09-1.89-1.09v-.98c-.28-.26-.56-.55-.81-.86l-.61.35-1.33-2.29.61-.35c-.15-.38-.26-.76-.34-1.13l-.86-.5v-2.17s.87.5.87.5c.08-.28.19-.53.34-.74l-.61-1.05,1.33-.76.61,1.04c.25-.01.53,0,.82.09v-.99s1.89,1.09,1.89,1.09v.99c.28.25.56.55.81.85l.61-.34,1.33,2.3-.61.35c.15.38.27.76.34,1.14l.86.49v2.16ZM36.93,161.78c.92.53,1.68.1,1.68-.96,0-1.06-.75-2.36-1.67-2.89-.92-.53-1.67-.1-1.67.96,0,1.06.74,2.36,1.66,2.89"></path></g><g><g class="cls-51"><path class="cls-30" d="M94.47,63.32c-1.23-3.56-3.79-7-6.74-8.71-2.1-1.21-4-1.32-5.37-.52l-6.11,3.55c1.25-.73,2.94-.69,4.81.23l-3.49,2.03c-.82.48-1.39,1.38-1.59,2.65l6.1-3.55c.03-.17.08-.31.11-.46,2.71,1.8,5.01,4.99,6.17,8.31l-2.46,1.43,1.05-.6,1.41-.82s0,0,0,0l1.09-.62v4.07s6.09-3.55,6.09-3.55v-4.07s-1.08.62-1.08.62Z"></path><path class="cls-27" d="M81.63,58.16c2.96,1.71,5.51,5.14,6.74,8.71l1.09-.62v4.07s-.36-.2-.36-.2l-1.87-1.08-1.33-.77,1.05-.6c-.8-2.97-2.89-5.97-5.34-7.39-2.83-1.63-5.19-.61-5.64,2.26l-1.88-1.08c.47-4.03,3.67-5.53,7.52-3.3Z"></path></g><g class="cls-49"><g class="cls-51"><path class="cls-5" d="M93.22,70l-4.67,2.71c-.32-.12-.64-.27-.98-.46-2.45-1.41-4.53-4.4-5.33-7.36l1.06-.62-1.34-.77-1.87-1.08-.34-.19-6.11,3.55.34.19,1.88,1.08,1.32.76-1.05.61c.8,2.97,2.89,5.96,5.34,7.38,1.58.91,3.02,1,4.06.39l3.08-1.79.38.22c-.21,1.84-.99,3.15-2.15,3.82l6.11-3.55c1.15-.67,1.94-1.98,2.15-3.83l-1.87-1.08Z"></path></g></g><path class="cls-27" d="M87.11,73.54l1.87,1.08c-.46,4.03-3.66,5.53-7.52,3.3-2.95-1.7-5.5-5.14-6.74-8.7l-1.09.61v-4.07s.35.19.35.19l1.88,1.08,1.34.77-1.07.6c.8,2.97,2.89,5.96,5.34,7.38,2.84,1.64,5.2.61,5.65-2.25Z"></path></g><g class="cls-46"><polygon class="cls-4" points="107.86 -72.49 107.86 236.01 132.88 250.45 157.9 236.01 157.9 -72.49 107.86 -72.49"></polygon></g><g><g><polygon class="cls-1" points="273.32 129.41 273.22 163.99 319.16 190.7 319.26 156.11 273.32 129.41"></polygon><g class="cls-47"><g class="cls-51"><path class="cls-2" d="M287.09,158.78c3.87,2.23,7,7.66,6.99,12.1l-1.73-1c0-3.35-2.35-7.43-5.26-9.12v-1.99Z"></path><path class="cls-2" d="M287.1,153.32c6.49,3.75,11.74,12.85,11.72,20.3l-1.97-1.14c.02-6.2-4.36-13.78-9.75-16.89v-2.27Z"></path><path class="cls-2" d="M287.12,148.02c9.03,5.21,16.34,17.88,16.31,28.26l-2.13-1.23c.02-9.02-6.34-20.05-14.19-24.58v-2.45Z"></path></g><path class="cls-2" d="M288.34,164.65c.7.4,1.26,1.38,1.26,2.18,0,.8-.57,1.13-1.27.73-.7-.4-1.26-1.38-1.26-2.19,0-.8.57-1.13,1.27-.72Z"></path></g><polygon class="cls-31" points="319.24 162.25 319.26 156.11 273.32 129.41 273.3 135.55 319.24 162.25"></polygon></g><g><polygon class="cls-1" points="171.42 81.43 136.44 61.1 136.32 103.14 171.29 123.48 171.42 81.43"></polygon><g class="cls-50"><polygon class="cls-2" points="156.6 100.08 162.16 108.57 160.52 108.67 162.04 112.75 160.66 112.83 159.13 108.75 157.49 108.84 156.6 100.08"></polygon><path class="cls-2" d="M160.71,90.21c1.75,3.26,2.82,6.85,2.81,10.1,0,2.71-.76,4.78-2.03,6.1l-.87-1.33c1.01-1.07,1.65-2.69,1.75-4.79l-2.99-1.73c-.05,1.38-.26,2.61-.62,3.68l-.99-1.53c.24-.85.38-1.8.42-2.84l-5.03-2.9v3.73c.96.62,1.91,1.37,2.82,2.24l.15,1.53c-.94-.97-1.95-1.81-2.99-2.47l-.02,5.34c1.25-.17,2.3-.76,3.13-1.69l.21,2.09c-.36.27-.73.51-1.14.7.42.1.83.16,1.22.17l.14,1.44c-.95-.09-1.96-.39-3-.86-.21-.1-.35-.17-.51-.25l-.1-.05-.19-.1c-.25-.12-.5-.26-.76-.4l-.23-.18c-.2-.14-.34-.23-.49-.33-2.54-1.77-4.82-4.34-6.61-7.43l-.4-.69c-1.74-3.26-2.82-6.86-2.81-10.11,0-3.25,1.1-5.6,2.87-6.81l.39-.25c1.8-1,4.09-.93,6.57.19.21.1.36.17.51.25l.27.1c.26.15.51.32.76.48l.19.11.1.07c.16.1.31.2.46.3,2.53,1.78,4.82,4.35,6.6,7.42l.4.7ZM159.38,97.27l2.99,1.73c-.12-2.73-1.04-5.67-2.49-8.35-.5.22-1.04.37-1.6.44.65,2.08,1.04,4.18,1.1,6.18M142.75,88.96c.12,2.73,1.04,5.66,2.49,8.35.5-.22,1.04-.36,1.6-.43-.65-2.08-1.04-4.18-1.1-6.2l-2.99-1.73M145.28,82.22c-1.46,1.01-2.39,2.88-2.53,5.45l2.99,1.73c.08-1.93.46-3.58,1.13-4.9-.56-.72-1.09-1.48-1.59-2.28M151.95,98.01v-3.73s-5.02-2.9-5.02-2.9c.06,1.77.4,3.62.95,5.46,1.27.04,2.65.44,4.07,1.18M151.96,92.99v-3.72c-1.41-.91-2.79-2.1-4.05-3.51-.57,1.17-.91,2.63-.98,4.33l5.03,2.9M153.16,93.68l5.03,2.91c-.06-1.77-.4-3.62-.96-5.45-1.25-.04-2.64-.44-4.06-1.17v3.72M151.98,87.97l.02-5.35c-1.48.2-2.7,1-3.56,2.27,1.1,1.23,2.31,2.27,3.55,3.08M153.19,83.31l-.02,5.35c1.24.63,2.45.97,3.55,1.02-.85-2.26-2.06-4.46-3.54-6.37M151.93,104.65l.02-5.34c-1.24-.64-2.45-.98-3.55-1.02.85,2.26,2.06,4.45,3.54,6.36M159.08,89.26c-1.05-1.67-2.31-3.22-3.69-4.49.95,1.54,1.76,3.17,2.4,4.86.46-.07.89-.18,1.3-.36M146.04,98.7c1.05,1.69,2.31,3.23,3.69,4.5-.95-1.54-1.76-3.18-2.4-4.86-.45.05-.89.18-1.29.35M149.79,81.54c-1.38-.32-2.65-.24-3.71.22.4.65.84,1.27,1.29,1.86.64-.95,1.46-1.64,2.42-2.08"></path></g><polygon class="cls-31" points="171.4 87.57 171.42 81.43 136.44 61.1 136.43 67.24 171.4 87.57"></polygon><polygon class="cls-1" points="246.71 43.58 187.58 9.21 187.51 33.8 246.71 68.21 246.71 43.58"></polygon><g class="cls-47"><g><path class="cls-2" d="M227.81,45.84l-.47-.27c-.04.16-.11.29-.19.41l.33.58-.74.42-.33-.57c-.14,0-.29,0-.45-.05v.54s-1.03-.6-1.03-.6v-.54c-.16-.14-.31-.3-.45-.47l-.33.19-.73-1.26.33-.19c-.08-.21-.14-.42-.19-.62l-.47-.27v-1.19s.47.27.47.27c.05-.16.11-.29.19-.41l-.33-.58.73-.42.33.58c.14-.01.29,0,.45.05v-.54s1.03.6,1.03.6v.54c.16.14.31.3.45.47l.34-.19.73,1.26-.33.19c.08.21.14.42.18.62l.47.27v1.19ZM225.45,44.95c.51.29.92.06.92-.53,0-.58-.41-1.29-.92-1.59-.51-.29-.92-.06-.92.52,0,.58.41,1.3.92,1.59"></path><path class="cls-2" d="M223.49,47.24l-.72-.42c-.07.24-.17.45-.29.62l.51.88-1.12.64-.51-.88c-.22.01-.45,0-.69-.07v.83s-1.58-.91-1.58-.91v-.83c-.24-.22-.47-.46-.68-.73l-.51.29-1.12-1.93.51-.29c-.12-.31-.22-.64-.28-.95l-.72-.42v-1.81s.72.42.72.42c.07-.24.16-.45.29-.63l-.51-.88,1.12-.64.51.88c.21-.02.44,0,.69.07v-.83s1.58.91,1.58.91v.83c.24.22.47.46.68.73l.51-.29,1.11,1.93-.51.29c.12.31.22.64.29.95l.72.42v1.81ZM219.89,45.87c.78.45,1.41.09,1.41-.8,0-.89-.63-1.98-1.4-2.43-.78-.45-1.41-.09-1.41.8,0,.89.63,1.98,1.4,2.43"></path><polygon class="cls-2" points="209.2 35.5 209.56 36.19 206.56 37.36 205.5 34.87 205.96 34.78 206.69 36.48 209.2 35.5"></polygon><path class="cls-2" d="M212.06,34.98c0,.1.75,9.56-4.49,7.62l-.07-.03-.06-.04c-5.23-4.11-4.44-12.68-4.43-12.77.02-.2.16-.27.35-.18,2.54,1.32,3.51.76,3.87.31.07-.08.19-.09.31-.02.13.07.25.22.32.38.35.86,1.32,2.53,3.86,4.14.18.12.33.36.35.58ZM207.51,41.72c3.96,1.39,3.91-5.07,3.84-6.71-2.13-1.43-3.25-2.96-3.81-4.01-.57.4-1.68.64-3.82-.39-.08,1.55-.16,7.94,3.79,11.11"></path><polygon class="cls-2" points="198.76 29.86 198.74 37.19 192.01 33.31 192.03 25.98 198.76 29.86"></polygon><path class="cls-2" d="M195.41,22.87c1.52.88,2.74,3,2.74,4.74v1.62s-1.01-.58-1.01-.58v-1.61c0-1.11-.77-2.46-1.73-3.01-.96-.56-1.75-.11-1.75,1v1.61s-1.01-.58-1.01-.58v-1.62c0-1.74,1.25-2.45,2.76-1.57Z"></path><path class="cls-2" d="M237.22,47.27c1.96,1.13,3.66,3.42,4.47,5.78l.73-.41v2.71s-.24-.13-.24-.13l-1.24-.72-.88-.51.7-.4c-.53-1.97-1.91-3.96-3.54-4.9-1.88-1.09-3.45-.41-3.75,1.5l-1.24-.72c.31-2.68,2.43-3.67,5-2.19Z"></path><path class="cls-2" d="M242.18,56.6c-.31,2.68-2.43,3.68-4.99,2.2-1.96-1.13-3.66-3.41-4.48-5.78l-.72.41v-2.71s.23.13.23.13l1.24.72.89.51-.7.4c.53,1.97,1.91,3.95,3.54,4.89,1.88,1.09,3.45.41,3.74-1.5l1.24.72Z"></path></g></g><polygon class="cls-31" points="246.71 43.58 187.58 9.21 187.56 15.66 246.71 50.04 246.71 43.58"></polygon></g></g></svg> 