<svg xmlns="http://www.w3.org/2000/svg" width="70" height="70" viewBox="0 0 70 70" fill="none">
  <path d="M25.684 52.3241V53.9628M44.009 52.3241V53.9628M27.5313 59.177C29.9451 63.8449 36.1618 70.3801 41.7184 59.177M28.7874 28.1153L31.7431 30.9459V47.3333M40.61 28.1153L38.0238 30.9459V47.3333M55.0189 7.25854C53.3301 7.69319 51.3416 8.35675 49.1454 9.26973M7.72839 55.0801C16.3116 28.5115 36.2869 14.6152 49.1454 9.26973M14.2308 63.2739C15.4624 63.2739 19.4771 62.4545 25.684 59.177M61.5213 14.931C60.7085 19.8224 56.8514 32.5548 44.6741 42.5661C61.2257 30.1115 54.5515 15.1791 49.1454 9.26973M44.009 59.177C48.9105 61.7096 59.275 65.2553 61.5213 59.177C62.1617 57.4389 62.6001 52.3539 59.2307 45.9181M10.3146 24.6144C8.73824 20.8651 6.2949 12.7558 9.13233 10.3126C10.0437 8.79797 13.7432 6.46896 21.2505 9.26973C27.9007 12.0506 43.9647 21.7689 55.0189 38.3947M25.684 46.6629V43.9814C21.4722 41.0018 13.285 32.5697 14.2308 22.6777C15.1766 12.7856 23.4919 6.53849 27.5313 4.65145C31.3742 2.68992 41.0772 0.867432 49.1454 9.26973" stroke="#00256A" stroke-width="1.77339" stroke-linecap="round"/>
  <path d="M44.5269 42.7901V46.887" stroke="#00256A" stroke-width="1.77339" stroke-linecap="round"/>
  <ellipse cx="60.4911" cy="9.26939" rx="5.91479" ry="6.25703" fill="url(#paint0_linear_680_2978)"/>
  <ellipse cx="9.3546" cy="60.6665" rx="6.35466" ry="6.40601" fill="url(#paint1_linear_680_2978)"/>
  <ellipse cx="11.8668" cy="26.7001" rx="2.95565" ry="2.97954" fill="url(#paint2_linear_680_2978)"/>
  <mask id="path-6-inside-1_680_2978" fill="white">
    <rect x="22.803" y="46.662" width="24.2364" height="5.51215" rx="1.33004"/>
  </mask>
  <rect x="22.803" y="46.662" width="24.2364" height="5.51215" rx="1.33004" stroke="#00256A" stroke-width="3.54679" mask="url(#path-6-inside-1_680_2978)"/>
  <mask id="path-7-inside-2_680_2978" fill="white">
    <rect x="22.5073" y="53.6655" width="24.2364" height="5.51215" rx="1.33004"/>
  </mask>
  <rect x="22.5073" y="53.6655" width="24.2364" height="5.51215" rx="1.33004" stroke="#00256A" stroke-width="3.54679" mask="url(#path-7-inside-2_680_2978)"/>
  <ellipse cx="57.389" cy="42.3429" rx="4.13264" ry="4.32033" fill="url(#paint3_linear_680_2978)"/>
  <defs>
    <linearGradient id="paint0_linear_680_2978" x1="60.4911" y1="3.01236" x2="60.4911" y2="15.5264" gradientUnits="userSpaceOnUse">
      <stop stop-color="#FF6A00"/>
      <stop offset="1" stop-color="#994000"/>
    </linearGradient>
    <linearGradient id="paint1_linear_680_2978" x1="9.3546" y1="54.2605" x2="9.3546" y2="67.0725" gradientUnits="userSpaceOnUse">
      <stop stop-color="#FF6A00"/>
      <stop offset="1" stop-color="#994000"/>
    </linearGradient>
    <linearGradient id="paint2_linear_680_2978" x1="11.8668" y1="23.7206" x2="11.8668" y2="29.6797" gradientUnits="userSpaceOnUse">
      <stop stop-color="#FF6A00"/>
      <stop offset="1" stop-color="#994000"/>
    </linearGradient>
    <linearGradient id="paint3_linear_680_2978" x1="57.389" y1="38.0226" x2="57.389" y2="46.6632" gradientUnits="userSpaceOnUse">
      <stop stop-color="#FF6A00"/>
      <stop offset="1" stop-color="#994000"/>
    </linearGradient>
  </defs>
</svg>