<svg xmlns="http://www.w3.org/2000/svg" width="66" height="66" viewBox="0 0 66 66" fill="none">
  <path d="M26.1526 13.5428H32.3433M34.6976 54.3328H43.3298M44.9864 33.5038H58.2399C60.5069 33.3303 64.9538 31.9243 64.605 27.6891V18.4896C64.4016 16.9853 63.1576 14.0288 59.8094 14.2371H55.4497" stroke="#00256A" stroke-width="2.0662" stroke-linecap="round"/>
  <path d="M21.8795 33.33H8.27731C6.5625 33.3879 3.11544 34.4062 3.04568 38.0166V47.8801C3.04568 49.2206 3.63445 50.4935 4.656 51.3615V51.3615C5.92429 52.4391 7.53439 53.0308 9.19869 53.0308H12.0266" stroke="#00256A" stroke-width="2.0662" stroke-linecap="round"/>
  <path d="M64.9669 54.1591C64.9669 59.8483 60.2568 64.4952 54.4032 64.4952C48.5497 64.4952 43.8396 59.8483 43.8396 54.1591C43.8396 48.4699 48.5497 43.8231 54.4032 43.8231C60.2568 43.8231 64.9669 48.4699 64.9669 54.1591Z" stroke="#00256A" stroke-width="2.0662"/>
  <path d="M18.7546 13.6294C18.7546 16.3957 16.4639 18.6714 13.597 18.6714C10.73 18.6714 8.43932 16.3957 8.43932 13.6294C8.43932 10.863 10.73 8.58736 13.597 8.58736C16.4639 8.58736 18.7546 10.863 18.7546 13.6294Z" stroke="#00256A" stroke-width="2.0662"/>
  <path d="M11.5276 4.32794L12.2013 2H15.0885L15.5697 4.32794L18.5531 5.58891L20.6703 4.32794L22.4989 6.26789L21.344 8.59584L22.4989 11.4088L25.1935 12.1847V14.9007L22.4989 15.7737L21.344 18.7806L22.4989 20.8175L20.6703 22.6605L18.5531 21.4965L15.5697 22.9515L14.7998 25.0854H12.2013L11.5276 22.6605L8.64047 21.4965L6.52322 22.9515L4.50221 20.8175L5.56083 18.4896L4.50221 15.7737L2 14.9007V12.1847L4.50221 11.4088L5.56083 8.59584L4.50221 6.26789L6.52322 4.32794L8.64047 5.58891L11.5276 4.32794Z" stroke="#00256A" stroke-width="2.0662" stroke-linecap="round"/>
  <rect x="32.3431" y="8.42166" width="23.0191" height="10.2409" rx="2.58275" fill="url(#paint0_linear_680_2996)"/>
  <rect x="21.8796" y="28.2095" width="23.0192" height="10.2409" rx="2.58275" fill="url(#paint1_linear_680_2996)"/>
  <rect x="11.4166" y="49.0385" width="23.0191" height="10.2409" rx="2.58275" fill="url(#paint2_linear_680_2996)"/>
  <rect x="36.529" y="12.4142" width="2.09265" height="2.25647" fill="#00256A"/>
  <rect x="26.0654" y="32.2015" width="2.09265" height="2.25647" fill="#00256A"/>
  <rect x="15.6021" y="53.0311" width="2.09265" height="2.25647" fill="#00256A"/>
  <rect x="40.7136" y="12.4142" width="2.09265" height="2.25647" fill="#00256A"/>
  <rect x="30.2505" y="32.2015" width="2.09265" height="2.25647" fill="#00256A"/>
  <rect x="19.7872" y="53.0311" width="2.09265" height="2.25647" fill="#00256A"/>
  <rect x="44.8988" y="12.4142" width="2.09265" height="2.25647" fill="#00256A"/>
  <rect x="34.436" y="32.2015" width="2.09265" height="2.25647" fill="#00256A"/>
  <rect x="23.9728" y="53.0311" width="2.09265" height="2.25647" fill="#00256A"/>
  <rect x="49.0845" y="12.4142" width="2.09265" height="2.25647" fill="#00256A"/>
  <rect x="38.6212" y="32.2015" width="2.09265" height="2.25647" fill="#00256A"/>
  <rect x="28.1577" y="53.0311" width="2.09265" height="2.25647" fill="#00256A"/>
  <path d="M49.2585 56.6757L51.4383 58.8454L59.7217 50.4271" stroke="#00256A" stroke-width="2.0662" stroke-linecap="round"/>
  <defs>
    <linearGradient id="paint0_linear_680_2996" x1="43.8527" y1="8.42166" x2="43.8527" y2="18.6626" gradientUnits="userSpaceOnUse">
      <stop stop-color="#FF6A00"/>
      <stop offset="1" stop-color="#994000"/>
    </linearGradient>
    <linearGradient id="paint1_linear_680_2996" x1="33.3892" y1="28.2095" x2="33.3892" y2="38.4504" gradientUnits="userSpaceOnUse">
      <stop stop-color="#FF6A00"/>
      <stop offset="1" stop-color="#994000"/>
    </linearGradient>
    <linearGradient id="paint2_linear_680_2996" x1="22.9262" y1="49.0385" x2="22.9262" y2="59.2794" gradientUnits="userSpaceOnUse">
      <stop stop-color="#FF6A00"/>
      <stop offset="1" stop-color="#994000"/>
    </linearGradient>
  </defs>
</svg>