<svg width="55" height="62" viewBox="0 0 55 62" fill="none" xmlns="http://www.w3.org/2000/svg">
<path d="M5.52666 27.4903C5.56019 28.0357 6.02948 28.4506 6.57484 28.4171C7.12021 28.3835 7.53513 27.9143 7.5016 27.3689L5.52666 27.4903ZM20.5298 1.99754L20.275 1.04161V1.04161L20.5298 1.99754ZM41.3882 6.4849L40.7458 7.23727L41.3882 6.4849ZM46.5838 26.128C46.5532 26.6735 46.9707 27.1405 47.5162 27.1711C48.0618 27.2016 48.5288 26.7841 48.5593 26.2386L46.5838 26.128ZM9.39974 27.4299H10.3891C10.3891 26.8836 9.94614 26.4406 9.39974 26.4406V27.4299ZM9.39974 44.0521V45.0415C9.94614 45.0415 10.3891 44.5985 10.3891 44.0521H9.39974ZM4.20573 44.0521L4.06855 45.0319L4.13681 45.0415H4.20573V44.0521ZM1.07284 31.6686L2.06163 31.7013L2.06375 31.6372L2.05757 31.5733L1.07284 31.6686ZM3.21634 27.4299V26.4406H3.05457L2.90121 26.4921L3.21634 27.4299ZM44.7684 27.4299V26.4406C44.222 26.4406 43.7791 26.8836 43.7791 27.4299H44.7684ZM44.7684 44.0521H43.7791C43.7791 44.5985 44.222 45.0415 44.7684 45.0415V44.0521ZM50.3747 44.0521V45.0415H50.4703L50.5641 45.0232L50.3747 44.0521ZM53.0953 40.1459L54.0835 40.1937L54.0847 40.1698V40.1459H53.0953ZM53.0953 31.6686H54.0847V31.6336L54.0822 31.5987L53.0953 31.6686ZM49.9624 27.4299L50.2107 26.4723C50.1296 26.4512 50.0462 26.4406 49.9624 26.4406V27.4299ZM35.8197 52.9579C35.2778 53.0282 34.8955 53.5244 34.9657 54.0662C35.036 54.6081 35.5322 54.9904 36.074 54.9202L35.8197 52.9579ZM7.5016 27.3689C7.29824 24.0614 7.30725 18.7973 9.04327 13.9335C10.7632 9.11489 14.1587 4.72024 20.7847 2.95348L20.275 1.04161C12.8852 3.01201 9.06685 7.98125 7.17975 13.2683C5.30879 18.5102 5.3178 24.0935 5.52666 27.4903L7.5016 27.3689ZM20.7847 2.95348C26.5653 1.41215 30.8596 1.92187 34.0266 3.06471C37.2107 4.2137 39.3259 6.02483 40.7458 7.23727L42.0307 5.73254C40.5957 4.50721 38.247 2.48406 34.6983 1.20351C31.1325 -0.0831859 26.425 -0.59826 20.275 1.04161L20.7847 2.95348ZM40.7458 7.23727C45.2597 11.0917 47.0389 17.9994 46.5838 26.128L48.5593 26.2386C49.0275 17.8777 47.2452 10.1852 42.0307 5.73254L40.7458 7.23727ZM8.41041 27.4299V44.0521H10.3891V27.4299H8.41041ZM9.39974 43.0628H4.20573V45.0415H9.39974V43.0628ZM4.34291 43.0724C3.69697 42.9819 2.16496 42.2985 2.06107 40.0992L0.0846008 40.1926C0.244537 43.5784 2.73582 44.8453 4.06855 45.0319L4.34291 43.0724ZM2.06107 40.0992C1.9311 37.3477 2.00687 33.3574 2.06163 31.7013L0.0840393 31.6359C0.0288737 33.3042 -0.0492479 37.3591 0.0846008 40.1926L2.06107 40.0992ZM2.05757 31.5733C2.01369 31.1199 2.04918 30.3788 2.29156 29.7096C2.52856 29.0553 2.91811 28.5739 3.53147 28.3678L2.90121 26.4921C1.5359 26.9509 0.798732 28.0209 0.43116 29.0357C0.0689642 30.0357 0.0220399 31.0814 0.0881011 31.7639L2.05757 31.5733ZM3.21634 28.4193H9.39974V26.4406H3.21634V28.4193ZM43.7791 27.4299V44.0521H45.7578V27.4299H43.7791ZM50.5641 45.0232C51.8249 44.7772 53.9278 43.4124 54.0835 40.1937L52.1072 40.0981C51.9991 42.3315 50.6283 42.9947 50.1852 43.0811L50.5641 45.0232ZM54.0847 40.1459V31.6686H52.106V40.1459H54.0847ZM54.0822 31.5987C54.0319 30.8889 53.7899 29.8296 53.2206 28.8429C52.6427 27.8415 51.6887 26.8554 50.2107 26.4723L49.7142 28.3876C50.5447 28.6029 51.1158 29.1544 51.5067 29.8318C51.9061 30.5239 52.0763 31.2848 52.1085 31.7385L54.0822 31.5987ZM49.9624 26.4406H44.7684V28.4193H49.9624V26.4406ZM44.7684 45.0415H47.5716V43.0628H44.7684V45.0415ZM47.5716 45.0415H50.3747V43.0628H47.5716V45.0415ZM46.5879 44.1584C46.8191 46.298 44.6519 51.8132 35.8197 52.9579L36.074 54.9202C45.7094 53.6713 48.9286 47.4024 48.5552 43.9459L46.5879 44.1584Z" fill="#00256A"/>
<ellipse cx="28.3613" cy="53.9382" rx="7.7498" ry="8.06176" fill="url(#paint0_linear_680_3032)"/>
<defs>
<linearGradient id="paint0_linear_680_3032" x1="28.3613" y1="45.8765" x2="28.3613" y2="62" gradientUnits="userSpaceOnUse">
<stop stop-color="#FF6A00"/>
<stop offset="1" stop-color="#994000"/>
</linearGradient>
</defs>
</svg>
